<?xml version="1.0" encoding="utf-8"?>
<!-- Generator: Adobe Illustrator 28.2.0, SVG Export Plug-In . SVG Version: 6.00 Build 0)  -->
<svg version="1.1" id="Calque_1" xmlns="http://www.w3.org/2000/svg" xmlns:xlink="http://www.w3.org/1999/xlink" x="0px" y="0px"
	 viewBox="0 0 600 600" style="enable-background:new 0 0 600 600;" xml:space="preserve">
<style type="text/css">
	.st0{fill-rule:evenodd;clip-rule:evenodd;fill:#0C4772;}
	.st1{fill:#0C4772;}
	.st2{fill:#ED6D28;}
</style>
<path class="st0" d="M10,300C10,139.8,139.8,10,300,10s290,129.8,290,290S460.2,590,300,590S10,460.1,10,300z M42.2,300
	C42.2,157.6,157.6,42.2,300,42.2S557.8,157.6,557.8,300S442.4,557.8,300,557.8S42.2,442.4,42.2,300z"/>
<path class="st1" d="M221.6,171.5h-79c64.7,77,209.6,244.7,209.6,244.7s13.8,22.3,44.6,22.3h73.8l-213-244.7
	C249,181.7,237,171.5,221.6,171.5L221.6,171.5z"/>
<path class="st2" d="M224.1,438.4h-78.2c64.1-77,207.4-244.7,207.4-244.7s13.6-22.3,44.2-22.3h73.1L259.8,416.1
	C251.3,428.1,239.4,438.4,224.1,438.4z"/>
</svg>
