<?xml version="1.0" encoding="utf-8"?>
<!-- Generator: Adobe Illustrator 24.3.0, SVG Export Plug-In . SVG Version: 6.00 Build 0)  -->
<svg version="1.1" id="Layer_1" xmlns="http://www.w3.org/2000/svg" xmlns:xlink="http://www.w3.org/1999/xlink" x="0px" y="0px"
	 viewBox="0 0 612 792" enable-background="new 0 0 612 792" xml:space="preserve">
<title>HTML5 Logo</title>
<path fill="#2659A5" d="M82.273,145.125l41.946,454.44l181.779,48.946l181.776-48.946l41.953-454.44H82.273z M439.64,292.404
	l-133.805,57.208l-0.32,0.137h0.32h129.079l-14.8,170.184L306.042,553.23l-0.207-0.061v0.061l-114.69-33.913l-7.399-85.71h0.199
	h56.529h0.2l3.699,44.397l60.943,15.387l0.518-0.146v0.058l63.101-17.767l4.316-71.526l-67.417-0.215v0l-125.789-0.401
	l-4.316-53.646l130.105-54.186l7.584-3.158h-7.584H170.797l-6.782-54.878h141.82h139.354L439.64,292.404z"/>
</svg>
