<?xml version="1.0" encoding="utf-8"?>
<!-- Generator: Adobe Illustrator 27.0.0, SVG Export Plug-In . SVG Version: 6.00 Build 0)  -->
<svg version="1.1" id="Calque_1" xmlns="http://www.w3.org/2000/svg" xmlns:xlink="http://www.w3.org/1999/xlink" x="0px" y="0px"
	 viewBox="0 0 650 650" style="enable-background:new 0 0 650 650;" xml:space="preserve">
<style type="text/css">
	.st0{fill:#FFFFFF;}
</style>
<path class="st0" d="M325,25C159.3,25,25,159.3,25,325s134.3,300,300,300s300-134.3,300-300S490.7,25,325,25z M325,595.2
	c-149.2,0-270.2-121-270.2-270.2S175.8,54.8,325,54.8s270.2,121,270.2,270.2S474.2,595.2,325,595.2z"/>
<path class="st0" d="M469.7,219.2h-16.6h-55.9c-1.4-5.4-4.5-13.7-10.7-22c-9.2-12.3-27.4-27-61.5-27s-52.3,14.7-61.5,27
	c-6.2,8.3-9.3,16.6-10.7,22h-55.9h-16.6c-13.7,0-24.8,11.1-24.8,24.8v16.6v53.3v94.8c0,22.8,18.6,41.4,41.4,41.4H453
	c22.8,0,41.4-18.6,41.4-41.4v-94.8v-53.3V244C494.5,230.3,483.4,219.2,469.7,219.2z M325,195.2c29.6,0,41.3,14.1,45.8,24h-91.6
	C283.7,209.3,295.4,195.2,325,195.2z M469.5,408.7c0,9.1-7.4,16.4-16.4,16.4H196.9c-9.1,0-16.4-7.4-16.4-16.4v-56.1
	c5.4,2.4,11.3,3.8,17.6,3.8h253.8c6.3,0,12.2-1.4,17.6-3.8L469.5,408.7L469.5,408.7z M469.5,313.9c0,9.7-7.9,17.6-17.6,17.6H198.1
	c-9.7,0-17.6-7.9-17.6-17.6v-53.3c0-9.1,7.4-16.4,16.4-16.4H453c9.1,0,16.4,7.4,16.4,16.4v53.3H469.5z"/>
</svg>
