<?xml version="1.0" encoding="utf-8"?>
<!-- Generator: Adobe Illustrator 26.5.0, SVG Export Plug-In . SVG Version: 6.00 Build 0)  -->
<svg version="1.1" id="Calque_1" xmlns="http://www.w3.org/2000/svg" xmlns:xlink="http://www.w3.org/1999/xlink" x="0px" y="0px"
	 viewBox="0 0 650 650" style="enable-background:new 0 0 650 650;" xml:space="preserve">
<style type="text/css">
	.st0{fill:#FFFFFF;}
	.st1{fill:none;stroke:#FFFFFF;stroke-width:25;stroke-miterlimit:10;}
</style>
<path class="st0" d="M325,25C159.31,25,25,159.31,25,325s134.31,300,300,300s300-134.31,300-300S490.69,25,325,25z M325,595.23
	C175.76,595.23,54.77,474.24,54.77,325S175.76,54.77,325,54.77S595.23,175.76,595.23,325S474.24,595.23,325,595.23z"/>
<path class="st1" d="M453.07,437.66H196.93c-15.98,0-28.93-12.95-28.93-28.93V260.59c0-15.98,12.95-28.93,28.93-28.93h256.14
	c15.98,0,28.93,12.95,28.93,28.93v148.14C482,424.71,469.05,437.66,453.07,437.66z"/>
<path class="st1" d="M264,226.66c0,0,5-44,61-44"/>
<path class="st1" d="M386,226.66c0,0-5-44-61-44"/>
<path class="st1" d="M451.89,343.99H198.11c-16.63,0-30.11-13.48-30.11-30.11v-69.91c0-6.8,5.51-12.31,12.31-12.31h289.38
	c6.8,0,12.31,5.51,12.31,12.31v69.91C482,330.51,468.52,343.99,451.89,343.99z"/>
</svg>
