<?xml version="1.0" encoding="utf-8"?>
<!-- Generator: Adobe Illustrator 24.3.0, SVG Export Plug-In . SVG Version: 6.00 Build 0)  -->
<svg version="1.1" id="Layer_1" xmlns="http://www.w3.org/2000/svg" xmlns:xlink="http://www.w3.org/1999/xlink" x="0px" y="0px"
	 viewBox="0 0 612 792" enable-background="new 0 0 612 792" xml:space="preserve">
<title>HTML5 Logo</title>
<path fill="#E44D26" d="M82.853,145.125l40.393,453.065l181.264,50.321l181.764-50.392l40.437-452.994H82.853z M443.703,257.241
	l-2.532,28.169l-1.115,12.49h-0.178H306.029h-0.193h-78.415l5.078,56.901h73.336h0.193h113.997H435l-1.356,14.921l-13.058,146.289
	l-0.836,9.387l-113.722,31.517v0.01l-0.256,0.071l-113.825-31.598l-7.785-87.247h25.71h30.07l3.957,44.316l61.884,16.71l0.051-0.014
	v-0.004l61.974-16.727l6.45-72.067h-68.232h-0.193H181.681l-13.657-153.126l-1.331-14.908h139.142h0.193h139.002L443.703,257.241z"
	/>
</svg>
