<?xml version="1.0" encoding="utf-8"?>
<!-- Generator: Adobe Illustrator 26.5.0, SVG Export Plug-In . SVG Version: 6.00 Build 0)  -->
<svg version="1.1" id="Layer_1" xmlns="http://www.w3.org/2000/svg" xmlns:xlink="http://www.w3.org/1999/xlink" x="0px" y="0px"
	 viewBox="0 0 612 792" style="enable-background:new 0 0 612 792;" xml:space="preserve">
<style type="text/css">
	.st0{fill:#E44D26;}
</style>
<path class="st0" d="M82.9,145.1l40.4,453.1l181.3,50.3l181.8-50.4l40.4-453L82.9,145.1L82.9,145.1z M443.7,257.2l-2.5,28.2
	l-1.1,12.5h-0.2H306h-0.2h-78.4l5.1,56.9h73.3h0.2h114h15l-1.4,14.9L420.6,516l-0.8,9.4L306,556.9v0l-0.3,0.1l-113.8-31.6l-7.8-87.2
	h25.7h30.1l4,44.3l61.9,16.7l0.1,0v0l62-16.7l6.5-72.1H306h-0.2H181.7L168,257.2l-1.3-14.9h139.1h0.2h139L443.7,257.2z"/>
</svg>
