<?xml version="1.0" encoding="utf-8"?>
<!-- Generator: Adobe Illustrator 28.2.0, SVG Export Plug-In . SVG Version: 6.00 Build 0)  -->
<svg version="1.1" id="Layer_1" xmlns="http://www.w3.org/2000/svg" xmlns:xlink="http://www.w3.org/1999/xlink" x="0px" y="0px"
	 viewBox="0 0 600 600" style="enable-background:new 0 0 600 600;" xml:space="preserve">
<style type="text/css">
	.st0{fill:#E44D26;}
</style>
<rect width="600" height="600"/>
<path class="st0" d="M59.6,27.3l43.8,490.9l196.4,54.5l197-54.6l43.6-490.8H59.6L59.6,27.3z M450.4,148.7l-2.7,30.5l-1.2,13.5h-0.2
	H301.3h-0.2h-84.9l5.5,61.6h79.4h0.2h123.5h16.3l-1.5,16.2l-14.2,158.5l-0.9,10.2l-123.3,34.1l0,0l-0.4,0.1l-123.3-34.3l-8.5-94.4
	H197h32.6l4.4,48l67.1,18.1h0.1l0,0l67.2-18.1l7-78.1h-74.1h-0.2H166.6l-14.8-166l-1.4-16.2h150.7h0.2h150.5L450.4,148.7z"/>
</svg>
