<?xml version="1.0" encoding="utf-8"?>
<!-- Generator: Adobe Illustrator 26.5.0, SVG Export Plug-In . SVG Version: 6.00 Build 0)  -->
<svg version="1.1" id="Layer_1" xmlns="http://www.w3.org/2000/svg" xmlns:xlink="http://www.w3.org/1999/xlink" x="0px" y="0px"
	 viewBox="0 0 650 650" style="enable-background:new 0 0 650 650;" xml:space="preserve">
<style type="text/css">
	.st0{fill:#330000;}
</style>
<g>
	<path class="st0" d="M288.3,293.2c-2.5-7.7-4.7-15.3-7.2-23c-2.5-7.7-4.7-15-6.7-22.3c-2-7-3.7-13.5-5.5-19.5h-0.5
		c-2.3,10.7-5,21.5-8.5,32.3c-3.7,12-7.5,24.5-11.5,37c-3.5,12.8-7.2,24.5-11,35h63.5c-1.5-5.3-3.5-11.5-5.8-18
		C292.7,308,290.5,300.8,288.3,293.2z"/>
	<path class="st0" d="M518.7,32.5H131.3C72.5,32.5,25,80,25,138.8v372.5c0,58.7,47.5,106.3,106.3,106.3h387.5
		c58.7,0,106.3-47.5,106.3-106.3V138.8C625,80,577.5,32.5,518.7,32.5z M392.5,445.7h-52.2c-1.8,0.2-3.5-1-4-2.8l-20.5-59.5h-93
		l-19,58.7c-0.5,2.3-2.5,3.7-4.7,3.5h-47c-2.8,0-3.5-1.5-2.8-4.5l80.5-231.7c0.7-2.5,1.5-5.3,2.5-8.3c1-5.3,1.5-10.7,1.5-16.3
		c-0.3-1.2,0.7-2.5,2-2.8h64.8c2,0,3,0.7,3.2,2L395,441.7C395.8,444.5,395,445.7,392.5,445.7z M477.5,442c0,2.8-1,4-3.2,4h-49
		c-2.5,0-3.7-1.5-3.7-4V249.5c0-2.5,1-3.5,3.2-3.5h49.5c2.3,0,3.2,1.2,3.2,3.5L477.5,442L477.5,442z M472.2,216.3
		c-5.8,6-14.2,9.3-22.8,8.8c-8.3,0.2-16.3-3-22.3-8.8c-5.8-6.3-8.8-14.5-8.5-23c-0.2-8.5,3-16.5,9-22.3c6-5.8,14-8.8,22.3-8.8
		c9.7,0,17.2,3,22.7,8.8c5.5,6,8.5,14,8.3,22.3C481.2,201.7,478.2,210,472.2,216.3z"/>
</g>
</svg>
