<?xml version="1.0" encoding="utf-8"?>
<!-- Generator: Adobe Illustrator 24.3.0, SVG Export Plug-In . SVG Version: 6.00 Build 0)  -->
<svg version="1.1" id="Layer_1" xmlns="http://www.w3.org/2000/svg" xmlns:xlink="http://www.w3.org/1999/xlink" x="0px" y="0px"
	 viewBox="0 0 612 792" enable-background="new 0 0 612 792" xml:space="preserve">
<title>HTML5 Logo</title>
<g>
	<path fill="#330000" d="M273.263,368.768c-2.144-6.647-4.074-13.08-6.218-19.727c-2.144-6.647-4.074-12.865-5.789-19.084
		c-1.715-6.004-3.216-11.579-4.717-16.725h-0.429c-1.93,9.22-4.288,18.44-7.29,27.661c-3.216,10.292-6.433,21.013-9.863,31.735
		c-3.002,10.936-6.218,21.014-9.435,30.019h54.463c-1.287-4.503-3.002-9.863-4.932-15.438
		C277.122,381.419,275.192,375.201,273.263,368.768z"/>
	<path fill="#330000" d="M470.961,145.125H138.605c-50.389,0-91.13,40.74-91.13,91.13v319.49c0,50.389,40.74,91.13,91.13,91.13
		h332.356c50.389,0,91.13-40.74,91.13-91.13v-319.49C562.09,185.865,521.35,145.125,470.961,145.125z M362.677,499.566h-44.814
		c-1.501,0.214-3.002-0.858-3.431-2.359l-17.583-51.033h-79.765l-16.296,50.389c-0.429,1.93-2.144,3.216-4.074,3.002h-40.311
		c-2.359,0-3.002-1.287-2.359-3.86l69.044-198.77c0.643-2.144,1.287-4.503,2.144-7.076c0.858-4.503,1.287-9.22,1.287-13.938
		c-0.215-1.072,0.643-2.144,1.715-2.359h55.536c1.715,0,2.573,0.643,2.787,1.715l78.264,220.856
		C365.465,498.494,364.821,499.566,362.677,499.566z M435.581,496.35c0,2.359-0.858,3.431-2.787,3.431h-42.027
		c-2.144,0-3.216-1.287-3.216-3.431V331.244c0-2.144,0.858-3.002,2.787-3.002h42.456c1.93,0,2.787,1.072,2.787,3.002V496.35z
		 M431.078,302.726c-4.932,5.146-12.222,7.934-19.513,7.505c-7.076,0.214-13.938-2.573-19.084-7.505
		c-4.932-5.361-7.505-12.437-7.29-19.727c-0.214-7.29,2.573-14.152,7.719-19.084c5.146-4.932,12.008-7.505,19.084-7.505
		c8.362,0,14.795,2.573,19.512,7.505c4.717,5.146,7.29,12.008,7.076,19.084C438.797,290.289,436.224,297.365,431.078,302.726z"/>
</g>
</svg>
