<?xml version="1.0" encoding="utf-8"?>
<!-- Generator: Adobe Illustrator 24.3.0, SVG Export Plug-In . SVG Version: 6.00 Build 0)  -->
<svg version="1.1" id="Layer_1" xmlns="http://www.w3.org/2000/svg" xmlns:xlink="http://www.w3.org/1999/xlink" x="0px" y="0px"
	 viewBox="0 0 612 792" enable-background="new 0 0 612 792" xml:space="preserve">
<title>HTML5 Logo</title>
<title>HTML5 Logo</title>
<g>
	<path fill="#49021F" d="M472.254,144.348H139.898c-50.389,0-91.13,40.74-91.13,91.13v319.49c0,50.389,40.74,91.13,91.13,91.13
		h332.356c50.389,0,91.13-40.74,91.13-91.13v-319.49C563.384,185.089,522.643,144.348,472.254,144.348z M235.745,495.573
		c0,2.359-1.072,3.431-3.002,3.431h-42.027c-1.93,0-2.787-1.072-2.787-3.431V275.575c0-1.93,1.072-2.787,3.002-2.787h41.812
		c1.287-0.214,2.573,0.643,2.787,2.144c0.214,0.214,0.214,0.429,0.214,0.643V495.573z M427.225,489.141
		c-11.15,4.717-22.943,8.148-34.951,10.292c-10.721,1.93-21.871,3.002-33.021,3.002h0c-15.867,0.214-31.735-3.002-46.101-9.649
		c-13.509-6.218-24.659-16.511-32.378-29.162c-7.934-13.08-11.793-29.376-11.793-48.888c-0.214-15.867,3.86-31.52,11.793-45.243
		c8.148-13.938,19.941-25.516,34.093-33.236c15.01-8.363,33.021-12.437,54.249-12.437c1.072,0,2.573,0,4.503,0.215
		c1.93,0.214,4.074,0.214,6.647,0.429v-67.758c0-1.501,0.643-2.359,2.144-2.359h43.528c1.072-0.215,1.93,0.643,2.144,1.501v204.559
		c0,3.86,0.215,8.148,0.429,12.865c0.429,4.503,0.643,8.791,0.858,12.437C429.369,487.211,428.726,488.497,427.225,489.141z"/>
	<path fill="#49021F" d="M367.401,363.703c-8.363,0-16.725,1.715-24.23,5.575c-7.29,3.645-13.509,9.006-18.226,15.867
		c-4.717,6.862-7.076,16.082-7.076,27.232c-0.214,7.505,1.072,15.01,3.645,22.086c2.144,5.789,5.361,10.936,9.649,15.224
		c4.074,3.86,9.006,6.861,14.581,8.577c5.789,1.93,11.793,2.787,17.797,2.787c3.216,0,6.218-0.215,9.006-0.429
		c2.787,0.215,5.361-0.214,7.719-1.072v-94.346c-1.93-0.429-3.86-0.858-5.789-1.072C372.118,363.918,369.76,363.703,367.401,363.703
		z"/>
</g>
</svg>
