<?xml version="1.0" encoding="utf-8"?>
<!-- Generator: Adobe Illustrator 26.5.0, SVG Export Plug-In . SVG Version: 6.00 Build 0)  -->
<svg version="1.1" id="Layer_1" xmlns="http://www.w3.org/2000/svg" xmlns:xlink="http://www.w3.org/1999/xlink" x="0px" y="0px"
	 viewBox="0 0 612 792" style="enable-background:new 0 0 612 792;" xml:space="preserve">
<style type="text/css">
	.st0{fill:#F97316;}
</style>
<g>
	<path class="st0" d="M472.3,144.3H139.9c-50.4,0-91.1,40.7-91.1,91.1V555c0,50.4,40.7,91.1,91.1,91.1h332.4
		c50.4,0,91.1-40.7,91.1-91.1V235.5C563.4,185.1,522.6,144.3,472.3,144.3z M235.7,495.6c0,2.4-1.1,3.4-3,3.4h-42
		c-1.9,0-2.8-1.1-2.8-3.4v-220c0-1.9,1.1-2.8,3-2.8h41.8c1.3-0.2,2.6,0.6,2.8,2.1c0.2,0.2,0.2,0.4,0.2,0.6V495.6L235.7,495.6z
		 M427.2,489.1c-11.1,4.7-22.9,8.1-35,10.3c-10.7,1.9-21.9,3-33,3l0,0c-15.9,0.2-31.7-3-46.1-9.6c-13.5-6.2-24.7-16.5-32.4-29.2
		c-7.9-13.1-11.8-29.4-11.8-48.9c-0.2-15.9,3.9-31.5,11.8-45.2c8.1-13.9,19.9-25.5,34.1-33.2c15-8.4,33-12.4,54.2-12.4
		c1.1,0,2.6,0,4.5,0.2s4.1,0.2,6.6,0.4v-67.8c0-1.5,0.6-2.4,2.1-2.4h43.5c1.1-0.2,1.9,0.6,2.1,1.5v204.6c0,3.9,0.2,8.1,0.4,12.9
		c0.4,4.5,0.6,8.8,0.9,12.4C429.4,487.2,428.7,488.5,427.2,489.1z"/>
	<path class="st0" d="M367.4,363.7c-8.4,0-16.7,1.7-24.2,5.6c-7.3,3.6-13.5,9-18.2,15.9s-7.1,16.1-7.1,27.2
		c-0.2,7.5,1.1,15,3.6,22.1c2.1,5.8,5.4,10.9,9.6,15.2c4.1,3.9,9,6.9,14.6,8.6c5.8,1.9,11.8,2.8,17.8,2.8c3.2,0,6.2-0.2,9-0.4
		c2.8,0.2,5.4-0.2,7.7-1.1v-94.3c-1.9-0.4-3.9-0.9-5.8-1.1C372.1,363.9,369.8,363.7,367.4,363.7z"/>
</g>
</svg>
