<?xml version="1.0" encoding="utf-8"?>
<!-- Generator: Adobe Illustrator 26.5.0, SVG Export Plug-In . SVG Version: 6.00 Build 0)  -->
<svg version="1.1" id="Layer_1" xmlns="http://www.w3.org/2000/svg" xmlns:xlink="http://www.w3.org/1999/xlink" x="0px" y="0px"
	 viewBox="0 0 650 650" style="enable-background:new 0 0 650 650;" xml:space="preserve">
<style type="text/css">
	.st0{fill:#F7DF1E;}
</style>
<path class="st0" d="M518.8,24H131.2C72.5,24,25,72.9,25,133.3v383.3C25,577.1,72.5,626,131.2,626h387.5
	c58.7,0,106.2-48.9,106.2-109.3V133.3C625,72.9,577.5,24,518.8,24z M351.5,494c0,58.4-34.2,85-84.2,85c-45.1,0-71.3-23.4-84.6-51.5
	h0l0,0c0,0,0,0,0,0l45.9-27.8c8.9,15.7,16.9,29,36.2,29c18.5,0,30.2-7.2,30.2-35.4V301.4h56.4L351.5,494L351.5,494z M484.8,578.9
	c-52.4,0-86.2-25-102.7-57.6h0l45.9-26.6c12.1,19.7,27.8,34.2,55.6,34.2c23.4,0,38.3-11.7,38.3-27.8c0-19.3-15.3-26.2-41.1-37.5
	l-14.1-6c-40.7-17.3-67.7-39.1-67.7-85c0-42.3,32.2-74.5,82.6-74.5c35.8,0,61.6,12.5,80.1,45.1l-43.9,28.2
	c-9.7-17.3-20.1-24.2-36.2-24.2c-16.5,0-27,10.5-27,24.2c0,16.9,10.5,23.8,34.6,34.2l14.1,6c47.9,20.5,74.9,41.5,74.9,88.6
	C578.3,551.2,538.4,578.9,484.8,578.9z"/>
</svg>
