<?xml version="1.0" encoding="utf-8"?>
<!-- Generator: Adobe Illustrator 24.3.0, SVG Export Plug-In . SVG Version: 6.00 Build 0)  -->
<svg version="1.1" id="Layer_1" xmlns="http://www.w3.org/2000/svg" xmlns:xlink="http://www.w3.org/1999/xlink" x="0px" y="0px"
	 viewBox="0 0 612 792" enable-background="new 0 0 612 792" xml:space="preserve">
<title>HTML5 Logo</title>
<path fill="#F7DF1E" d="M468.045,145.125H144.013c-49.127,0-88.847,40.873-88.847,91.427v320.532
	c0,50.554,39.72,91.427,88.847,91.427h324.032c49.127,0,88.847-40.873,88.847-91.427V236.552
	C556.892,185.998,517.172,145.125,468.045,145.125z M328.202,538.106c0,48.835-28.626,71.063-70.389,71.063
	c-37.716,0-59.61-19.533-70.724-43.105l-0.001,0l-0.001-0.004c0.001,0.001,0.001,0.002,0.002,0.004l38.395-23.236
	c7.407,13.133,14.146,24.245,30.308,24.245c15.493,0,25.261-6.061,25.261-29.634V377.125h47.15V538.106z M439.693,609.172
	c-43.782,0-72.073-20.88-85.88-48.161h-0.001l38.391-22.228c10.106,16.504,23.241,28.628,46.478,28.628
	c19.536,0,31.994-9.768,31.994-23.239c0-16.166-12.797-21.892-34.352-31.319l-11.784-5.055
	c-34.018-14.479-56.584-32.666-56.584-71.06c0-35.363,26.943-62.307,69.043-62.307c29.975,0,51.529,10.441,67.02,37.722
	l-36.71,23.574c-8.083-14.481-16.837-20.205-30.308-20.205c-13.809,0-22.566,8.756-22.566,20.205
	c0,14.146,8.757,19.872,28.962,28.629l11.787,5.051c40.078,17.177,62.644,34.688,62.644,74.091
	C517.827,585.936,484.485,609.172,439.693,609.172z"/>
</svg>
