<?xml version="1.0" encoding="utf-8"?>
<!-- Generator: Adobe Illustrator 27.0.0, SVG Export Plug-In . SVG Version: 6.00 Build 0)  -->
<svg version="1.1" id="Calque_1" xmlns="http://www.w3.org/2000/svg" xmlns:xlink="http://www.w3.org/1999/xlink" x="0px" y="0px"
	 viewBox="0 0 650 650" style="enable-background:new 0 0 650 650;" xml:space="preserve">
<style type="text/css">
	.st0{fill:#FFFFFF;}
	.st1{fill:none;stroke:#FFFFFF;stroke-width:25;stroke-miterlimit:10;}
</style>
<path class="st0" d="M325,25C159.3,25,25,159.3,25,325s134.3,300,300,300s300-134.3,300-300S490.7,25,325,25z M325,595.2
	c-149.2,0-270.2-121-270.2-270.2S175.8,54.8,325,54.8s270.2,121,270.2,270.2S474.2,595.2,325,595.2z"/>
<circle class="st1" cx="325" cy="325" r="190.2"/>
<path class="st0" d="M207.6,478.1l-15.4-19.7c40-31.4,60.3-76.3,60.3-133.4c0-57.2-20.3-102.1-60.3-133.4l15.4-19.7
	c46.4,36.4,69.9,87.9,69.9,153.1C277.5,390.2,254,441.8,207.6,478.1z"/>
<path class="st0" d="M441.5,478.1c-46.4-36.4-69.9-87.9-69.9-153.1c0-35.1,7-66.6,20.7-93.7c11.7-23.2,28.5-43.3,49.8-59.9
	l15.3,19.7c-40.4,31.4-60.8,76.4-60.8,133.9c0,57.2,20.3,102.1,60.3,133.4L441.5,478.1z"/>
</svg>
