<?xml version="1.0" encoding="utf-8"?>
<!-- Generator: Adobe Illustrator 26.5.0, SVG Export Plug-In . SVG Version: 6.00 Build 0)  -->
<svg version="1.1" id="Calque_1" xmlns="http://www.w3.org/2000/svg" xmlns:xlink="http://www.w3.org/1999/xlink" x="0px" y="0px"
	 viewBox="0 0 650 650" style="enable-background:new 0 0 650 650;" xml:space="preserve">
<style type="text/css">
	.st0{fill:#FFFFFF;}
	.st1{fill:none;stroke:#FFFFFF;stroke-width:25;stroke-miterlimit:10;}
</style>
<path class="st0" d="M325,25C159.31,25,25,159.31,25,325s134.31,300,300,300s300-134.31,300-300S490.69,25,325,25z M325,595.23
	C175.76,595.23,54.77,474.24,54.77,325S175.76,54.77,325,54.77S595.23,175.76,595.23,325S474.24,595.23,325,595.23z"/>
<circle class="st1" cx="325" cy="325" r="190.21"/>
<path class="st1" d="M199.9,181.72C235.59,209.7,265,254.22,265,325c0,70.78-29.41,115.3-65.1,143.28"/>
<path class="st1" d="M449.19,468.28c-35.69-27.98-65.1-72.5-65.1-143.28c0-71.15,29.72-115.77,65.67-143.72"/>
</svg>
