<?xml version="1.0" encoding="utf-8"?>
<!-- Generator: Adobe Illustrator 24.3.0, SVG Export Plug-In . SVG Version: 6.00 Build 0)  -->
<svg version="1.1" id="Layer_1" xmlns="http://www.w3.org/2000/svg" xmlns:xlink="http://www.w3.org/1999/xlink" x="0px" y="0px"
	 viewBox="0 0 612 792" enable-background="new 0 0 612 792" xml:space="preserve">
<title>HTML5 Logo</title>
<g>
	<path fill="#00758F" d="M256.489,412.853c-8.063,43.853-18.693,75.755-31.891,95.576c-10.283,15.321-21.549,22.981-33.814,22.981
		c-3.27,0-7.3-0.987-12.09-2.95v-10.573c2.338,0.344,5.08,0.527,8.231,0.527c5.722,0,10.333-1.586,13.846-4.751
		c4.201-3.857,6.305-8.188,6.305-12.992c0-3.282-1.641-10.016-4.905-20.201l-21.726-67.637h19.447l15.588,50.588
		c3.504,11.483,4.964,19.503,4.38,24.074c8.528-22.841,14.487-47.725,17.875-74.627h18.748 M170.641,500.331h-19.792
		c-0.697-33.497-2.625-64.999-5.78-94.518h-0.174l-30.138,94.518H99.683l-29.956-94.518H69.55
		c-2.223,28.342-3.621,59.836-4.204,94.518H47.294c1.165-42.167,4.086-81.68,8.754-118.57H80.58l28.559,87.111h0.177l28.736-87.111
		h23.473c5.141,43.209,8.175,82.739,9.106,118.57"/>
	<path fill="#F29111" d="M520.008,500.317H463.77V381.748h18.924v103.967h37.313v14.587 M378.584,476.582
		c-4.79-7.731-7.187-20.129-7.187-37.236c0-29.857,9.057-44.796,27.157-44.796c9.466,0,16.414,3.572,20.849,10.713
		c4.784,7.731,7.181,20.032,7.181,36.897c0,30.098-9.057,45.157-27.155,45.157c-9.459,0-16.414-3.569-20.845-10.722
		 M449.014,503.174l-21.739-10.75c1.935-1.591,3.773-3.31,5.438-5.298c9.234-10.876,13.846-26.978,13.846-48.301
		c0-39.232-15.363-58.856-46.081-58.856c-15.066,0-26.811,4.975-35.218,14.94c-9.234,10.891-13.846,26.937-13.846,48.134
		c0,20.842,4.086,36.135,12.258,45.848c7.45,8.781,18.713,13.176,33.801,13.176c5.626,0,10.792-0.695,15.481-2.084l28.306,16.519
		l7.717-13.332 M343.176,467.444c0,10.059-3.686,18.311-11.033,24.772c-7.349,6.432-17.232,9.656-29.596,9.656
		c-11.569,0-22.776-3.71-33.64-11.074l5.081-10.186c9.345,4.685,17.803,7.023,25.393,7.023c7.123,0,12.695-1.589,16.731-4.728
		c4.024-3.163,6.435-7.576,6.435-13.171c0-7.04-4.897-13.055-13.882-18.106c-8.294-4.564-24.87-14.093-24.87-14.093
		c-8.978-6.569-13.486-13.622-13.486-25.23c0-9.608,3.359-17.373,10.066-23.277c6.722-5.919,15.398-8.881,26.02-8.881
		c10.982,0,20.963,2.938,29.957,8.797l-4.568,10.176c-7.694-3.27-15.277-4.912-22.762-4.912c-6.068,0-10.75,1.462-14.007,4.401
		c-3.28,2.913-5.307,6.663-5.307,11.236c0,7.023,5.004,13.113,14.242,18.263c8.4,4.567,25.386,14.283,25.386,14.283
		c9.241,6.557,13.845,13.549,13.845,25.068"/>
	<path fill="#F29111" d="M533.48,500.317h3.136v-12.061h4.103v-2.465h-11.504v2.465h4.262L533.48,500.317z M557.343,500.317h2.956
		v-14.53h-4.446l-3.617,9.902l-3.939-9.902h-4.283v14.53h2.796v-11.059h0.159l4.124,11.059h2.131l4.119-11.059V500.317z"/>
	<path fill="#00758F" d="M362.714,182.068c-5.001-0.073-9.361,1.815-11.611,7.35c-3.859,9.318,5.715,18.48,9.008,23.213
		c2.426,3.29,5.572,7.022,7.279,10.743c1.001,2.436,1.291,5.021,2.295,7.597c2.283,6.302,4.423,13.325,7.427,19.207
		c1.567,3.008,3.279,6.162,5.279,8.874c1.155,1.584,3.147,2.292,3.579,4.878c-1.995,2.862-2.15,7.159-3.29,10.75
		c-5.142,16.187-3.146,36.247,4.145,48.139c2.282,3.583,7.717,11.463,15.01,8.451c6.43-2.575,5.001-10.743,6.858-17.903
		c0.427-1.731,0.141-2.866,0.995-4.01v0.288c1.999,4.006,4.007,7.866,5.864,11.892c4.435,7.013,12.145,14.319,18.579,19.187
		c3.42,2.589,6.138,7.022,10.425,8.604v-0.433h-0.281c-0.861-1.285-2.145-1.862-3.289-2.862c-2.572-2.58-5.421-5.735-7.427-8.598
		c-5.998-8.02-11.293-16.908-15.997-26.077c-2.293-4.451-4.29-9.318-6.15-13.753c-0.854-1.711-0.854-4.297-2.286-5.155
		c-2.15,3.147-5.284,5.872-6.854,9.726c-2.716,6.169-3,13.761-4.009,21.64c-0.568,0.15-0.281,0.002-0.568,0.287
		c-4.568-1.145-6.14-5.872-7.858-9.875c-4.287-10.186-5.007-26.521-1.285-38.267c0.995-3.003,5.296-12.456,3.573-15.326
		c-0.863-2.736-3.719-4.297-5.289-6.455c-1.854-2.722-3.864-6.153-5.137-9.171c-3.43-8.02-5.155-16.907-8.858-24.926
		c-1.717-3.731-4.725-7.597-7.146-11.033c-2.72-3.869-5.718-6.59-7.864-11.173c-0.71-1.579-1.711-4.161-0.571-5.876
		c0.281-1.148,0.861-1.578,2.005-1.865c1.848-1.578,7.139,0.424,8.994,1.285c5.291,2.143,9.719,4.157,14.142,7.16
		c2.004,1.434,4.147,4.16,6.715,4.881h3.008c4.571,0.995,9.721,0.277,14.009,1.572c7.569,2.435,14.425,6.016,20.575,9.883
		c18.713,11.892,34.146,28.806,44.57,49c1.719,3.29,2.44,6.3,4.01,9.735c3,7.034,6.722,14.198,9.719,21.068
		c2.999,6.736,5.861,13.607,10.15,19.2c2.136,3.003,10.715,4.58,14.572,6.158c2.853,1.284,7.287,2.432,9.862,4.006
		c4.858,3.005,9.705,6.447,14.283,9.749c2.279,1.719,9.422,5.298,9.853,8.168l0.002,0.002c-11.433-0.287-20.292,0.858-27.719,4.013
		c-2.143,0.86-5.571,0.858-5.864,3.581c1.151,1.144,1.291,3.006,2.296,4.591c1.711,2.865,4.704,6.727,7.429,8.739
		c3,2.293,6,4.577,9.148,6.582c5.569,3.456,11.857,5.452,17.281,8.888c3.155,2.004,6.286,4.581,9.438,6.736
		c1.567,1.145,2.557,3.012,4.566,3.72v-0.437c-1.007-1.285-1.285-3.146-2.281-4.587c-1.425-1.422-2.859-2.72-4.29-4.147
		c-4.147-5.586-9.296-10.453-14.854-14.467c-4.577-3.16-14.587-7.463-16.435-12.745c0,0-0.152-0.152-0.291-0.291
		c3.144-0.291,6.869-1.439,9.868-2.309c4.851-1.285,9.282-0.995,14.283-2.282c2.29-0.578,4.577-1.296,6.872-2.001v-1.3
		c-2.585-2.573-4.433-6.018-7.144-8.449c-7.279-6.302-15.293-12.457-23.58-17.626c-4.437-2.866-10.15-4.72-14.87-7.16
		c-1.707-0.861-4.561-1.285-5.565-2.726c-2.573-3.149-4.009-7.3-5.862-11.031c-4.14-7.873-8.147-16.612-11.717-24.935
		c-2.569-5.582-4.143-11.166-7.286-16.328c-14.727-24.362-30.725-39.112-55.299-53.585c-5.289-3.013-11.576-4.298-18.283-5.876
		c-3.577-0.148-7.144-0.43-10.722-0.57c-2.29-1.008-4.58-3.733-6.579-5.022c-5.092-3.221-15.207-8.795-23.538-8.922L362.714,182.068
		z M397.968,217.484c-2.425,0-4.134,0.295-5.861,0.721v0.287h0.28c1.153,2.286,3.156,3.876,4.573,5.878
		c1.151,2.293,2.152,4.577,3.294,6.872c0.14-0.14,0.276-0.288,0.276-0.288c2.016-1.427,3.016-3.717,3.016-7.16
		c-0.864-1.01-0.999-2.005-1.721-3.013c-0.854-1.429-2.715-2.145-3.86-3.293L397.968,217.484z"/>
</g>
</svg>
