<?xml version="1.0" encoding="utf-8"?>
<!-- Generator: Adobe Illustrator 28.2.0, SVG Export Plug-In . SVG Version: 6.00 Build 0)  -->
<svg version="1.1" id="Layer_1" xmlns="http://www.w3.org/2000/svg" xmlns:xlink="http://www.w3.org/1999/xlink" x="0px" y="0px"
	 viewBox="0 0 600 600" style="enable-background:new 0 0 600 600;" xml:space="preserve">
<style type="text/css">
	.st0{fill:#02B3C6;}
	.st1{fill:#F29111;}
</style>
<rect x="0" width="600" height="600"/>
<g>
	<path class="st0" d="M246.5,363.4c-9.1,49.6-21.2,85.6-36.1,108.1c-11.6,17.3-24.4,26-38.2,26c-3.7,0-8.2-1.2-13.6-3.4v-12
		c2.6,0.4,5.7,0.6,9.3,0.6c6.5,0,11.7-1.8,15.7-5.4c4.7-4.4,7.2-9.3,7.2-14.7c0-3.7-1.8-11.3-5.5-22.8l-24.6-76.5h21.9l17.6,57.2
		c4,13,5.6,22,4.9,27.3c9.7-25.8,16.3-53.9,20.2-84.4L246.5,363.4 M149.5,462.3h-22.3c-0.8-37.9-3-73.5-6.6-106.8h-0.2l-34,106.8
		H69.3L35.4,355.5h-0.3c-2.5,32-4.1,67.7-4.7,106.8H10c1.4-47.7,4.6-92.3,9.9-134.1h27.7l32.3,98.5h0.2l32.5-98.5h26.6
		C144.9,377.1,148.4,421.8,149.5,462.3"/>
	<path class="st1" d="M544.5,462.3h-63.6v-134h21.4v117.5h42.1L544.5,462.3 M384.6,435.5c-5.4-8.7-8.1-22.7-8.1-42.1
		c0-33.7,10.2-50.7,30.7-50.7c10.7,0,18.6,4.1,23.6,12.1c5.4,8.7,8.1,22.6,8.1,41.8c0,34-10.2,51-30.7,51
		C397.4,447.6,389.5,443.6,384.6,435.5 M464.1,465.6l-24.6-12.2c2.2-1.8,4.3-3.8,6.2-6c10.4-12.3,15.7-30.4,15.7-54.6
		c0-44.4-17.4-66.5-52.1-66.5c-17,0-30.4,5.6-39.8,16.9c-10.4,12.3-15.7,30.5-15.7,54.4c0,23.6,4.6,40.9,13.8,51.8
		c8.4,10,21.2,14.9,38.2,14.9c6.4,0,12.2-0.8,17.5-2.3l32,18.7L464.1,465.6 M344.6,425.2c0,11.4-4.2,20.7-12.5,28
		c-8.3,7.2-19.5,10.9-33.4,10.9c-13,0-25.7-4.2-38-12.6l5.7-11.5c10.5,5.3,20.1,7.9,28.7,7.9c8,0,14.3-1.8,18.9-5.3
		c4.5-3.6,7.2-8.6,7.2-14.9c0-7.9-5.5-14.8-15.7-20.5c-9.4-5.1-28.1-16-28.1-16c-10.1-7.4-15.3-15.4-15.3-28.5
		c0-10.8,3.8-19.6,11.4-26.3c7.6-6.7,17.4-10.1,29.4-10.1c12.4,0,23.7,3.3,33.8,10l-5.1,11.5c-8.7-3.7-17.3-5.5-25.7-5.5
		c-6.9,0-12.2,1.6-15.9,4.9c-3.7,3.3-6,7.5-6,12.7c0,7.9,5.7,14.8,16.1,20.7c9.5,5.1,28.7,16.1,28.7,16.1
		C339.3,404.3,344.6,412.1,344.6,425.2"/>
	<path class="st1" d="M559.6,462.3h3.6v-13.6h4.6v-2.8h-13v2.8h4.8V462.3z M586.6,462.3h3.4v-16.4h-5l-4.1,11.2l-4.4-11.2h-4.8v16.4
		h3.2v-12.5h0.2l4.6,12.5h2.4l4.6-12.5L586.6,462.3L586.6,462.3z"/>
	<path class="st0" d="M366.6,102.5c-5.6-0.1-10.5,2-13.1,8.3c-4.4,10.5,6.5,20.9,10.1,26.2c2.7,3.7,6.3,7.9,8.2,12.2
		c1.2,2.7,1.4,5.7,2.6,8.6c2.6,7.2,5,15.1,8.4,21.8c1.7,3.4,3.7,7,6,10.1c1.4,1.8,3.6,2.6,4.1,5.5c-2.2,3.2-2.4,8.1-3.7,12.2
		c-5.8,18.3-3.6,41,4.6,54.4c2.6,4.1,8.7,13,17,9.6c7.2-2.9,5.6-12.2,7.7-20.2c0.5-1.9,0.2-3.3,1.2-4.5v0.3
		c2.2,4.5,4.5,8.9,6.7,13.4c5,7.9,13.7,16.1,21,21.7c3.9,2.9,7,7.9,11.8,9.8v-0.5h-0.3c-1-1.4-2.4-2.1-3.7-3.2
		c-2.9-2.9-6.1-6.5-8.4-9.8c-6.8-9.1-12.8-19.1-18.1-29.5c-2.6-5-4.8-10.5-7-15.6c-1-1.9-1-4.8-2.6-5.8c-2.4,3.6-6,6.7-7.7,11
		c-3.1,7-3.4,15.6-4.5,24.5c-0.7,0.2-0.3,0-0.7,0.3c-5.1-1.3-7-6.7-8.9-11.1c-4.8-11.5-5.7-30-1.5-43.3c1.2-3.4,6-14.1,4.1-17.3
		c-1-3.1-4.2-4.8-6-7.2c-2.1-3.1-4.4-7-5.8-10.3c-3.9-9.1-5.8-19.1-10.1-28.2c-1.9-4.3-5.3-8.6-8.1-12.5c-3.1-4.4-6.5-7.4-8.9-12.7
		c-0.8-1.7-1.9-4.7-0.7-6.7c0.3-1.3,1-1.7,2.2-2.1c2.1-1.7,8,0.5,10.1,1.4c6,2.4,11,4.7,16,8.1c2.2,1.6,4.7,4.7,7.6,5.5h3.4
		c5.1,1.2,11,0.3,15.9,1.7c8.6,2.7,16.3,6.8,23.3,11.2c21.2,13.4,38.6,32.6,50.4,55.4c1.9,3.7,2.8,7.2,4.5,11
		c3.4,7.9,7.6,16,11,23.8c3.4,7.6,6.7,15.4,11.5,21.7c2.4,3.4,12.1,5.2,16.4,7c3.2,1.4,8.2,2.7,11.1,4.5c5.5,3.4,11,7.2,16.1,11
		c2.6,1.9,10.6,6,11.1,9.3l0,0c-13-0.3-22.9,1-31.3,4.5c-2.4,1-6.3,1-6.7,4.1c1.3,1.3,1.4,3.4,2.6,5.2c1.9,3.3,5.3,7.6,8.4,9.9
		c3.4,2.6,6.8,5.2,10.3,7.4c6.3,3.9,13.4,6.2,19.5,10.1c3.6,2.2,7.2,5.2,10.6,7.6c1.7,1.3,2.9,3.4,5.1,4.3v-0.5
		c-1.2-1.5-1.5-3.6-2.6-5.2c-1.6-1.6-3.2-3.1-4.8-4.7c-4.7-6.3-10.5-11.8-16.8-16.3c-5.2-3.6-16.5-8.4-18.6-14.4
		c0,0-0.2-0.2-0.3-0.3c3.6-0.3,7.7-1.6,11.1-2.6c5.5-1.4,10.5-1.2,16.1-2.6c2.6-0.7,5.2-1.4,7.7-2.2v-1.5c-2.9-2.9-5-6.8-8.1-9.6
		c-8.2-7.2-17.3-14.1-26.7-19.9c-5-3.3-11.5-5.3-16.8-8.1c-1.9-1-5.1-1.4-6.3-3.1c-2.9-3.6-4.5-8.2-6.7-12.5
		c-4.6-8.9-9.2-18.8-13.2-28.2c-2.9-6.3-4.6-12.7-8.2-18.5c-16.6-27.6-34.7-44.2-62.5-60.6c-6-3.4-13-4.8-20.7-6.7
		c-4.1-0.2-8.1-0.5-12.1-0.7c-2.6-1.2-5.2-4.3-7.4-5.7C387.5,109,376.1,102.7,366.6,102.5L366.6,102.5z M406.4,142.5
		c-2.7,0-4.6,0.3-6.7,0.8v0.3h0.3c1.3,2.6,3.6,4.3,5.1,6.7c1.3,2.6,2.4,5.2,3.8,7.7c0.2-0.2,0.3-0.3,0.3-0.3
		c2.3-1.6,3.4-4.2,3.4-8.1c-1-1.2-1.2-2.2-1.9-3.4C409.8,144.7,407.8,143.9,406.4,142.5L406.4,142.5z"/>
</g>
</svg>
