<?xml version="1.0" encoding="utf-8"?>
<!-- Generator: Adobe Illustrator 27.2.0, SVG Export Plug-In . SVG Version: 6.00 Build 0)  -->
<svg version="1.1" id="Calque_1" xmlns="http://www.w3.org/2000/svg" xmlns:xlink="http://www.w3.org/1999/xlink" x="0px" y="0px"
	 viewBox="0 0 650 650" style="enable-background:new 0 0 650 650;" xml:space="preserve">
<style type="text/css">
	.st0{fill:#FFFFFF;}
</style>
<path class="st0" d="M325,25C159.3,25,25,159.3,25,325s134.3,300,300,300s300-134.3,300-300S490.7,25,325,25z M325,595.2
	c-149.2,0-270.2-121-270.2-270.2S175.8,54.8,325,54.8s270.2,121,270.2,270.2S474.2,595.2,325,595.2z"/>
<path class="st0" d="M324.7,506c-5.2,0-10.5-2-14.5-6c-8-8-8-21,0-29l146-146l-146-146c-8-8-8-21,0-29c8-8,21-8,29,0l160.5,160.5
	c8,8,8,21,0,29L339.2,500C335.2,504,329.9,506,324.7,506z"/>
<path class="st0" d="M198.3,506c-5.2,0-10.5-2-14.5-6c-8-8-8-21,0-29l146-146l-146-146c-8-8-8-21,0-29s21-8,29,0l160.5,160.5
	c3.8,3.8,6,9.1,6,14.5c0,5.4-2.2,10.7-6,14.5L212.8,500C208.8,504,203.5,506,198.3,506z"/>
</svg>
