<?xml version="1.0" encoding="utf-8"?>
<!-- Generator: Adobe Illustrator 26.5.0, SVG Export Plug-In . SVG Version: 6.00 Build 0)  -->
<svg version="1.1" id="Layer_1" xmlns="http://www.w3.org/2000/svg" xmlns:xlink="http://www.w3.org/1999/xlink" x="0px" y="0px"
	 viewBox="0 0 650 650" style="enable-background:new 0 0 650 650;" xml:space="preserve">
<style type="text/css">
	.st0{fill:#83CD29;}
	.st1{fill:#404137;}
</style>
<g transform="matrix(.217946 0 0 .217946 4.120542 14.085548)">
	<path class="st0" d="M1469.7,1570.7c-8.5,0-16.8,1.8-24.1,5.9l-231.7,133.8c-15,8.6-24.1,25-24.1,42.3v267.1
		c0,17.3,9.1,33.6,24.1,42.3l60.5,34.9c29.4,14.5,40.2,14.3,53.6,14.3c43.5,0,68.4-26.4,68.4-72.3v-263.5c0-3.7-3.2-6.4-6.9-6.4h-29
		c-3.7,0-6.9,2.7-6.9,6.4v263.7c0,20.3-21.2,40.8-55.6,23.6l-62.9-36.9c-2.2-1.2-3.9-3.4-3.9-5.9v-267.1c0-2.5,1.7-5.1,3.9-6.4
		l231.2-133.3c2.2-1.2,4.7-1.2,6.9,0l231.2,133.3c2.2,1.3,3.9,3.8,3.9,6.4v267.1c0,2.5-1.3,5.2-3.4,6.4l-231.7,133.3
		c-2.1,1.2-4.8,1.2-6.9,0l-59.5-35.4c-1.8-1-4.2-1-5.9,0c-16.4,9.3-19.5,10.4-34.9,15.7c-3.8,1.3-9.6,3.4,2,9.8l77.7,45.8
		c7.4,4.3,15.6,6.4,24.1,6.4c8.6,0,16.7-2.1,24.1-6.4l231.7-133.3c15-8.7,24.1-25,24.1-42.3v-267.1c0-17.4-9.1-33.6-24.1-42.3
		l-231.7-133.8c-7.3-4.1-15.6-5.9-24.1-5.9L1469.7,1570.7z M1531.7,1761.6c-66,0-105.3,28.1-105.3,74.8c0,50.6,39,64.6,102.3,70.8
		c75.8,7.4,81.7,18.5,81.7,33.5c0,25.9-20.6,36.9-69.4,36.9c-61.2,0-74.7-15.3-79.2-45.8c-0.5-3.3-3-5.9-6.4-5.9h-30.1
		c-3.8,0.1-6.8,3.1-6.9,6.9c0,39,21.2,85.1,122.5,85.1c73.3,0,115.6-28.7,115.6-79.2c0-49.9-34.2-63.4-105.3-72.8
		c-71.8-9.6-78.7-14.2-78.7-31c0-13.9,5.8-32.5,59-32.5c47.5,0,65.1,10.3,72.3,42.3c0.6,3,3.3,5.5,6.4,5.5h30.1
		c1.8,0,3.6-1.1,4.9-2.5c1.3-1.4,2.1-3,2-4.9C1642.7,1787.5,1605.9,1761.5,1531.7,1761.6L1531.7,1761.6z"/>
	<path class="st1" d="M1948.5,651.1c-2.6,0-5.1,0.7-7.4,2c-4.5,2.7-7.4,7.5-7.4,12.8v376.3c0,3.7-1.7,7-4.9,8.9
		c-3.2,1.9-7.1,1.9-10.3,0l-61.5-35.4c-9.1-5.3-20.4-5.3-29.5,0L1582,1157.4c-9.2,5.3-14.8,15.5-14.8,26.1v283.4
		c0,10.6,5.6,20.3,14.8,25.6l245.5,141.7c9.1,5.3,20.4,5.3,29.5,0l245.5-141.7c9.1-5.3,14.8-15,14.8-25.6V760.3
		c0-10.7-5.9-20.8-15.2-26.1l-146.1-81.7C1953.6,651.3,1951,651.1,1948.5,651.1L1948.5,651.1L1948.5,651.1z M369.3,1004.8
		c-4.7,0.2-9.1,1-13.3,3.4L110.6,1150c-9.2,5.3-14.8,15-14.8,25.6l0.5,380.3c0,5.3,2.7,10.2,7.4,12.8c4.6,2.7,10.2,2.7,14.8,0
		l145.6-83.6c9.2-5.5,15.2-15,15.2-25.6v-177.6c0-10.6,5.6-20.3,14.8-25.6l62-35.9c4.5-2.6,9.6-4,14.8-3.9c5.2,0,10.3,1.3,14.8,3.9
		l62,35.9c9.2,5.3,14.8,15,14.8,25.6v177.6c0,10.6,6.2,20.2,15.2,25.6l145.6,83.6c4.6,2.7,10.2,2.7,14.8,0c4.5-2.6,7.4-7.5,7.4-12.8
		l0.5-380.3c0.1-10.6-5.6-20.3-14.8-25.6l-245.5-141.7c-4.2-2.4-8.6-3.3-13.3-3.4L369.3,1004.8L369.3,1004.8z M2575.2,1008.3
		c-5.2,0-10.3,1.3-14.8,3.9L2315,1153.9c-9.2,5.3-14.8,15-14.8,25.6v283.4c0,10.7,6,20.3,15.2,25.6l243.5,138.8c9,5.1,20,5.5,29,0.5
		l147.6-82.2c4.7-2.6,7.8-7.5,7.9-12.8s-2.8-10.1-7.4-12.8l-247-141.7c-4.6-2.6-7.9-8-7.9-13.3v-88.6c0-5.3,3.3-10.1,7.9-12.8
		l76.7-44.3c4.6-2.6,10.2-2.6,14.8,0l76.8,44.3c4.6,2.6,7.4,7.5,7.4,12.8v69.9c0,5.3,2.8,10.2,7.4,12.8c4.6,2.7,10.2,2.7,14.8,0
		l147.1-85.6c9.1-5.3,14.8-15,14.8-25.6v-68.4c0-10.6-5.6-20.3-14.8-25.6l-244-141.7C2585.5,1009.7,2580.4,1008.3,2575.2,1008.3
		L2575.2,1008.3z M1841.2,1219.8c1.4,0,2.7,0.3,3.9,1l84.1,48.7c2.3,1.3,3.9,3.8,3.9,6.4v97.4c0,2.6-1.6,5.1-3.9,6.4l-84.1,48.7
		c-2.3,1.3-5.1,1.3-7.4,0l-84.1-48.7c-2.3-1.3-3.9-3.8-3.9-6.4v-97.4c0-2.6,1.7-5.1,3.9-6.4l84.1-48.7
		C1838.9,1220.2,1840,1219.8,1841.2,1219.8L1841.2,1219.8L1841.2,1219.8L1841.2,1219.8z"/>
	<path class="st0" d="M1106.8,1006.8c-5.2,0-10.3,1.3-14.8,3.9l-245.5,141.2c-9.2,5.3-14.8,15.5-14.8,26.1v283.4
		c0,10.6,5.6,20.3,14.8,25.6l245.5,141.7c9.1,5.3,20.4,5.3,29.5,0L1367,1487c9.1-5.3,14.8-15,14.8-25.6V1178
		c0-10.6-5.6-20.8-14.8-26.1l-245.5-141.2C1117,1008.1,1111.9,1006.8,1106.8,1006.8L1106.8,1006.8z M2574.8,1259.7c-1,0-2.1,0-3,0.5
		l-47.2,27.6c-1.8,1-2.9,2.9-3,4.9v54.1c0,2,1.2,3.9,3,4.9l47.2,27.1c1.7,1,3.7,1,5.4,0l47.2-27.1c1.8-1,3-2.9,3-4.9v-54.1
		c0-2-1.2-3.9-3-4.9l-47.2-27.6C2576.3,1259.6,2575.7,1259.7,2574.8,1259.7L2574.8,1259.7z"/>
</g>
</svg>
