<?xml version="1.0" encoding="utf-8"?>
<!-- Generator: Adobe Illustrator 24.3.0, SVG Export Plug-In . SVG Version: 6.00 Build 0)  -->
<svg version="1.1" id="Layer_1" xmlns="http://www.w3.org/2000/svg" xmlns:xlink="http://www.w3.org/1999/xlink" x="0px" y="0px"
	 viewBox="0 0 612 792" enable-background="new 0 0 612 792" xml:space="preserve">
<title>HTML5 Logo</title>
<g transform="matrix(.217946 0 0 .217946 4.120542 14.085548)">
	<path fill="#83CD29" d="M1376.496,1873.087c-7.301,0-14.397,1.507-20.678,5.061l-198.733,114.767
		c-12.861,7.407-20.678,21.405-20.678,36.289v229.123c0,14.878,7.817,28.853,20.678,36.283l51.9,29.909
		c25.217,12.432,34.518,12.233,45.995,12.233c37.333,0,58.644-22.654,58.644-62.028V2048.68c0-3.196-2.768-5.483-5.906-5.483
		h-24.894c-3.19,0-5.905,2.346-5.905,5.483v226.161c0,17.452-18.18,35.01-47.678,20.256l-53.953-31.645
		c-1.906-1.038-3.378-2.932-3.378-5.061v-229.123c0-2.17,1.454-4.387,3.378-5.483l198.317-114.356c1.859-1.067,4.07-1.067,5.906,0
		l198.317,114.356c1.888,1.132,3.378,3.243,3.378,5.483v229.123c0,2.187-1.097,4.427-2.956,5.483l-198.734,114.356
		c-1.759,1.015-4.105,1.015-5.905,0l-51.056-30.378c-1.525-0.891-3.595-0.821-5.061,0c-14.092,7.987-16.743,8.914-29.955,13.5
		c-3.255,1.132-8.21,2.897,1.689,8.445l66.667,39.292c6.345,3.671,13.418,5.483,20.678,5.483c7.36,0,14.327-1.759,20.678-5.483
		l198.734-114.356c12.861-7.483,20.678-21.405,20.678-36.283v-229.123c0-14.884-7.817-28.853-20.678-36.289l-198.734-114.767
		c-6.228-3.554-13.371-5.061-20.678-5.061L1376.496,1873.087z M1429.663,2036.81c-56.592,0-90.294,24.085-90.294,64.133
		c0,43.397,33.451,55.384,87.767,60.755c64.978,6.363,70.045,15.904,70.045,28.695c0,22.185-17.687,31.645-59.495,31.645
		c-52.522,0-64.069-13.113-67.933-39.292c-0.457-2.803-2.616-5.061-5.483-5.061h-25.803c-3.231,0.072-5.834,2.674-5.905,5.906
		c0,33.445,18.191,72.994,105.067,72.994c62.884,0,99.156-24.63,99.156-67.933c0-42.81-29.299-54.381-90.294-62.456
		c-61.576-8.21-67.511-12.139-67.511-26.583c0-11.917,4.985-27.856,50.633-27.856c40.775,0,55.847,8.797,62.028,36.289
		c0.54,2.58,2.815,4.692,5.483,4.692h25.803c1.583,0,3.12-0.974,4.222-2.111c1.079-1.214,1.841-2.58,1.689-4.222
		c-3.988-47.349-35.562-69.622-99.156-69.622L1429.663,2036.81z"/>
	<path fill="#404137" d="M1787.134,1084.399c-2.22,0.004-4.401,0.586-6.328,1.689c-3.9,2.282-6.306,6.454-6.328,10.972v322.789
		c0,3.167-1.478,6.005-4.222,7.594c-2.738,1.596-6.123,1.596-8.861,0l-52.745-30.378c-7.831-4.531-17.486-4.531-25.317,0
		l-210.544,121.517c-7.87,4.539-12.667,13.277-12.667,22.361v243.039c-0.013,9.053,4.817,17.421,12.661,21.939l210.55,121.522
		c7.828,4.543,17.489,4.543,25.317,0l210.55-121.522c7.845-4.518,12.674-12.886,12.661-21.939v-605.912
		c0-9.219-5.032-17.869-13.078-22.361l-125.317-70.05c-1.97-1.097-4.152-1.29-6.333-1.267V1084.399z M432.688,1387.777
		c-4.017,0.164-7.788,0.862-11.395,2.956L210.749,1512.25c-7.851,4.51-12.682,12.884-12.655,21.939l0.428,326.173
		c0,4.539,2.346,8.75,6.334,10.966c3.912,2.346,8.761,2.346,12.655,0l124.895-71.734c7.917-4.692,13.078-12.878,13.078-21.933
		v-152.328c0-9.09,4.78-17.417,12.667-21.933l53.167-30.8c3.842-2.234,8.211-3.4,12.655-3.378c4.447-0.026,8.819,1.14,12.661,3.378
		l53.143,30.782c7.876,4.516,12.655,12.855,12.655,21.933v152.322c0,9.066,5.278,17.3,13.078,21.933l124.895,71.734
		c3.929,2.346,8.767,2.346,12.655,0c3.87-2.229,6.334-6.433,6.334-10.966l0.422-326.161c0.051-9.061-4.786-17.446-12.655-21.939
		l-210.544-121.511c-3.56-2.088-7.348-2.792-11.395-2.956H432.7L432.688,1387.777z M2324.691,1390.733
		c-4.445-0.012-8.813,1.153-12.661,3.378l-210.55,121.523c-7.858,4.545-12.667,12.855-12.667,21.933v243.039
		c0,9.137,5.149,17.417,13.078,21.933l208.861,119.048c7.712,4.398,17.124,4.733,24.895,0.411l126.583-70.467
		c4.017-2.229,6.732-6.392,6.744-10.966s-2.364-8.691-6.333-10.966l-211.823-121.523c-3.964-2.264-6.744-6.844-6.744-11.395v-75.997
		c0-4.539,2.815-8.703,6.744-10.967l65.822-37.978c3.917-2.264,8.726-2.264,12.667,0l65.852,37.978
		c3.925,2.255,6.34,6.44,6.328,10.967v59.917c-0.012,4.526,2.403,8.712,6.328,10.966c3.947,2.275,8.726,2.287,12.667,0
		l126.155-73.405c7.829-4.551,12.667-12.884,12.667-21.933v-58.644c0.001-9.049-4.826-17.412-12.661-21.939l-209.283-121.523
		c-3.847-2.227-8.216-3.393-12.661-3.378L2324.691,1390.733z M1695.145,1572.178c1.178-0.005,2.339,0.283,3.378,0.839l72.15,41.772
		c1.959,1.132,3.378,3.225,3.378,5.483v83.544c0,2.27-1.407,4.357-3.378,5.483l-72.15,41.772c-1.964,1.114-4.363,1.114-6.334,0
		l-72.15-41.772c-1.965-1.132-3.378-3.225-3.378-5.483v-83.556c0-2.264,1.419-4.34,3.378-5.483l72.15-41.766
		c0.985-0.569,1.853-0.839,2.956-0.839v-0.006V1572.178z"/>
	<path fill="#83CD29" d="M1065.189,1389.461c-4.446-0.008-8.815,1.157-12.667,3.378l-210.55,121.1
		c-7.87,4.539-12.655,13.283-12.655,22.361v243.039c-0.024,9.052,4.806,17.423,12.655,21.933l210.55,121.523
		c7.827,4.543,17.489,4.543,25.317,0l210.55-121.523c7.845-4.518,12.674-12.886,12.661-21.939v-243.039
		c0-9.09-4.785-17.828-12.667-22.361l-210.55-121.1c-3.848-2.231-8.22-3.397-12.667-3.378L1065.189,1389.461z M2324.28,1606.344
		c-0.839,0-1.771,0-2.533,0.41l-40.506,23.634c-1.536,0.853-2.501,2.46-2.533,4.217v46.417c0,1.748,1.014,3.343,2.533,4.222
		l40.506,23.205c1.419,0.879,3.214,0.879,4.633,0l40.506-23.205c1.501-0.862,2.533-2.475,2.533-4.222v-46.417
		c0-1.748-1.026-3.343-2.533-4.222l-40.506-23.634c-0.75-0.446-1.267-0.41-2.111-0.41L2324.28,1606.344z"/>
</g>
</svg>
