<?xml version="1.0" encoding="utf-8"?>
<!-- Generator: Adobe Illustrator 28.2.0, SVG Export Plug-In . SVG Version: 6.00 Build 0)  -->
<svg version="1.1" id="Layer_1" xmlns="http://www.w3.org/2000/svg" xmlns:xlink="http://www.w3.org/1999/xlink" x="0px" y="0px"
	 viewBox="0 0 600 600" style="enable-background:new 0 0 600 600;" xml:space="preserve">
<style type="text/css">
	.st0{fill:#83CD29;}
	.st1{fill:#404137;}
</style>
<rect width="600" height="600"/>
<g transform="matrix(.217946 0 0 .217946 4.120542 14.085548)">
	<path class="st0" d="M1355.1,1451.2c-8.2,0-16.2,1.7-23.3,5.7l-224,129.3c-14.5,8.3-23.3,24.2-23.3,40.9v258.2
		c0,16.7,8.8,32.5,23.3,40.9l58.5,33.7c28.4,14,38.9,13.8,51.8,13.8c42,0,66.1-25.5,66.1-69.9v-254.7c0-3.6-3.1-6.2-6.7-6.2h-28
		c-3.6,0-6.7,2.6-6.7,6.2v254.9c0,19.6-20.5,39.4-53.7,22.8l-60.8-35.7c-2.1-1.2-3.8-3.3-3.8-5.7v-258.2c0-2.4,1.6-4.9,3.8-6.2
		l223.5-128.9c2.1-1.2,4.5-1.2,6.7,0l223.5,128.9c2.1,1.3,3.8,3.7,3.8,6.2v258.2c0,2.4-1.3,5-3.3,6.2l-224,128.9
		c-2,1.2-4.6,1.2-6.7,0l-57.5-34.2c-1.7-1-4.1-1-5.7,0c-15.9,9-18.8,10.1-33.7,15.2c-3.7,1.3-9.3,3.3,1.9,9.5l75.1,44.3
		c7.2,4.2,15.1,6.2,23.3,6.2c8.3,0,16.1-2,23.3-6.2l224-128.9c14.5-8.4,23.3-24.2,23.3-40.9v-258.2c0-16.8-8.8-32.5-23.3-40.9
		l-224-129.3c-7.1-4-15.1-5.7-23.3-5.7L1355.1,1451.2z M1415,1635.7c-63.8,0-101.8,27.2-101.8,72.3c0,48.9,37.7,62.4,98.9,68.4
		c73.3,7.2,79,17.9,79,32.4c0,25-19.9,35.7-67.1,35.7c-59.2,0-72.2-14.8-76.6-44.3c-0.5-3.2-2.9-5.7-6.2-5.7h-29.1
		c-3.7,0.1-6.6,3-6.7,6.7c0,37.7,20.5,82.3,118.4,82.3c70.9,0,111.7-27.7,111.7-76.6c0-48.2-33.1-61.3-101.8-70.4
		c-69.4-9.3-76.1-13.7-76.1-30c0-13.4,5.6-31.4,57-31.4c45.9,0,62.9,10,69.9,40.9c0.6,2.9,3.2,5.3,6.2,5.3h29.1
		c1.7,0,3.5-1.1,4.7-2.4c1.3-1.4,2-2.9,1.9-4.7C1522.3,1660.8,1486.7,1635.6,1415,1635.7L1415,1635.7z"/>
	<path class="st1" d="M1817.9,562.3c-2.5,0-4.9,0.7-7.2,1.9c-4.3,2.6-7.2,7.2-7.2,12.4v363.8c0,3.6-1.6,6.8-4.7,8.6
		c-3.1,1.8-6.9,1.8-10,0l-59.4-34.2c-8.8-5.1-19.7-5.1-28.5,0l-237.3,137c-8.9,5.1-14.3,15-14.3,25.2v274c0,10.2,5.4,19.6,14.3,24.7
		l237.3,137c8.8,5.1,19.7,5.1,28.5,0l237.3-137c8.8-5.1,14.3-14.5,14.3-24.7v-683c0-10.3-5.7-20.1-14.7-25.2l-141.2-79
		C1822.8,562.5,1820.3,562.3,1817.9,562.3L1817.9,562.3L1817.9,562.3z M291.4,904.2c-4.5,0.2-8.8,1-12.9,3.3L41.3,1044.5
		c-8.9,5.1-14.3,14.5-14.3,24.7l0.5,367.6c0,5.1,2.6,9.9,7.2,12.4c4.4,2.6,9.9,2.6,14.3,0l140.7-80.8c8.9-5.3,14.7-14.5,14.7-24.7
		V1172c0-10.2,5.4-19.6,14.3-24.7l59.9-34.7c4.3-2.5,9.3-3.9,14.3-3.8c5,0,10,1.3,14.3,3.8l59.9,34.7c8.9,5.1,14.3,14.5,14.3,24.7
		v171.7c0,10.2,6,19.5,14.7,24.7l140.7,80.8c4.4,2.6,9.9,2.6,14.3,0c4.3-2.5,7.2-7.2,7.2-12.4l0.5-367.6
		c0.1-10.2-5.4-19.6-14.3-24.7l-237.3-137c-4.1-2.3-8.3-3.2-12.9-3.3L291.4,904.2L291.4,904.2z M2423.7,907.6c-5,0-10,1.3-14.3,3.8
		l-237.2,137c-8.9,5.1-14.3,14.5-14.3,24.7v274c0,10.3,5.8,19.6,14.7,24.7l235.4,134.2c8.7,4.9,19.3,5.3,28,0.5l142.7-79.5
		c4.5-2.5,7.5-7.2,7.6-12.4c0.1-5.1-2.7-9.8-7.2-12.4l-238.8-137c-4.4-2.5-7.6-7.7-7.6-12.9v-85.6c0-5.1,3.2-9.8,7.6-12.4l74.1-42.8
		c4.4-2.5,9.9-2.5,14.3,0l74.2,42.8c4.4,2.5,7.2,7.2,7.2,12.4v67.6c0,5.1,2.7,9.9,7.2,12.4c4.4,2.6,9.9,2.6,14.3,0l142.2-82.7
		c8.8-5.1,14.3-14.5,14.3-24.7V1073c0-10.2-5.4-19.6-14.3-24.7l-235.9-137C2433.7,908.9,2428.7,907.6,2423.7,907.6L2423.7,907.6z
		 M1714.2,1112c1.4,0,2.6,0.3,3.8,1l81.3,47.1c2.2,1.3,3.8,3.7,3.8,6.2v94.2c0,2.5-1.5,4.9-3.8,6.2l-81.3,47.1
		c-2.2,1.3-4.9,1.3-7.2,0l-81.3-47.1c-2.2-1.3-3.8-3.7-3.8-6.2v-94.2c0-2.5,1.6-4.9,3.8-6.2l81.3-47.1
		C1712,1112.4,1713,1112,1714.2,1112L1714.2,1112L1714.2,1112L1714.2,1112z"/>
	<path class="st0" d="M1004.3,906.1c-5,0-10,1.3-14.3,3.8l-237.3,136.5c-8.9,5.1-14.3,15-14.3,25.2v274c0,10.2,5.4,19.6,14.3,24.7
		l237.3,137c8.8,5.1,19.7,5.1,28.5,0l237.3-137c8.8-5.1,14.3-14.5,14.3-24.7v-274c0-10.2-5.4-20.1-14.3-25.2l-237.3-136.5
		C1014.1,907.4,1009.2,906.1,1004.3,906.1L1004.3,906.1z M2423.3,1150.6c-1,0-2,0-2.9,0.5l-45.6,26.7c-1.7,1-2.8,2.8-2.9,4.7v52.3
		c0,1.9,1.2,3.8,2.9,4.7l45.6,26.2c1.6,1,3.6,1,5.2,0l45.6-26.2c1.7-1,2.9-2.8,2.9-4.7v-52.3c0-1.9-1.2-3.8-2.9-4.7l-45.6-26.7
		C2424.8,1150.5,2424.2,1150.6,2423.3,1150.6L2423.3,1150.6z"/>
</g>
</svg>
