<?xml version="1.0" encoding="utf-8"?>
<!-- Generator: Adobe Illustrator 26.5.0, SVG Export Plug-In . SVG Version: 6.00 Build 0)  -->
<svg version="1.1" id="Layer_1" xmlns="http://www.w3.org/2000/svg" xmlns:xlink="http://www.w3.org/1999/xlink" x="0px" y="0px"
	 viewBox="0 0 612 792" style="enable-background:new 0 0 612 792;" xml:space="preserve">
<style type="text/css">
	.st0{fill:#F97316;}
</style>
<g transform="matrix(.217946 0 0 .217946 4.120542 14.085548)">
	<path class="st0" d="M1376.5,1873.1c-7.3,0-14.4,1.5-20.7,5.1l-198.7,114.8c-12.9,7.4-20.7,21.4-20.7,36.3v229.1
		c0,14.9,7.8,28.9,20.7,36.3l51.9,29.9c25.2,12.4,34.5,12.2,46,12.2c37.3,0,58.6-22.7,58.6-62v-226c0-3.2-2.8-5.5-5.9-5.5h-24.9
		c-3.2,0-5.9,2.3-5.9,5.5v226.2c0,17.5-18.2,35-47.7,20.3l-54-31.6c-1.9-1-3.4-2.9-3.4-5.1v-229.1c0-2.2,1.5-4.4,3.4-5.5
		l198.3-114.4c1.9-1.1,4.1-1.1,5.9,0l198.3,114.4c1.9,1.1,3.4,3.2,3.4,5.5v229.1c0,2.2-1.1,4.4-3,5.5l-198.7,114.4
		c-1.8,1-4.1,1-5.9,0l-51.1-30.4c-1.5-0.9-3.6-0.8-5.1,0c-14.1,8-16.7,8.9-30,13.5c-3.3,1.1-8.2,2.9,1.7,8.4l66.7,39.3
		c6.3,3.7,13.4,5.5,20.7,5.5c7.4,0,14.3-1.8,20.7-5.5l198.7-114.4c12.9-7.5,20.7-21.4,20.7-36.3v-229.1c0-14.9-7.8-28.9-20.7-36.3
		l-198.7-114.8c-6.2-3.6-13.4-5.1-20.7-5.1L1376.5,1873.1z M1429.7,2036.8c-56.6,0-90.3,24.1-90.3,64.1c0,43.4,33.5,55.4,87.8,60.8
		c65,6.4,70,15.9,70,28.7c0,22.2-17.7,31.6-59.5,31.6c-52.5,0-64.1-13.1-67.9-39.3c-0.5-2.8-2.6-5.1-5.5-5.1h-25.8
		c-3.2,0.1-5.8,2.7-5.9,5.9c0,33.4,18.2,73,105.1,73c62.9,0,99.2-24.6,99.2-67.9c0-42.8-29.3-54.4-90.3-62.5
		c-61.6-8.2-67.5-12.1-67.5-26.6c0-11.9,5-27.9,50.6-27.9c40.8,0,55.8,8.8,62,36.3c0.5,2.6,2.8,4.7,5.5,4.7h25.8
		c1.6,0,3.1-1,4.2-2.1c1.1-1.2,1.8-2.6,1.7-4.2C1524.9,2059.1,1493.3,2036.8,1429.7,2036.8L1429.7,2036.8z"/>
	<path class="st0" d="M1787.1,1084.4c-2.2,0-4.4,0.6-6.3,1.7c-3.9,2.3-6.3,6.5-6.3,11v322.8c0,3.2-1.5,6-4.2,7.6
		c-2.7,1.6-6.1,1.6-8.9,0l-52.7-30.4c-7.8-4.5-17.5-4.5-25.3,0l-210.5,121.5c-7.9,4.5-12.7,13.3-12.7,22.4v243
		c0,9.1,4.8,17.4,12.7,21.9l210.6,121.5c7.8,4.5,17.5,4.5,25.3,0l210.5-121.5c7.8-4.5,12.7-12.9,12.7-21.9v-605.9
		c0-9.2-5-17.9-13.1-22.4l-125.3-70.1C1791.5,1084.6,1789.3,1084.4,1787.1,1084.4L1787.1,1084.4L1787.1,1084.4z M432.7,1387.8
		c-4,0.2-7.8,0.9-11.4,3l-210.5,121.5c-7.9,4.5-12.7,12.9-12.7,21.9l0.4,326.2c0,4.5,2.3,8.8,6.3,11c3.9,2.3,8.8,2.3,12.7,0
		l124.9-71.7c7.9-4.7,13.1-12.9,13.1-21.9v-152.3c0-9.1,4.8-17.4,12.7-21.9l53.2-30.8c3.8-2.2,8.2-3.4,12.7-3.4
		c4.4,0,8.8,1.1,12.7,3.4l53.1,30.8c7.9,4.5,12.7,12.9,12.7,21.9v152.3c0,9.1,5.3,17.3,13.1,21.9l124.9,71.7c3.9,2.3,8.8,2.3,12.7,0
		c3.9-2.2,6.3-6.4,6.3-11l0.4-326.2c0.1-9.1-4.8-17.4-12.7-21.9l-210.5-121.5c-3.6-2.1-7.3-2.8-11.4-3L432.7,1387.8L432.7,1387.8z
		 M2324.7,1390.7c-4.4,0-8.8,1.2-12.7,3.4l-210.6,121.5c-7.9,4.5-12.7,12.9-12.7,21.9v243c0,9.1,5.1,17.4,13.1,21.9l208.9,119
		c7.7,4.4,17.1,4.7,24.9,0.4l126.6-70.5c4-2.2,6.7-6.4,6.7-11s-2.4-8.7-6.3-11l-211.8-121.5c-4-2.3-6.7-6.8-6.7-11.4v-76
		c0-4.5,2.8-8.7,6.7-11l65.8-38c3.9-2.3,8.7-2.3,12.7,0l65.9,38c3.9,2.3,6.3,6.4,6.3,11v59.9c0,4.5,2.4,8.7,6.3,11
		c3.9,2.3,8.7,2.3,12.7,0l126.2-73.4c7.8-4.6,12.7-12.9,12.7-21.9v-58.6c0-9-4.8-17.4-12.7-21.9l-209.3-121.5
		C2333.5,1391.9,2329.1,1390.7,2324.7,1390.7L2324.7,1390.7z M1695.1,1572.2c1.2,0,2.3,0.3,3.4,0.8l72.2,41.8c2,1.1,3.4,3.2,3.4,5.5
		v83.5c0,2.3-1.4,4.4-3.4,5.5l-72.2,41.8c-2,1.1-4.4,1.1-6.3,0l-72.2-41.8c-2-1.1-3.4-3.2-3.4-5.5v-83.6c0-2.3,1.4-4.3,3.4-5.5
		l72.2-41.8C1693.2,1572.4,1694,1572.2,1695.1,1572.2L1695.1,1572.2L1695.1,1572.2L1695.1,1572.2z"/>
	<path class="st0" d="M1065.2,1389.5c-4.4,0-8.8,1.2-12.7,3.4L842,1513.9c-7.9,4.5-12.7,13.3-12.7,22.4v243
		c0,9.1,4.8,17.4,12.7,21.9l210.5,121.5c7.8,4.5,17.5,4.5,25.3,0l210.6-121.5c7.8-4.5,12.7-12.9,12.7-21.9v-243
		c0-9.1-4.8-17.8-12.7-22.4l-210.6-121.1C1074,1390.6,1069.6,1389.4,1065.2,1389.5L1065.2,1389.5z M2324.3,1606.3
		c-0.8,0-1.8,0-2.5,0.4l-40.5,23.6c-1.5,0.9-2.5,2.5-2.5,4.2v46.4c0,1.7,1,3.3,2.5,4.2l40.5,23.2c1.4,0.9,3.2,0.9,4.6,0l40.5-23.2
		c1.5-0.9,2.5-2.5,2.5-4.2v-46.4c0-1.7-1-3.3-2.5-4.2l-40.5-23.6C2325.6,1606.3,2325.1,1606.3,2324.3,1606.3L2324.3,1606.3z"/>
</g>
</svg>
