<?xml version="1.0" encoding="utf-8"?>
<!-- Generator: Adobe Illustrator 26.5.0, SVG Export Plug-In . SVG Version: 6.00 Build 0)  -->
<svg version="1.1" id="Layer_1" xmlns="http://www.w3.org/2000/svg" xmlns:xlink="http://www.w3.org/1999/xlink" x="0px" y="0px"
	 viewBox="0 0 650 650" style="enable-background:new 0 0 650 650;" xml:space="preserve">
<style type="text/css">
	.st0{fill:#001E36;}
</style>
<g>
	<path class="st0" d="M271.2,235.5c-9.3-3.7-19.3-5.3-29.5-5c-6.5,0-12.3,0-17,0.2c-5-0.2-8.5,0-10.2,0.2l0,0v84
		c3.5,0.2,6.7,0.5,9.7,0.5h13.3c9.7,0,19.5-1.5,28.8-4.5c8-2.3,15-7,20.5-13.2c5.3-6.3,7.7-14.8,7.7-25.8c0.2-7.7-1.8-15.5-5.8-22.3
		C284.5,243.3,278.5,238.2,271.2,235.5z"/>
	<path class="st0" d="M518.7,32.5H131.3C72.5,32.5,25,80,25,138.8v372.5c0,58.7,47.5,106.3,106.3,106.3h387.5
		c58.7,0,106.3-47.5,106.3-106.3V138.8C625,80,577.5,32.5,518.7,32.5z M334,323.8c-10,14-24,24.5-40.2,30.5
		c-17,6.3-35.7,8.5-56.2,8.5c-6,0-10,0-12.5-0.2c-2.5-0.3-6-0.3-10.7-0.3v80.3c0.3,1.8-1,3.3-2.8,3.5H163c-2,0-3-1-3-3.2l0,0V185.5
		c0-1.8,0.7-2.8,2.5-2.8c4.2,0,8.3,0,14-0.2c6-0.2,12.3-0.2,19-0.5c6.7-0.2,14-0.2,21.8-0.5c7.7-0.2,15.3-0.2,22.7-0.2
		c20.5,0,37.5,2.5,51.5,7.7c12.5,4.2,24,11.2,33.5,20.5c8,8,14.2,17.7,18.3,28.5c3.7,10.5,5.8,21.3,5.8,32.5
		C349,292,344,309.7,334,323.8z M511.2,421c-7,10-16.7,17.7-28,22.3c-12.3,5.3-27.2,8-45.3,8c-11.5,0-22.7-1-34-3.3
		c-8.8-1.5-17.5-4.2-25.5-8c-1.8-1-3-2.8-2.8-4.7v-43.5c0-0.7,0.3-1.8,1-2.3c0.7-0.5,1.5-0.2,2.3,0.3c9.8,5.8,20,9.7,31,12.3
		c9.5,2.5,19.5,3.7,29.5,3.7c9.5,0,16.3-1.2,20.7-3.5c4-1.8,6.7-6,6.7-10.5c0-3.5-2-6.7-6-10c-4-3.2-12.3-7-24.5-11.8
		c-12.8-4.5-24.5-10.5-35.5-18c-7.7-5.5-14.2-12.8-19-21.3c-4-8-6-16.7-5.8-25.5c0-10.7,3-21,8.5-30.2c6.3-10,15.5-18,26.2-23
		c11.8-6,26.5-8.8,44.3-8.8c10.2,0,20.7,0.7,31,2.3c7.5,1,14.8,3,21.5,5.8c1,0.3,2,1.2,2.5,2.3c0.3,1,0.5,2,0.5,3v40.8
		c0,1-0.5,2-1.2,2.5c-2.3,0.5-3.5,0.5-4.5,0l0,0c-7.5-4-15.5-6.7-24-8.5c-9.3-2-18.5-3.2-28-3.2c-5-0.2-10.2,0.5-15,1.8
		c-3.2,0.7-6,2.5-7.7,5c-1.2,2-2,4.5-2,6.7c0,2.3,1,4.5,2.5,6.5c2.3,2.8,5.3,5,8.5,6.7c5.8,3,11.8,5.8,17.7,8.3
		c13.5,4.5,26.5,10.7,38.5,18.3c8.3,5.3,15,12.3,19.7,20.7c4,8,6,16.7,5.8,25.8C521.2,399.5,517.7,411.2,511.2,421z"/>
</g>
</svg>
