<?xml version="1.0" encoding="utf-8"?>
<!-- Generator: Adobe Illustrator 24.3.0, SVG Export Plug-In . SVG Version: 6.00 Build 0)  -->
<svg version="1.1" id="Layer_1" xmlns="http://www.w3.org/2000/svg" xmlns:xlink="http://www.w3.org/1999/xlink" x="0px" y="0px"
	 viewBox="0 0 612 792" enable-background="new 0 0 612 792" xml:space="preserve">
<title>HTML5 Logo</title>
<title>HTML5 Logo</title>
<g>
	<path fill="#001E36" d="M259.899,319.237c-7.934-3.216-16.511-4.503-25.302-4.288c-5.575,0-10.507,0-14.581,0.214
		c-4.288-0.214-7.29,0-8.791,0.214v0v72.046c3.002,0.214,5.789,0.429,8.362,0.429h11.365c8.362,0,16.725-1.287,24.659-3.86
		c6.861-1.93,12.865-6.004,17.583-11.364c4.503-5.361,6.647-12.651,6.647-22.086c0.214-6.647-1.501-13.294-4.932-19.084
		C271.264,325.884,266.117,321.595,259.899,319.237z"/>
	<path fill="#001E36" d="M472.178,145.125H139.822c-50.389,0-91.13,40.74-91.13,91.13v319.49c0,50.389,40.74,91.13,91.13,91.13
		h332.356c50.389,0,91.13-40.74,91.13-91.13v-319.49C563.308,185.865,522.567,145.125,472.178,145.125z M313.719,394.928
		c-8.577,12.008-20.585,21.013-34.522,26.16c-14.581,5.361-30.662,7.29-48.245,7.29c-5.146,0-8.577,0-10.721-0.214
		c-2.144-0.215-5.146-0.215-9.22-0.215v68.83c0.215,1.501-0.858,2.788-2.359,3.002h-41.598c-1.715,0-2.573-0.858-2.573-2.787h0
		V276.352c0-1.501,0.643-2.359,2.144-2.359c3.645,0,7.076,0,12.008-0.214c5.146-0.214,10.507-0.214,16.296-0.429
		c5.789-0.214,12.008-0.214,18.655-0.429c6.647-0.214,13.08-0.214,19.512-0.214c17.583,0,32.163,2.144,44.171,6.647
		c10.721,3.645,20.585,9.649,28.733,17.583c6.862,6.862,12.222,15.224,15.653,24.444c3.216,9.006,4.932,18.226,4.932,27.875
		C326.585,367.696,322.296,382.92,313.719,394.928z M465.745,478.338c-6.004,8.577-14.366,15.224-24.015,19.084
		c-10.507,4.503-23.372,6.862-38.811,6.862c-9.863,0-19.512-0.858-29.161-2.788c-7.505-1.286-15.01-3.645-21.871-6.861
		c-1.501-0.858-2.573-2.359-2.359-4.074v-37.31c0-0.643,0.215-1.501,0.858-1.93c0.643-0.429,1.286-0.214,1.93,0.215
		c8.363,4.932,17.154,8.362,26.589,10.507c8.148,2.144,16.725,3.216,25.302,3.216c8.148,0,13.938-1.072,17.797-3.002
		c3.431-1.501,5.789-5.146,5.789-9.006c0-3.002-1.715-5.789-5.146-8.577c-3.431-2.787-10.507-6.004-21.014-10.078
		c-10.936-3.86-21.013-9.006-30.448-15.438c-6.647-4.717-12.222-10.936-16.296-18.226c-3.431-6.861-5.146-14.366-4.932-21.871
		c0-9.22,2.573-18.012,7.29-25.945c5.361-8.577,13.294-15.439,22.514-19.727c10.078-5.146,22.729-7.505,37.953-7.505
		c8.791,0,17.797,0.643,26.589,1.93c6.433,0.858,12.651,2.573,18.44,4.932c0.858,0.215,1.715,1.072,2.144,1.93
		c0.215,0.858,0.429,1.715,0.429,2.573v34.951c0,0.858-0.429,1.715-1.072,2.144c-1.93,0.429-3.002,0.429-3.86,0l0,0
		c-6.433-3.431-13.294-5.789-20.585-7.29c-7.934-1.715-15.867-2.787-24.015-2.787c-4.288-0.214-8.791,0.429-12.865,1.501
		c-2.787,0.643-5.146,2.144-6.647,4.288c-1.072,1.715-1.715,3.86-1.715,5.789c0,1.93,0.858,3.86,2.144,5.575
		c1.93,2.359,4.503,4.288,7.29,5.789c4.932,2.573,10.078,4.932,15.224,7.076c11.579,3.86,22.729,9.22,33.021,15.653
		c7.076,4.503,12.865,10.507,16.939,17.797c3.431,6.862,5.146,14.366,4.932,22.086C474.322,459.898,471.32,469.976,465.745,478.338z
		"/>
</g>
</svg>
