<?xml version="1.0" encoding="utf-8"?>
<!-- Generator: Adobe Illustrator 24.3.0, SVG Export Plug-In . SVG Version: 6.00 Build 0)  -->
<svg version="1.1" id="Layer_1" xmlns="http://www.w3.org/2000/svg" xmlns:xlink="http://www.w3.org/1999/xlink" x="0px" y="0px"
	 viewBox="0 0 612 792" style="enable-background:new 0 0 612 792;" xml:space="preserve">
<style type="text/css">
	.st0{fill:#CCCCCC;}
	.st1{fill:none;stroke:#CCCCCC;stroke-width:2.8479;stroke-linecap:round;stroke-linejoin:round;stroke-miterlimit:10;}
	.st2{fill:none;stroke:#CCCCCC;stroke-width:6.8825;stroke-linecap:round;stroke-linejoin:round;stroke-miterlimit:10;}
	.st3{fill:#6C78AF;}
	.st4{fill:#F89C0E;}
</style>
<g>
	<path class="st0" d="M429.9,195.9l-0.3-0.5c-0.1-0.1-0.3-0.3-0.5-0.3l-0.5,0.1c-0.3,0.3-0.4,0.4-0.4,0.7l-11.4,207.2l1.8-0.3
		l11-201.6l13.2,21.7h-0.1c10,29.4,14.1,60.6,12.5,93.7l0.8,1.2l13.1,23.2l0.8,0.8c20.1,17.6,42.6,29.5,67.5,35.6l6.1,9.8l0.8,0.3
		l0.1-0.3L429.6,199.8L429.9,195.9"/>
	<path class="st0" d="M425.9,269.1c14.1,29,19.3,72.7,15.5,131.3l55.1-6.7L425.9,269.1z M551.4,396.3c5.7-0.7,9.3-1.9,10.9-3.6
		l-288.2,35.1h-0.1c0.1,12,5.5,21.4,16,28.1c2.8,2,5.8,3.5,8.5,4.4c2.6-3,5.4-5.1,8.8-7.1h0.1c30.2-18.3,75-21.1,134.3-8.6l0.7,0.1
		c6.5,1.3,12.9,3,19,4.8c1.7,0.3,3.2-0.3,4.4-1.3c2.2-1.6,4.8-2.8,8.5-3.6v-0.1c9.6-17,22.5-29.5,38.7-37.7
		C524,401.3,537,397.7,551.4,396.3 M412.9,401.6l13.2-202.3C407,273.1,376.3,342,334.1,406L412.9,401.6 M338.7,238.6l-0.5-0.3
		l-0.5,0.1l-0.3,0.7l-10.9,175.1l1.6-0.1L339,239.2L338.7,238.6 M323.4,410.5l11.6-170.8l-61,176L323.4,410.5"/>
</g>
<g>
	<path class="st1" d="M325.8,467.4c-15.2,7.3-26.3,8.5-33.3,4c-7-4.7-17.8-3.6-32.3,3.2 M361.5,468.5c-2.8-0.9-5.9-1.6-9.2-1.9
		c-6.6-0.5-14.5,2-23.8,7.5c-9.3,5.7-20.5,7.8-33.8,6.6 M444.6,454.7c-64.1-13.2-110.3-10.1-138.6,9.4 M485,461.1
		c-2.8-1.1-5.9-1.8-9.2-1.9c-6.6-0.5-14.5,2-23.8,7.5c-9.3,5.5-20.5,7.7-33.8,6.6"/>
	<path class="st2" d="M398.9,240.2c-6.6-4-13.5-3-20.6,3.4c-6.2-6.3-12.7-7.4-19.4-3.4 M384,217.6c-6.7-4-13.3-2.4-20.1,4.8
		c-6.6-7.3-13.3-8.9-20.1-4.8"/>
</g>
<path class="st3" d="M55.1,428.5H73c5.4,0,9.3,1.5,11.8,4.6c2.5,3.1,3.3,7.3,2.4,12.8c-0.4,2.2-1,4.3-1.9,6.2
	c-0.9,1.9-2.2,3.6-3.7,5.1c-1.8,1.9-3.8,3.2-6.1,4c-2.2,0.8-5.1,1.2-8.6,1.2h-8l-2,12.2h-9.3L55.1,428.5z M63.2,435.8l-3.1,19.3h5.6
	c3.7,0,6.5-0.8,8.3-2.3c1.8-1.5,3-4.1,3.6-7.6c0.6-3.4,0.2-5.9-1-7.3c-1.2-1.4-3.6-2.1-7.1-2.1H63.2 M97.6,416.2h9.2l-2,12.2h8.2
	c5.2,0,8.7,1,10.7,2.9c2,2,2.6,5.1,1.9,9.5l-3.5,21.5h-9.4l3.3-20.4c0.4-2.3,0.2-3.9-0.5-4.7c-0.7-0.8-2.3-1.3-4.6-1.3h-7.4
	l-4.3,26.4h-9.2L97.6,416.2 M135.8,428.5h17.9c5.4,0,9.3,1.5,11.8,4.6c2.5,3.1,3.3,7.3,2.4,12.8c-0.4,2.2-1,4.3-1.9,6.2
	c-0.9,1.9-2.2,3.6-3.7,5.1c-1.8,1.9-3.8,3.2-6.1,4c-2.2,0.8-5.1,1.2-8.6,1.2h-7.9l-2,12.2h-9.3L135.8,428.5z M143.9,435.8l-3.1,19.3
	h5.6c3.7,0,6.5-0.8,8.3-2.3c1.8-1.5,3-4.1,3.6-7.6c0.6-3.4,0.2-5.9-1-7.3c-1.2-1.4-3.6-2.1-7.1-2.1H143.9"/>
<path class="st4" d="M183.6,406.4h17.9l7.8,42.9l21.7-42.9h17.8l-9,55.8h-11.9l8-43.5l-21.9,43.5H201l-8.2-44l-5.9,44h-12.4
	L183.6,406.4 M270.2,453.2h9l5.2-32h11.2l-6.4,39.9c-0.9,5.4-2.8,9.4-5.9,12.1c-3,2.6-7.3,3.9-12.7,3.9h-22l1.3-8.3h20
	c2.2,0,3.9-0.5,5.2-1.5c1.3-1,2.1-2.5,2.4-4.4l0.1-0.7h-9.9c-6.3,0-10.7-1.2-13-3.6c-2.3-2.4-3-6.5-2.1-12.1l4.1-25.3h11.1l-4,24.4
	c-0.5,3.1-0.3,5.1,0.5,6.1C265.2,452.8,267.1,453.2,270.2,453.2 M325.8,406.4h12.9l15.6,55.8h-13.5l-3.2-13.3h-25.1l-7.3,13.3h-12.9
	L325.8,406.4z M329.9,417.5L318,439h17.2L329.9,417.5 M396.5,462.3H375c-6.5,0-11.3-1.8-14.3-5.5c-3-3.7-4-8.9-3-15.5
	c0.4-2.7,1.2-5.2,2.3-7.5c1.1-2.3,2.6-4.3,4.5-6.2c2.2-2.3,4.7-3.9,7.4-4.8c2.7-1,6.2-1.5,10.4-1.5h9.6l2.4-14.8h11.2L396.5,462.3z
	 M386.8,453.5l3.8-23.4h-6.8c-4.5,0-7.9,0.9-10.1,2.8c-2.2,1.8-3.6,4.9-4.3,9.2c-0.7,4.2-0.3,7.1,1.2,8.8c1.5,1.7,4.3,2.6,8.6,2.6
	H386.8 M412.9,421.3h43c6.2,0,10.5,1.2,12.9,3.5c2.4,2.4,3.1,6.2,2.3,11.5l-4.2,26h-11.3l4-24.6c0.5-3,0.3-5-0.4-6
	c-0.8-1-2.6-1.4-5.6-1.4h-6.3l-5.2,32h-11.5l5.2-32h-13.1l-5.2,32h-11.3L412.9,421.3 M496.1,416.6h-11.8l1.6-10.2h11.8L496.1,416.6z
	 M488.7,462.3h-11.8l6.6-41h11.8L488.7,462.3 M505,421.3h21.1c6.4,0,10.7,1.2,13.1,3.5c2.4,2.3,3.1,6.2,2.2,11.5l-4.2,26H526l4-24.7
	c0.5-3.1,0.3-5.1-0.5-6c-0.8-0.9-2.7-1.4-5.7-1.4h-9l-5.2,32h-11.2L505,421.3"/>
</svg>
