<?xml version="1.0" encoding="utf-8"?>
<!-- Generator: Adobe Illustrator 26.5.0, SVG Export Plug-In . SVG Version: 6.00 Build 0)  -->
<svg version="1.1" id="Layer_1" xmlns="http://www.w3.org/2000/svg" xmlns:xlink="http://www.w3.org/1999/xlink" x="0px" y="0px"
	 viewBox="0 0 650 650" style="enable-background:new 0 0 650 650;" xml:space="preserve">
<style type="text/css">
	.st0{fill:#61DAFB;}
	.st1{fill-rule:evenodd;clip-rule:evenodd;fill:#61DAFB;}
</style>
<g>
	<g>
		<path class="st0" d="M625,325c0-39.7-49.8-77.5-126.1-100.7c17.6-77.7,9.8-139.7-24.7-159.4c-7.9-4.7-17.2-6.9-27.4-6.9v27.3
			c5.6,0,10.1,1.2,14,3.2c16.7,9.6,23.8,45.9,18.2,92.6c-1.3,11.5-3.5,23.5-6.2,35.9c-23.9-5.8-50.2-10.3-77.6-13.3
			c-16.6-22.6-33.6-43.2-50.8-61.2c39.8-37.1,77.3-57.3,102.7-57.3V58c-33.6,0-77.6,23.9-122.2,65.6c-44.5-41.4-88.6-65-122.2-65
			v27.3c25.3,0,62.8,20.2,102.7,57c-17.1,18-34.3,38.4-50.6,61c-27.7,3-53.8,7.5-77.7,13.4c-2.8-12.3-4.9-24.1-6.3-35.4
			c-5.7-46.7,1.3-83,17.8-92.7c3.6-2.2,8.4-3.2,14.1-3.2V58.6c-10.2,0-19.5,2.2-27.7,6.9c-34.4,19.8-42,81.6-24.3,159.1
			C74.5,247.8,25,285.4,25,325c0,39.7,49.8,77.5,126.1,100.7c-17.6,77.7-9.8,139.7,24.7,159.4c7.9,4.7,17.2,6.9,27.5,6.9
			c33.6,0,77.6-23.9,122.2-65.6c44.5,41.4,88.6,65,122.2,65c10.2,0,19.5-2.2,27.7-6.9c34.4-19.8,42-81.6,24.3-159.1
			C575.5,402.3,625,364.6,625,325L625,325z M465.7,243.4c-4.5,15.8-10.1,32.1-16.6,48.4c-5-9.8-10.2-19.5-16-29.4
			c-5.7-9.8-11.6-19.3-17.6-28.6C433,236.3,449.8,239.5,465.7,243.4z M409.7,373.6c-9.6,16.6-19.3,32.2-29.5,46.7
			c-18.2,1.6-36.7,2.5-55.2,2.5c-18.5,0-37-0.9-55.1-2.3c-10.1-14.6-20-30.1-29.6-46.4c-9.3-16-17.7-32.3-25.5-48.6
			c7.6-16.4,16.2-32.7,25.3-48.8c9.6-16.6,19.3-32.2,29.5-46.7c18.2-1.6,36.7-2.5,55.2-2.5s37,0.9,55.1,2.3
			c10.1,14.6,20,30.1,29.6,46.4c9.3,16,17.7,32.3,25.5,48.6C427.3,341.3,418.9,357.7,409.7,373.6L409.7,373.6z M449.3,357.7
			c6.6,16.4,12.3,32.7,16.8,48.6c-16,3.9-32.8,7.2-50.4,9.8c5.9-9.4,12-19.1,17.6-29C438.9,377.5,444.2,367.5,449.3,357.7
			L449.3,357.7z M325.3,488.2c-11.4-11.8-22.8-24.8-34-39.2c11,0.5,22.2,0.9,33.6,0.9c11.5,0,22.9-0.3,34-0.9
			C347.9,463.4,336.5,476.6,325.3,488.2L325.3,488.2z M234.2,416.2c-17.3-2.6-34.1-5.7-50.2-9.7c4.5-15.8,10.1-32.1,16.6-48.4
			c5,9.8,10.2,19.5,16,29.4C222.5,397.4,228.3,407,234.2,416.2z M324.6,161.8c11.4,11.8,22.8,24.8,34,39.2
			c-11-0.5-22.2-0.9-33.6-0.9c-11.5,0-22.9,0.3-34,0.9C302,186.6,313.4,173.4,324.6,161.8z M234.1,233.8c-5.9,9.4-12,19.1-17.6,29
			c-5.6,9.8-10.9,19.5-15.9,29.4c-6.6-16.4-12.3-32.7-16.9-48.6C199.8,239.7,216.6,236.3,234.1,233.8L234.1,233.8z M123.5,386.9
			c-43.3-18.5-71.2-42.7-71.2-61.8c0-19.1,28.1-43.6,71.2-61.8c10.5-4.5,22-8.5,33.9-12.4c7,23.9,16.2,48.9,27.5,74.5
			c-11.2,25.5-20.3,50.3-27.2,74.1C145.6,395.6,134.1,391.5,123.5,386.9L123.5,386.9z M189.2,561.6c-16.7-9.6-23.8-45.9-18.2-92.6
			c1.3-11.5,3.5-23.5,6.2-35.9c23.9,5.8,50.2,10.3,77.6,13.3c16.6,22.6,33.6,43.2,50.8,61.2c-39.8,37.1-77.3,57.4-102.7,57.4
			C197.6,564.7,193,563.7,189.2,561.6L189.2,561.6z M479.3,468.4c5.7,46.7-1.3,83-17.8,92.7c-3.6,2.2-8.4,3.2-14.1,3.2
			c-25.3,0-62.8-20.2-102.7-57c17.1-18,34.3-38.4,50.6-61c27.7-3,53.8-7.5,77.7-13.4C475.8,445.3,478,457,479.3,468.4z M526.3,386.9
			c-10.5,4.5-22,8.5-33.9,12.4c-7-23.9-16.2-48.9-27.5-74.5c11.2-25.5,20.3-50.3,27.2-74.1c12.2,3.8,23.7,7.9,34.4,12.4
			c43.3,18.5,71.3,42.7,71.3,61.8S569.7,368.6,526.3,386.9L526.3,386.9z"/>
		<circle class="st1" cx="324.9" cy="325" r="55.9"/>
	</g>
</g>
</svg>
