<?xml version="1.0" encoding="utf-8"?>
<!-- Generator: Adobe Illustrator 28.2.0, SVG Export Plug-In . SVG Version: 6.00 Build 0)  -->
<svg version="1.1" id="Calque_1" xmlns="http://www.w3.org/2000/svg" xmlns:xlink="http://www.w3.org/1999/xlink" x="0px" y="0px"
	 viewBox="0 0 600 600" style="enable-background:new 0 0 600 600;" xml:space="preserve">
<style type="text/css">
	.st0{fill:#06B6D4;}
</style>
<rect y="0" width="600" height="600"/>
<path class="st0" d="M300,133.8c-73.8,0-120,36.9-138.5,110.8c27.7-36.9,60-50.8,96.9-41.5c21,5.3,36.1,20.6,52.8,37.5
	c27.1,27.6,58.5,59.4,127.2,59.4c73.8,0,120-36.9,138.5-110.8c-27.7,36.9-60,50.8-96.9,41.5c-21-5.3-36.1-20.6-52.8-37.5
	C400.1,165.8,368.7,133.8,300,133.8L300,133.8z M161.5,300c-73.8,0-120,36.9-138.5,110.8c27.7-36.9,60-50.8,96.9-41.5
	c21,5.3,36.1,20.6,52.8,37.5c27.1,27.5,58.5,59.4,127.2,59.4c73.8,0,120-36.9,138.5-110.8c-27.7,36.9-60,50.8-96.9,41.5
	c-21-5.3-36.1-20.6-52.8-37.5C261.6,331.8,230.2,300,161.5,300L161.5,300z"/>
</svg>
