<?xml version="1.0" encoding="utf-8"?>
<!-- Generator: Adobe Illustrator 26.5.0, SVG Export Plug-In . SVG Version: 6.00 Build 0)  -->
<svg version="1.1" id="Calque_1" xmlns="http://www.w3.org/2000/svg" xmlns:xlink="http://www.w3.org/1999/xlink" x="0px" y="0px"
	 viewBox="0 0 650 650" style="enable-background:new 0 0 650 650;" xml:space="preserve">
<style type="text/css">
	.st0{fill:#FFFFFF;}
</style>
<path class="st0" d="M325,25C159.31,25,25,159.31,25,325s134.31,300,300,300s300-134.31,300-300S490.69,25,325,25z M325,595.23
	C175.76,595.23,54.77,474.24,54.77,325S175.76,54.77,325,54.77S595.23,175.76,595.23,325S474.24,595.23,325,595.23z"/>
<g>
	<path class="st0" d="M154.29,337.9c-36.93,0-66.98-30.05-66.98-66.98s30.05-66.98,66.98-66.98s66.98,30.05,66.98,66.98
		S191.22,337.9,154.29,337.9z M154.29,233.94c-20.39,0-36.98,16.59-36.98,36.98s16.59,36.98,36.98,36.98s36.98-16.59,36.98-36.98
		S174.68,233.94,154.29,233.94z"/>
</g>
<rect x="311.3" y="270.92" class="st0" width="30" height="334.77"/>
<rect x="235.44" y="276.65" transform="matrix(0.7071 -0.7071 0.7071 0.7071 -195.3623 288.3968)" class="st0" width="30" height="206.74"/>
<rect x="304.8" y="483.5" transform="matrix(0.7518 -0.6593 0.6593 0.7518 -230.9597 383.3526)" class="st0" width="178" height="30"/>
<rect x="440.61" y="352.04" class="st0" width="30" height="99.09"/>
<g>
	<path class="st0" d="M326.3,300.92c-36.93,0-66.98-30.05-66.98-66.98s30.05-66.98,66.98-66.98s66.98,30.05,66.98,66.98
		S363.23,300.92,326.3,300.92z M326.3,196.96c-20.39,0-36.98,16.59-36.98,36.98s16.59,36.98,36.98,36.98s36.98-16.59,36.98-36.98
		S346.69,196.96,326.3,196.96z"/>
</g>
<g>
	<path class="st0" d="M455.61,380.02c-36.93,0-66.98-30.05-66.98-66.98s30.05-66.98,66.98-66.98s66.98,30.05,66.98,66.98
		S492.54,380.02,455.61,380.02z M455.61,276.06c-20.39,0-36.98,16.59-36.98,36.98s16.59,36.98,36.98,36.98s36.98-16.59,36.98-36.98
		S476,276.06,455.61,276.06z"/>
</g>
</svg>
