<?xml version="1.0" encoding="utf-8"?>
<!-- Generator: Adobe Illustrator 24.3.0, SVG Export Plug-In . SVG Version: 6.00 Build 0)  -->
<svg version="1.1" id="Layer_1" xmlns="http://www.w3.org/2000/svg" xmlns:xlink="http://www.w3.org/1999/xlink" x="0px" y="0px"
	 viewBox="0 0 612 792" style="enable-background:new 0 0 612 792;" xml:space="preserve">
<style type="text/css">
	.st0{fill:#1F9CF0;}
</style>
<path class="st0" d="M558.3,226.2c-0.1-8.2-3.3-15.9-8.9-21.5c-2.6-2.7-5.6-4.9-9-6.5l-103.9-50c-12-5.8-26.4-3.3-35.8,6.1
	c0.9-0.9,1.8-1.6,2.8-2.3c-0.9,0.7-1.8,1.5-2.7,2.4l-199,181.3L115.2,270c-8.1-6.1-19.4-5.6-26.9,1.2l-27.8,25.2
	c-0.5,0.4-0.9,0.9-1.4,1.4c-7.8,8.6-7.2,21.9,1.4,29.7l75.2,68.5l-75.2,68.5c-8.6,7.8-9.2,21.1-1.4,29.7c0.5,0.5,0.9,1,1.4,1.4
	l27.8,25.2c7.5,6.8,18.8,7.3,26.8,1.2l86.7-65.7l199,181.4c9.4,9.4,23.8,11.9,35.8,6.1l103.8-50c10.3-4.9,17-14.9,17.8-26.1
	c0.1-0.7,0.1-1.5,0.1-2.3v-1.3V227.9v-1.2v-0.1C558.3,226.5,558.3,226.4,558.3,226.2z M281.3,396l150.9-114.4v228.8L281.3,396z"/>
</svg>
