<?xml version="1.0" encoding="utf-8"?>
<!-- Generator: Adobe Illustrator 24.3.0, SVG Export Plug-In . SVG Version: 6.00 Build 0)  -->
<svg version="1.1" id="Layer_1" xmlns="http://www.w3.org/2000/svg" xmlns:xlink="http://www.w3.org/1999/xlink" x="0px" y="0px"
	 viewBox="0 0 612 792" style="enable-background:new 0 0 612 792;" xml:space="preserve">
<style type="text/css">
	.st0{fill-rule:evenodd;clip-rule:evenodd;fill:#7952B3;}
</style>
<path class="st0" d="M156.3,192.1c-29.2,0-50.8,25.6-49.9,53.3c0.9,26.7-0.3,61.2-9,89.3C88.7,363,74,380.8,49.9,383.1v25.9
	c24.1,2.3,38.8,20.2,47.5,48.4c8.7,28.1,9.9,62.7,9,89.3c-1,27.7,20.7,53.3,49.9,53.3h299.5c29.2,0,50.8-25.6,49.9-53.3
	c-0.9-26.7,0.3-61.2,9-89.3c8.7-28.2,23.4-46.1,47.5-48.4v-25.9c-24.1-2.3-38.8-20.2-47.5-48.4c-8.7-28.1-9.9-62.7-9-89.3
	c1-27.7-20.7-53.3-49.9-53.3H156.3L156.3,192.1z M397.2,443.2c0,38.2-28.5,61.4-75.8,61.4h-80.5c-4.8,0-8.7-3.9-8.7-8.7l0,0V296.3
	c0-4.8,3.9-8.7,8.7-8.7h80c39.4,0,65.3,21.4,65.3,54.1c0,23-17.4,43.6-39.6,47.2v1.2C376.8,393.5,397.2,414.4,397.2,443.2
	L397.2,443.2z M312.6,315.1h-45.9v64.8h38.7c29.9,0,46.4-12,46.4-33.5C351.7,326.2,337.6,315.1,312.6,315.1L312.6,315.1z
	 M266.7,405.6v71.4h47.6c31.1,0,47.6-12.5,47.6-35.9c0-23.5-16.9-35.5-49.6-35.5L266.7,405.6L266.7,405.6z"/>
</svg>
