<?xml version="1.0" encoding="utf-8"?>
<!-- Generator: Adobe Illustrator 26.5.0, SVG Export Plug-In . SVG Version: 6.00 Build 0)  -->
<svg version="1.1" id="Calque_1" xmlns="http://www.w3.org/2000/svg" xmlns:xlink="http://www.w3.org/1999/xlink" x="0px" y="0px"
	 viewBox="0 0 650 650" style="enable-background:new 0 0 650 650;" xml:space="preserve">
<style type="text/css">
	.st0{fill:#FFFFFF;stroke:#FFFFFF;stroke-miterlimit:10;}
	.st1{fill:none;stroke:#FFFFFF;stroke-width:25;stroke-miterlimit:10;}
</style>
<path class="st0" d="M325,25C159.31,25,25,159.31,25,325s134.31,300,300,300s300-134.31,300-300S490.69,25,325,25z M325,595.23
	C175.76,595.23,54.77,474.24,54.77,325S175.76,54.77,325,54.77S595.23,175.76,595.23,325S474.24,595.23,325,595.23z"/>
<g>
	<path class="st1" d="M499.97,430.11H150.03c-4.84,0-8.77-3.93-8.77-8.77V228.66c0-4.84,3.93-8.77,8.77-8.77h349.94
		c4.84,0,8.77,3.93,8.77,8.77v192.67C508.74,426.18,504.81,430.11,499.97,430.11z"/>
	<polyline class="st1" points="149.22,228.93 325,325 500.78,228.93 	"/>
</g>
</svg>
