<?xml version="1.0" encoding="utf-8"?>
<!-- Generator: Adobe Illustrator 24.3.0, SVG Export Plug-In . SVG Version: 6.00 Build 0)  -->
<svg version="1.1" id="Layer_1" xmlns="http://www.w3.org/2000/svg" xmlns:xlink="http://www.w3.org/1999/xlink" x="0px" y="0px"
	 viewBox="0 0 612 792" enable-background="new 0 0 612 792" xml:space="preserve">
<title>HTML5 Logo</title>
<title>HTML5 Logo</title>
<g transform="matrix(.831388 0 0 .831388 145 48.2714)">
	<g>
		<rect x="398.689" y="407.933" fill="#823085" width="20.632" height="20.632"/>
		<path fill="#823085" d="M503.203,275.014c-0.006-11.715-1.548-22.365-6.616-31.249L194.209,417.614l302.559,174.528
			c4.837-8.752,6.461-18.607,6.467-30.064C503.235,562.077,503.235,370.719,503.203,275.014z M457.539,406.775h-16.545v24.816
			h16.545v20.363h-16.545v16.543h-20.361v-16.543h-24.816v16.543h-20.363v-16.543h-16.545v-20.363h16.545v-24.816h-16.545v-20.361
			h16.545v-16.545h20.363v16.545h24.816v-16.545h20.361v16.545h16.545V406.775z"/>
	</g>
	<path fill="#682876" d="M105.045,469.108c17.671,30.849,50.891,51.656,88.997,51.656c38.341,0,71.75-21.071,89.331-52.25
		l-88.384-51.198L105.045,469.108z"/>
	<path display="none" fill="#9B4993" d="M496.404,243.765c-4.977-8.737-12.429-16.06-22.43-21.85
		c-82.531-47.588-165.141-95.031-247.647-142.669c-22.243-12.84-43.808-12.372-65.887,0.653
		C127.59,99.273-36.881,193.5-85.889,221.888c-20.185,11.683-30.007,29.564-30.011,52.807c-0.031,95.703,0,191.402-0.031,287.109
		c0.004,11.458,2.403,21.609,7.246,30.36c4.98,9.001,12.538,16.526,22.766,22.445c49.014,28.388,213.506,122.61,246.347,141.987
		c22.088,13.032,43.654,13.498,65.905,0.653c82.507-47.64,165.124-95.081,247.668-142.667c10.228-5.92,17.786-13.449,22.766-22.442
		L194.989,417.317L496.404,243.765z"/>
	<g>
		<path fill="#682876" d="M194.042,520.764c38.34,0,71.747-21.07,89.329-52.247l-88.382-51.201l-89.946,51.789
			c0.001,0.001,0.001,0.002,0.002,0.003C122.716,499.957,155.936,520.764,194.042,520.764z"/>
		<path fill="#682876" d="M372.844,520.352c-35.474,61.987-102.262,103.77-178.801,103.77c-76.4,0-143.083-41.617-178.609-103.421
			c0,0,0,0,0-0.001l-124.117,71.464c4.98,9.001,12.538,16.526,22.766,22.445c49.014,28.388,213.506,122.61,246.347,141.987
			c22.088,13.032,43.654,13.498,65.904,0.653c82.506-47.64,165.124-95.081,247.668-142.667c10.228-5.92,17.786-13.448,22.766-22.442
			L372.844,520.352z"/>
	</g>
	<g>
		<path fill="#9B4993" d="M282.322,367.136c-17.844-30.189-50.676-50.468-88.279-50.468c-56.617,0-102.516,45.897-102.516,102.514
			c0,18.255,4.817,35.375,13.18,50.222l90.465-52.088L282.322,367.136z"/>
		<path fill="#9B4993" d="M15.085,521.006c-17.124-30.031-26.919-64.78-26.919-101.824c0-113.699,92.172-205.872,205.876-205.872
			c75.902,0,142.194,41.09,177.897,102.225l124.647-71.77c-4.977-8.737-12.429-16.06-22.43-21.85
			c-82.531-47.588-165.141-95.031-247.647-142.669c-22.243-12.84-43.808-12.372-65.887,0.653
			C127.772,99.273-36.699,193.5-85.707,221.888c-20.185,11.683-30.007,29.564-30.011,52.807c-0.031,95.703,0,191.402-0.031,287.109
			c0.004,11.457,2.403,21.609,7.246,30.36v0L15.085,521.006z"/>
	</g>
</g>
</svg>
