<?xml version="1.0" encoding="utf-8"?>
<!-- Generator: Adobe Illustrator 26.5.0, SVG Export Plug-In . SVG Version: 6.00 Build 0)  -->
<svg version="1.1" id="Layer_1" xmlns="http://www.w3.org/2000/svg" xmlns:xlink="http://www.w3.org/1999/xlink" x="0px" y="0px"
	 viewBox="0 0 650 650" style="enable-background:new 0 0 650 650;" xml:space="preserve">
<style type="text/css">
	.st0{fill:#2659A5;}
</style>
<path class="st0" d="M58.3,25l50,541.7L325,625l216.7-58.3l50-541.7H58.3z M484.3,200.5l-159.5,68.2l-0.4,0.2h0.4h153.9L461,471.7
	l-136,39.7l-0.2-0.1v0.1L188.1,471l-8.8-102.2h0.2h67.4h0.2l4.4,52.9l72.6,18.3l0.6-0.2v0.1l75.2-21.2l5.1-85.3l-80.4-0.3l0,0
	l-149.9-0.5l-5.1-63.9l155.1-64.6l9-3.8h-9h-161l-8.1-65.4h169h166.1L484.3,200.5z"/>
</svg>
