<?xml version="1.0" encoding="utf-8"?>
<!-- Generator: Adobe Illustrator 24.3.0, SVG Export Plug-In . SVG Version: 6.00 Build 0)  -->
<svg version="1.1" id="Layer_1" xmlns="http://www.w3.org/2000/svg" xmlns:xlink="http://www.w3.org/1999/xlink" x="0px" y="0px"
	 viewBox="0 0 612 792" style="enable-background:new 0 0 612 792;" xml:space="preserve">
<path d="M268.5,160.7c20.7-20.7,54.3-20.7,75.1,0l197.7,197.7c20.7,20.7,20.7,54.3,0,75.1L343.5,631.1c-20.7,20.7-54.3,20.7-75.1,0
	L70.8,433.4c-20.7-20.7-20.7-54.3,0-75.1l139.4-139.4l47.9,47.9c-3.3,6.9-5.2,14.7-5.2,22.9c0,23.1,14.8,42.8,35.4,50.1V452
	c-20.6,7.3-35.4,26.9-35.4,50.1c0,29.3,23.8,53.1,53.1,53.1s53.1-23.8,53.1-53.1c0-23.1-14.8-42.8-35.4-50.1V339.8
	c1.8-0.6,3.5-1.3,5.2-2.2l35.4,35.4c-3.3,6.9-5.2,14.7-5.2,22.9c0,29.3,23.8,53.1,53.1,53.1c29.3,0,53.1-23.8,53.1-53.1
	c0-29.3-23.8-53.1-53.1-53.1c-8.2,0-16,1.9-22.9,5.2l-35.4-35.4c3.3-6.9,5.2-14.7,5.2-22.9c0-29.3-23.8-53.1-53.1-53.1
	c-8.2,0-16,1.9-22.9,5.2l-47.9-47.9L268.5,160.7z"/>
</svg>
