<?xml version="1.0" encoding="utf-8"?>
<!-- Generator: Adobe Illustrator 26.5.0, SVG Export Plug-In . SVG Version: 6.00 Build 0)  -->
<svg version="1.1" id="Layer_1" xmlns="http://www.w3.org/2000/svg" xmlns:xlink="http://www.w3.org/1999/xlink" x="0px" y="0px"
	 viewBox="0 0 650 650" style="enable-background:new 0 0 650 650;" xml:space="preserve">
<style type="text/css">
	.st0{fill:#49021F;}
</style>
<g>
	<path class="st0" d="M518.8,32.5H131.2C72.5,32.5,25,79.9,25,138.7v372.6c0,58.8,47.5,106.2,106.2,106.2h387.6
		c58.8,0,106.2-47.5,106.2-106.2V138.8C625,80,577.4,32.5,518.8,32.5z M242.9,442.1c0,2.8-1.3,4-3.5,4h-49c-2.2,0-3.3-1.3-3.3-4
		V185.6c0-2.2,1.3-3.3,3.5-3.3h48.7c1.5-0.2,3,0.7,3.3,2.4c0.2,0.2,0.2,0.5,0.2,0.7V442.1L242.9,442.1z M466.2,434.5
		c-12.9,5.5-26.7,9.4-40.8,12c-12.5,2.2-25.5,3.5-38.5,3.5l0,0c-18.5,0.2-37-3.5-53.8-11.2c-15.7-7.2-28.8-19.2-37.8-34
		c-9.2-15.3-13.8-34.3-13.8-57c-0.2-18.5,4.5-36.7,13.8-52.7c9.4-16.2,23.2-29.7,39.8-38.7c17.5-9.8,38.5-14.5,63.2-14.5
		c1.3,0,3,0,5.2,0.2c2.2,0.2,4.8,0.2,7.7,0.5v-79.1c0-1.7,0.7-2.8,2.4-2.8h50.7c1.3-0.2,2.2,0.7,2.4,1.7V401c0,4.5,0.2,9.4,0.5,15
		c0.5,5.2,0.7,10.3,1,14.5C468.8,432.3,467.9,433.8,466.2,434.5z"/>
	<path class="st0" d="M396.5,288.3c-9.8,0-19.5,2-28.2,6.5c-8.5,4.2-15.7,10.5-21.2,18.5c-5.5,8-8.3,18.8-8.3,31.7
		c-0.2,8.7,1.3,17.5,4.2,25.8c2.4,6.8,6.3,12.7,11.2,17.7c4.8,4.5,10.5,8,17,10c6.8,2.2,13.8,3.3,20.8,3.3c3.7,0,7.2-0.2,10.5-0.5
		c3.3,0.2,6.3-0.2,9-1.3V290.1c-2.2-0.5-4.5-1-6.8-1.3C402,288.5,399.3,288.3,396.5,288.3z"/>
</g>
</svg>
