<?xml version="1.0" encoding="utf-8"?>
<!-- Generator: Adobe Illustrator 27.0.0, SVG Export Plug-In . SVG Version: 6.00 Build 0)  -->
<svg version="1.1" id="Layer_1" xmlns="http://www.w3.org/2000/svg" xmlns:xlink="http://www.w3.org/1999/xlink" x="0px" y="0px"
	 viewBox="0 0 650 650" style="enable-background:new 0 0 650 650;" xml:space="preserve">
<style type="text/css">
	.st0{fill:#02B3C6;}
	.st1{fill:#F29111;}
</style>
<g>
	<path class="st0" d="M269.7,390.6c-9.4,51.3-21.9,88.6-37.3,111.8c-12,17.9-25.2,26.9-39.5,26.9c-3.8,0-8.5-1.2-14.1-3.5v-12.4
		c2.7,0.4,5.9,0.6,9.6,0.6c6.7,0,12.1-1.9,16.2-5.6c4.9-4.5,7.4-9.6,7.4-15.2c0-3.8-1.9-11.7-5.7-23.6l-25.4-79.1h22.7l18.2,59.2
		c4.1,13.4,5.8,22.8,5.1,28.2c10-26.7,16.9-55.8,20.9-87.3L269.7,390.6 M169.3,492.9h-23.1c-0.8-39.2-3.1-76-6.8-110.5h-0.2
		L104,492.9H86.3l-35-110.5H51c-2.6,33.1-4.2,70-4.9,110.5H25c1.4-49.3,4.8-95.5,10.2-138.7h28.7l33.4,101.9h0.2l33.6-101.9h27.5
		C164.6,404.8,168.2,451,169.3,492.9"/>
	<path class="st1" d="M577.9,492.9h-65.8V354.3h22.1v121.6h43.6L577.9,492.9 M412.5,465.2c-5.6-9-8.4-23.5-8.4-43.6
		c0-34.9,10.6-52.4,31.8-52.4c11.1,0,19.2,4.2,24.4,12.5c5.6,9,8.4,23.4,8.4,43.2c0,35.2-10.6,52.8-31.8,52.8
		C425.8,477.7,417.6,473.6,412.5,465.2 M494.8,496.3l-25.4-12.6c2.3-1.9,4.4-3.9,6.4-6.2C486.6,464.8,492,446,492,421
		c0-45.9-18-68.8-53.9-68.8c-17.6,0-31.4,5.8-41.2,17.5c-10.8,12.7-16.2,31.5-16.2,56.3c0,24.4,4.8,42.3,14.3,53.6
		c8.7,10.3,21.9,15.4,39.5,15.4c6.6,0,12.6-0.8,18.1-2.4l33.1,19.3L494.8,496.3 M371.1,454.5c0,11.8-4.3,21.4-12.9,29
		c-8.6,7.5-20.2,11.3-34.6,11.3c-13.5,0-26.6-4.3-39.3-13l5.9-11.9c10.9,5.5,20.8,8.2,29.7,8.2c8.3,0,14.8-1.9,19.6-5.5
		c4.7-3.7,7.5-8.9,7.5-15.4c0-8.2-5.7-15.3-16.2-21.2c-9.7-5.3-29.1-16.5-29.1-16.5c-10.5-7.7-15.8-15.9-15.8-29.5
		c0-11.2,3.9-20.3,11.8-27.2c7.9-6.9,18-10.4,30.4-10.4c12.8,0,24.5,3.4,35,10.3l-5.3,11.9c-9-3.8-17.9-5.7-26.6-5.7
		c-7.1,0-12.6,1.7-16.4,5.1s-6.2,7.8-6.2,13.1c0,8.2,5.9,15.3,16.7,21.4c9.8,5.3,29.7,16.7,29.7,16.7
		C365.7,432.9,371.1,441,371.1,454.5"/>
	<path class="st1" d="M593.6,492.9h3.7v-14.1h4.8v-2.9h-13.5v2.9h5V492.9z M621.5,492.9h3.5v-17h-5.2l-4.2,11.6l-4.6-11.6h-5v17h3.3
		V480h0.2l4.8,12.9h2.5l4.8-12.9L621.5,492.9L621.5,492.9z"/>
	<path class="st0" d="M393.9,120.7c-5.8-0.1-10.9,2.1-13.6,8.6c-4.5,10.9,6.7,21.6,10.5,27.1c2.8,3.8,6.5,8.2,8.5,12.6
		c1.2,2.8,1.5,5.9,2.7,8.9c2.7,7.4,5.2,15.6,8.7,22.5c1.8,3.5,3.8,7.2,6.2,10.4c1.4,1.9,3.7,2.7,4.2,5.7c-2.3,3.3-2.5,8.4-3.8,12.6
		c-6,18.9-3.7,42.4,4.8,56.3c2.7,4.2,9,13.4,17.6,9.9c7.5-3,5.8-12.6,8-20.9c0.5-2,0.2-3.4,1.2-4.7v0.3c2.3,4.7,4.7,9.2,6.9,13.9
		c5.2,8.2,14.2,16.7,21.7,22.4c4,3,7.2,8.2,12.2,10.1v-0.5h-0.3c-1-1.5-2.5-2.2-3.8-3.3c-3-3-6.3-6.7-8.7-10.1
		c-7-9.4-13.2-19.8-18.7-30.5c-2.7-5.2-5-10.9-7.2-16.1c-1-2-1-5-2.7-6c-2.5,3.7-6.2,6.9-8,11.4c-3.2,7.2-3.5,16.1-4.7,25.3
		c-0.7,0.2-0.3,0-0.7,0.3c-5.3-1.3-7.2-6.9-9.2-11.5c-5-11.9-5.9-31-1.5-44.8c1.2-3.5,6.2-14.6,4.2-17.9c-1-3.2-4.3-5-6.2-7.5
		c-2.2-3.2-4.5-7.2-6-10.7c-4-9.4-6-19.8-10.4-29.2c-2-4.4-5.5-8.9-8.4-12.9c-3.2-4.5-6.7-7.7-9.2-13.1c-0.8-1.8-2-4.9-0.7-6.9
		c0.3-1.3,1-1.8,2.3-2.2c2.2-1.8,8.3,0.5,10.5,1.5c6.2,2.5,11.4,4.9,16.5,8.4c2.3,1.7,4.9,4.9,7.9,5.7h3.5
		c5.3,1.2,11.4,0.3,16.4,1.8c8.9,2.8,16.9,7,24.1,11.6c21.9,13.9,39.9,33.7,52.1,57.3c2,3.8,2.9,7.4,4.7,11.4
		c3.5,8.2,7.9,16.6,11.4,24.6c3.5,7.9,6.9,15.9,11.9,22.5c2.5,3.5,12.5,5.4,17,7.2c3.3,1.5,8.5,2.8,11.5,4.7
		c5.7,3.5,11.4,7.5,16.7,11.4c2.7,2,11,6.2,11.5,9.6l0,0c-13.4-0.3-23.7,1-32.4,4.7c-2.5,1-6.5,1-6.9,4.2c1.3,1.3,1.5,3.5,2.7,5.4
		c2,3.4,5.5,7.9,8.7,10.2c3.5,2.7,7,5.4,10.7,7.7c6.5,4,13.9,6.4,20.2,10.4c3.7,2.3,7.4,5.4,11,7.9c1.8,1.3,3,3.5,5.3,4.4v-0.5
		c-1.2-1.5-1.5-3.7-2.7-5.4c-1.7-1.7-3.3-3.2-5-4.9c-4.9-6.5-10.9-12.2-17.4-16.9c-5.4-3.7-17.1-8.7-19.2-14.9c0,0-0.2-0.2-0.3-0.3
		c3.7-0.3,8-1.7,11.5-2.7c5.7-1.5,10.9-1.2,16.7-2.7c2.7-0.7,5.4-1.5,8-2.3v-1.5c-3-3-5.2-7-8.4-9.9c-8.5-7.4-17.9-14.6-27.6-20.6
		c-5.2-3.4-11.9-5.5-17.4-8.4c-2-1-5.3-1.5-6.5-3.2c-3-3.7-4.7-8.5-6.9-12.9c-4.8-9.2-9.5-19.4-13.7-29.2c-3-6.5-4.8-13.1-8.5-19.1
		c-17.2-28.5-35.9-45.7-64.7-62.7c-6.2-3.5-13.5-5-21.4-6.9c-4.2-0.2-8.4-0.5-12.5-0.7c-2.7-1.2-5.4-4.4-7.7-5.9
		C415.5,127.4,403.7,120.9,393.9,120.7L393.9,120.7z M435.1,162.1c-2.8,0-4.8,0.3-6.9,0.8v0.3h0.3c1.3,2.7,3.7,4.5,5.3,6.9
		c1.3,2.7,2.5,5.4,3.9,8c0.2-0.2,0.3-0.3,0.3-0.3c2.4-1.7,3.5-4.3,3.5-8.4c-1-1.2-1.2-2.3-2-3.5
		C438.6,164.3,436.5,163.5,435.1,162.1L435.1,162.1z"/>
</g>
</svg>
