<?xml version="1.0" encoding="utf-8"?>
<!-- Generator: Adobe Illustrator 24.3.0, SVG Export Plug-In . SVG Version: 6.00 Build 0)  -->
<svg version="1.1" id="Layer_1" xmlns="http://www.w3.org/2000/svg" xmlns:xlink="http://www.w3.org/1999/xlink" x="0px" y="0px"
	 viewBox="0 0 612 792" style="enable-background:new 0 0 612 792;" xml:space="preserve">
<path d="M480.4,409.1c0-0.9-0.2-1.5-0.7-1.9c-0.5-0.4-1.5-0.7-2.8-0.7H475v5.2h2.3C479.3,411.7,480.4,410.8,480.4,409.1L480.4,409.1
	z M483.3,419.9h-2.6l-1.6-3.6c-0.8-1.8-1.7-2.7-2.7-2.7H475v6.4h-2.1v-15.1h4.3c1.9,0,3.3,0.4,4.3,1.3c0.8,0.7,1.2,1.7,1.2,2.9
	c0,1-0.3,1.9-1,2.6c-0.7,0.7-1.6,1.2-2.8,1.5v0.1c0.8,0.2,1.7,1.1,2.5,2.8L483.3,419.9L483.3,419.9L483.3,419.9z M488,412.5
	c0-3-1-5.5-3-7.5c-2-2-4.5-3-7.4-3c-3,0-5.5,1-7.5,3c-2,2-3,4.5-3,7.5c0,3,1,5.5,3.1,7.6c2,2,4.5,3,7.4,3c2.9,0,5.4-1,7.4-3
	C487,418,488,415.5,488,412.5L488,412.5z M489.4,412.4c0,3.3-1.1,6.1-3.5,8.4c-2.3,2.3-5.1,3.4-8.5,3.4c-3.4,0-6.2-1.1-8.5-3.3
	c-2.3-2.2-3.4-5-3.4-8.4c0-3.3,1.1-6.1,3.4-8.4c2.3-2.3,5.1-3.4,8.5-3.4c3.3,0,6.1,1.1,8.4,3.3C488.3,406.2,489.4,409,489.4,412.4
	L489.4,412.4z M166,454.6h-7.3v-42c0-3.3,0.2-7.4,0.6-12.1h-0.2c-0.7,2.8-1.3,4.8-1.9,6.1l-21.3,48h-3.6l-21.4-47.7
	c-0.6-1.3-1.2-3.5-1.9-6.4h-0.2c0.2,2.5,0.3,6.6,0.3,12.2v41.9h-7.1v-62.5h9.7l19.2,43.6c1.4,3.3,2.4,5.8,2.8,7.5h0.3
	c1.2-3.4,2.2-6,3-7.7l19.6-43.4h9.2L166,454.6L166,454.6L166,454.6z M188.5,454.6h-7.1V410h7.1V454.6z M189.8,393.9
	c0,1.3-0.5,2.4-1.4,3.3c-0.9,0.9-2,1.4-3.3,1.4c-1.3,0-2.4-0.4-3.3-1.3c-0.9-0.9-1.4-2-1.4-3.4c0-1.3,0.4-2.4,1.4-3.3
	c0.9-0.9,2.1-1.3,3.3-1.3c1.3,0,2.4,0.4,3.3,1.3C189.3,391.6,189.8,392.7,189.8,393.9z M233.1,452.5c-3.4,2.1-7.5,3.1-12.2,3.1
	c-6.4,0-11.6-2.1-15.5-6.4c-3.8-4.1-5.7-9.4-5.7-16c0-7.3,2.1-13.2,6.3-17.7c4.2-4.5,9.8-6.8,16.9-6.8c3.9,0,7.3,0.8,10.3,2.3v7.3
	c-3.3-2.3-6.9-3.5-10.6-3.5c-4.5,0-8.2,1.6-11.1,4.8c-3,3.2-4.5,7.6-4.5,13c0,5.2,1.4,9.3,4.1,12.3c2.8,3,6.4,4.5,11,4.5
	c3.9,0,7.6-1.3,11-3.8L233.1,452.5L233.1,452.5z M267.2,417.2c-1.3-1-3.1-1.4-5.5-1.4c-2.9,0-5.3,1.3-7.3,3.9
	c-2.2,2.9-3.4,7-3.4,12.2v22.8h-7.1V410h7.1v9.2h0.2c1.1-3.3,2.7-5.8,4.8-7.5c2-1.6,4.3-2.4,6.8-2.4c1.9,0,3.3,0.2,4.3,0.6
	L267.2,417.2L267.2,417.2z M307,432.4c0-5.7-1.3-10.1-3.9-13.1c-2.5-2.9-6-4.3-10.5-4.3c-4.4,0-8,1.5-10.7,4.4
	c-2.8,3.1-4.2,7.5-4.2,13.2c0,5.3,1.3,9.5,4,12.5c2.7,3,6.3,4.5,10.9,4.5c4.7,0,8.3-1.5,10.8-4.6C305.8,442,307,437.8,307,432.4
	 M314.3,432.1c0,7.1-2,12.8-6,17.1c-4,4.3-9.4,6.5-16.2,6.5c-6.7,0-12-2.1-15.9-6.5c-3.8-4.1-5.8-9.6-5.8-16.4
	c0-7.8,2.2-13.8,6.5-18c4-3.9,9.4-5.9,16.2-5.9c6.7,0,11.9,2.1,15.6,6.2C312.4,419.2,314.3,424.9,314.3,432.1 M349.8,442.7
	c0,3.7-1.4,6.7-4.1,9.1c-3,2.6-7.1,3.9-12.2,3.9c-4.2,0-7.9-0.9-11.1-2.7v-7.7c3.5,2.8,7.4,4.3,11.6,4.3c5.7,0,8.5-2.1,8.5-6.2
	c0-1.7-0.6-3.2-1.9-4.3c-1.3-1.1-3.7-2.5-7.3-4.1c-3.7-1.6-6.4-3.3-8-5.1c-1.9-2.1-2.8-4.8-2.8-8.1c0-3.7,1.5-6.8,4.4-9.2
	c2.9-2.5,6.7-3.7,11.3-3.7c3.5,0,6.7,0.7,9.5,2.1v7.2c-2.9-2.1-6.3-3.2-10.1-3.2c-2.4,0-4.3,0.6-5.7,1.7c-1.4,1.2-2.1,2.7-2.1,4.5
	c0,2,0.6,3.5,1.8,4.6c1.1,1,3.3,2.3,6.7,3.7c3.8,1.6,6.6,3.3,8.2,4.9C348.7,436.6,349.8,439.3,349.8,442.7 M393.4,432.4
	c0-5.7-1.3-10.1-3.9-13.1c-2.5-2.9-6-4.3-10.5-4.3c-4.4,0-8,1.5-10.7,4.4c-2.8,3.1-4.2,7.5-4.2,13.2c0,5.3,1.3,9.5,4,12.5
	c2.7,3,6.3,4.5,10.9,4.5c4.7,0,8.3-1.5,10.8-4.6C392.2,442,393.4,437.8,393.4,432.4 M400.8,432.1c0,7.1-2,12.8-6,17.1
	c-4,4.3-9.4,6.5-16.2,6.5c-6.7,0-12-2.1-16-6.5c-3.8-4.1-5.8-9.6-5.8-16.4c0-7.8,2.2-13.8,6.5-18c4-3.9,9.4-5.9,16.2-5.9
	c6.7,0,11.9,2.1,15.6,6.2C398.9,419.2,400.8,424.9,400.8,432.1 M432.3,394.8c-1.4-0.8-3-1.2-4.7-1.2c-5,0-7.5,3.2-7.5,9.5v6.9h10.5
	v6.1H420v38.6h-7.2V416h-7.6v-6.1h7.6v-7.2c0-4.9,1.5-8.8,4.6-11.5c2.6-2.4,5.8-3.6,9.6-3.6c2.2,0,3.9,0.3,5.2,0.8V394.8
	L432.3,394.8z M460.5,454.1c-1.7,1-3.9,1.4-6.7,1.4c-7.8,0-11.7-4.4-11.7-13.2V416h-7.7v-6.1h7.7v-10.9c2.3-0.7,4.7-1.5,7.2-2.3
	v13.2h11.2v6.1h-11.2v25.2c0,3,0.5,5.1,1.5,6.4c1,1.3,2.7,1.9,5.1,1.9c1.8,0,3.3-0.5,4.6-1.4V454.1z"/>
<path d="M409.6,349.8c41.8,0,84-74.9,153.7-199.6h-27.4l0,0l-5.1,0h-16.2l0,0h0H489c-1.4,0.1-2.7,0.1-4.1,0.2c0,0,0,0,0,0.1
	c-40.4,2.4-59.3,23-68.8,53.4c-16.6,53.2-26.7,87.6-36.4,109.6c0,0,0,0,0,0c0,0,0,0,0,0c-4.3,4.2-25.6-159-80.2-159
	c-3.8,0-3.8,0,0,0l-21.5-0.1c3.3,0,3.3,0,0,0c0,0-0.1,0-0.1,0h-22.1h-64.1c-0.5,0-1,0-1.5,0c-47.1,0-112,87.4-141.2,200.5l24.4,0
	c6.5,0,8.3-0.1,15.8-0.1h7.2c0.5-0.1,1-0.1,1.6-0.1h0.1c0.2,0,0.4-0.1,0.7-0.1h0.2c0.1,0,0.2,0,0.3,0c41.4-2.1,60.5-23.6,70.2-54.4
	c7.5-23.9,13.6-44.1,19-61c0,0,0,0,0,0c6.6-20.6,6.6-20.6,0,0c13.1-18.5,26.2-34.5,39.3-47.4c0,0,0,0,0,0h0
	c18.5,56.7,25.6,157.8,79.7,157.8h43v0h42c-0.4-0.1-0.7-0.1-1.1-0.1c0.3,0,0.7,0,1.1,0.1h1.3l0,0.1L409.6,349.8
	C407.4,349.9,407.4,349.8,409.6,349.8z"/>
<polygon points="465.1,335.7 469.7,335.7 469.7,350 471.5,350 471.5,335.7 476.1,335.7 476.1,334 465.1,334 "/>
<path d="M487.5,345.1c-0.2,0.4-0.4,1.1-0.8,2h-0.1c-0.1-0.4-0.3-1.1-0.7-1.9l-4.9-11.1h-2.5V350h1.8v-10.7c0-1.4,0-2.5-0.1-3.1h0.1
	c0.2,0.8,0.3,1.3,0.5,1.6l5.4,12.1h0.9l5.4-12.2c0.1-0.3,0.3-0.8,0.5-1.6c-0.1,1.2-0.2,2.3-0.2,3.1V350h1.9h0V334h-2.3L487.5,345.1z
	"/>
<path d="M74.2,628.8c0,3.5-1.2,6.5-3.8,9.1c-2.5,2.5-5.6,3.8-9.1,3.8c-3.5,0-6.5-1.3-8.9-3.8c-2.4-2.6-3.7-5.6-3.7-9.1
	c0-3.6,1.2-6.6,3.7-9.1c2.4-2.5,5.4-3.8,8.9-3.8c3.6,0,6.6,1.3,9.1,3.8C72.9,622.3,74.2,625.3,74.2,628.8 M234.2,639.1h-23.3
	l-84.6-130.6c-2-3.3-3.8-6.7-5.1-10.3h-0.7c0.6,3.5,0.9,11,0.9,22.5v118.4h-19.2V475.2h24.9l82.1,128.6c3.3,5.1,5.5,8.8,6.6,11h0.5
	c-0.8-4.7-1.2-12.8-1.2-24.1V475.2h19.1L234.2,639.1L234.2,639.1z M357.3,639.1h-86.9V475.2h83.1v17.4h-63.9v54.5h59.2v17.4h-59.2
	v57.3h67.7L357.3,639.1L357.3,639.1z M489.1,492.6h-47.2v146.5h-19.2V492.6h-47.3v-17.4h113.7L489.1,492.6L489.1,492.6z"/>
</svg>
