<?xml version="1.0" encoding="utf-8"?>
<!-- Generator: Adobe Illustrator 24.3.0, SVG Export Plug-In . SVG Version: 6.00 Build 0)  -->
<svg version="1.1" id="Layer_1" xmlns="http://www.w3.org/2000/svg" xmlns:xlink="http://www.w3.org/1999/xlink" x="0px" y="0px"
	 viewBox="0 0 612 792" style="enable-background:new 0 0 612 792;" xml:space="preserve">
<style type="text/css">
	.st0{fill-rule:evenodd;clip-rule:evenodd;fill:#8993BE;}
</style>
<g>
	<path class="st0" d="M199,359h-22.9l-8.8,52.9h0h21.1c15.9-1.8,30-7,31.7-37C220.2,364.3,211.4,359,199,359z"/>
	<path class="st0" d="M435.2,359h-22.9l-8.8,52.9h0h21.1c15.9-1.8,30-7,31.7-37C456.3,364.3,447.5,359,435.2,359z"/>
	<path class="st0" d="M304.8,262.1c-142.1,0-257.3,60-257.3,133.9s115.2,133.9,257.3,133.9S562.1,470,562.1,396
		S446.9,262.1,304.8,262.1z M192,438.3h-31.7l-7,37h-33.5l28.2-142.8h65.2c28.2,1.8,42.3,15.9,42.3,40.5
		C255.4,415.4,221.9,440.1,192,438.3z M324.7,359h-26.4l-15.9,79.3h-33.5l28.2-142.8h33.5l-7,37h31.7c28.2,1.8,38.8,15.9,35.2,33.5
		l-12.3,72.3h-35.2l12.3-65.2C337,364.3,337,359,324.7,359z M428.2,438.3h-31.7l-7,37h-33.5l28.2-142.8h65.2
		c28.2,1.8,42.3,15.9,42.3,40.5C491.6,415.4,458.1,440.1,428.2,438.3z"/>
</g>
</svg>
