<?xml version="1.0" encoding="utf-8"?>
<!-- Generator: Adobe Illustrator 27.0.0, SVG Export Plug-In . SVG Version: 6.00 Build 0)  -->
<svg version="1.1" id="Calque_1" xmlns="http://www.w3.org/2000/svg" xmlns:xlink="http://www.w3.org/1999/xlink" x="0px" y="0px"
	 viewBox="0 0 650 650" style="enable-background:new 0 0 650 650;" xml:space="preserve">
<style type="text/css">
	.st0{fill:#FFFFFF;}
</style>
<path class="st0" d="M325,25C159.3,25,25,159.3,25,325s134.3,300,300,300s300-134.3,300-300S490.7,25,325,25z M325,595.2
	c-149.2,0-270.2-121-270.2-270.2S175.8,54.8,325,54.8s270.2,121,270.2,270.2S474.2,595.2,325,595.2z"/>
<path class="st0" d="M325.2,367.3c-59,0-107-48-107-107c0-59,48-107,107-107s107,48,107,107C432.2,319.3,384.2,367.3,325.2,367.3z
	 M325.2,178.3c-45.2,0-82,36.8-82,82s36.8,82,82,82s82-36.8,82-82S370.5,178.3,325.2,178.3z"/>
<path class="st0" d="M516.8,534c-0.2-0.3-19.3-31.3-52.8-61.8c-44-40-90.8-60.3-139-60.3c-48.3,0-94.9,20.3-138.8,60.3
	c-33.4,30.5-52.3,61.5-52.5,61.8l-21.4-12.9c0.8-1.4,20.7-34,56.5-66.8c48-44.1,102-67.4,156.2-67.4c54.1,0,108.2,23.3,156.4,67.4
	c35.9,32.9,55.9,65.4,56.8,66.8L516.8,534z"/>
</svg>
