<?xml version="1.0" encoding="utf-8"?>
<!-- Generator: Adobe Illustrator 24.3.0, SVG Export Plug-In . SVG Version: 6.00 Build 0)  -->
<svg version="1.1" id="Layer_1" xmlns="http://www.w3.org/2000/svg" xmlns:xlink="http://www.w3.org/1999/xlink" x="0px" y="0px"
	 viewBox="0 0 612 792" style="enable-background:new 0 0 612 792;" xml:space="preserve">
<style type="text/css">
	.st0{fill:#61DAFB;}
	.st1{fill-rule:evenodd;clip-rule:evenodd;fill:#61DAFB;}
</style>
<g>
	<g>
		<path class="st0" d="M538,350.7c0-30.7-38.5-59.9-97.5-77.9c13.6-60.1,7.6-108-19.1-123.3c-6.1-3.6-13.3-5.3-21.2-5.3v21.1
			c4.3,0,7.8,0.9,10.8,2.5c12.9,7.4,18.4,35.5,14.1,71.6c-1,8.9-2.7,18.2-4.8,27.8c-18.5-4.5-38.8-8-60-10.3
			c-12.8-17.5-26-33.4-39.3-47.3c30.8-28.7,59.8-44.3,79.4-44.3v-21.1c-26,0-60,18.5-94.5,50.7c-34.4-32-68.5-50.3-94.5-50.3v21.1
			c19.6,0,48.6,15.6,79.4,44.1c-13.2,13.9-26.5,29.7-39.1,47.2c-21.4,2.3-41.6,5.8-60.1,10.4c-2.2-9.5-3.8-18.6-4.9-27.4
			c-4.4-36.1,1-64.2,13.8-71.7c2.8-1.7,6.5-2.5,10.9-2.5v-21.1c-7.9,0-15.1,1.7-21.4,5.3c-26.6,15.3-32.5,63.1-18.8,123
			C112.3,291,74,320.1,74,350.7c0,30.7,38.5,59.9,97.5,77.9c-13.6,60.1-7.6,108,19.1,123.3c6.1,3.6,13.3,5.3,21.3,5.3
			c26,0,60-18.5,94.5-50.7c34.4,32,68.5,50.3,94.5,50.3c7.9,0,15.1-1.7,21.4-5.3c26.6-15.3,32.5-63.1,18.8-123
			C499.7,410.5,538,381.3,538,350.7L538,350.7z M414.8,287.6c-3.5,12.2-7.8,24.8-12.8,37.4c-3.9-7.6-7.9-15.1-12.4-22.7
			c-4.4-7.6-9-14.9-13.6-22.1C389.5,282.1,402.5,284.6,414.8,287.6z M371.5,388.3c-7.4,12.8-14.9,24.9-22.8,36.1
			c-14.1,1.2-28.4,1.9-42.7,1.9c-14.3,0-28.6-0.7-42.6-1.8c-7.8-11.3-15.5-23.3-22.9-35.9c-7.2-12.4-13.7-25-19.7-37.6
			c5.9-12.7,12.5-25.3,19.6-37.7c7.4-12.8,14.9-24.9,22.8-36.1c14.1-1.2,28.4-1.9,42.7-1.9c14.3,0,28.6,0.7,42.6,1.8
			c7.8,11.3,15.5,23.3,22.9,35.9c7.2,12.4,13.7,25,19.7,37.6C385.1,363.3,378.6,376,371.5,388.3L371.5,388.3z M402.1,376
			c5.1,12.7,9.5,25.3,13,37.6c-12.4,3-25.4,5.6-39,7.6c4.6-7.3,9.3-14.8,13.6-22.4C394.1,391.3,398.2,383.6,402.1,376L402.1,376z
			 M306.2,476.9c-8.8-9.1-17.6-19.2-26.3-30.3c8.5,0.4,17.2,0.7,26,0.7c8.9,0,17.7-0.2,26.3-0.7
			C323.7,457.7,314.9,467.9,306.2,476.9L306.2,476.9z M235.8,421.2c-13.4-2-26.4-4.4-38.8-7.5c3.5-12.2,7.8-24.8,12.8-37.4
			c3.9,7.6,7.9,15.1,12.4,22.7C226.7,406.7,231.2,414.1,235.8,421.2z M305.7,224.5c8.8,9.1,17.6,19.2,26.3,30.3
			c-8.5-0.4-17.2-0.7-26-0.7c-8.9,0-17.7,0.2-26.3,0.7C288.2,243.7,297,233.5,305.7,224.5z M235.7,280.2
			c-4.6,7.3-9.3,14.8-13.6,22.4c-4.3,7.6-8.4,15.1-12.3,22.7c-5.1-12.7-9.5-25.3-13.1-37.6C209.2,284.7,222.2,282.1,235.7,280.2
			L235.7,280.2z M150.2,398.6c-33.5-14.3-55.1-33-55.1-47.8c0-14.8,21.7-33.7,55.1-47.8c8.1-3.5,17-6.6,26.2-9.6
			c5.4,18.5,12.5,37.8,21.3,57.6c-8.7,19.7-15.7,38.9-21,57.3C167.3,405.3,158.4,402.1,150.2,398.6L150.2,398.6z M201,533.7
			c-12.9-7.4-18.4-35.5-14.1-71.6c1-8.9,2.7-18.2,4.8-27.8c18.5,4.5,38.8,8,60,10.3c12.8,17.5,26,33.4,39.3,47.3
			c-30.8,28.7-59.8,44.4-79.4,44.4C207.5,536.1,203.9,535.3,201,533.7L201,533.7z M425.3,461.6c4.4,36.1-1,64.2-13.8,71.7
			c-2.8,1.7-6.5,2.5-10.9,2.5c-19.6,0-48.6-15.6-79.4-44.1c13.2-13.9,26.5-29.7,39.1-47.2c21.4-2.3,41.6-5.8,60.1-10.4
			C422.6,443.7,424.3,452.8,425.3,461.6z M461.7,398.6c-8.1,3.5-17,6.6-26.2,9.6c-5.4-18.5-12.5-37.8-21.3-57.6
			c8.7-19.7,15.7-38.9,21-57.3c9.4,2.9,18.3,6.1,26.6,9.6c33.5,14.3,55.1,33,55.1,47.8C516.9,365.5,495.2,384.4,461.7,398.6
			L461.7,398.6z"/>
		<circle class="st1" cx="305.9" cy="350.7" r="43.2"/>
	</g>
	<g>
		<path class="st0" d="M213.6,568.2h17.1c11.1,0,19.1,4,19.1,15.3c0,10.9-8,16.1-19.1,16.1h-10.1v23h-6.9V568.2z M229.7,594.1
			c8.5,0,13.1-3.4,13.1-10.5c0-7.2-4.7-9.7-13.1-9.7h-9.1v20.2L229.7,594.1L229.7,594.1z M229.3,597.8l5.4-3.6l16.6,28.5h-7.9
			L229.3,597.8z"/>
		<path class="st0" d="M256.4,602.6c0-13.1,8.9-21.2,18.1-21.2c10.3,0,16.1,7.4,16.1,18.9c0,1.4-0.1,2.9-0.3,3.9h-27.2
			c0.5,8.6,5.7,14.1,13.4,14.1c3.9,0,7.1-1.3,10-3.2l2.4,4.5c-3.5,2.3-7.8,4.2-13.3,4.2C265,623.7,256.4,615.8,256.4,602.6z
			 M284.6,599.3c0-8.1-3.6-12.5-9.9-12.5c-5.7,0-10.7,4.6-11.6,12.5H284.6z"/>
		<path class="st0" d="M296.9,612.2c0-8.8,7.6-13.2,24.8-15.1c0-5.2-1.7-10.2-8.3-10.2c-4.7,0-8.9,2.2-12,4.3l-2.7-4.7
			c3.7-2.4,9.4-5.3,15.9-5.3c9.9,0,14,6.5,14,16.6v24.8h-5.6l-0.6-4.8h-0.2c-3.8,3.2-8.3,5.8-13.3,5.8
			C302,623.7,296.9,619.5,296.9,612.2z M321.7,612.9v-11.2c-13.5,1.6-18.1,4.9-18.1,10.1c0,4.6,3.1,6.5,7.1,6.5
			C314.6,618.2,317.8,616.3,321.7,612.9z"/>
		<path class="st0" d="M338.3,602.6c0-13.5,9.1-21.2,19.4-21.2c5.3,0,9,2.2,11.8,4.7l-3.5,4.5c-2.4-2.1-4.8-3.6-8-3.6
			c-7.3,0-12.7,6.3-12.7,15.5c0,9.2,5.1,15.4,12.5,15.4c3.7,0,7-1.8,9.5-4l3,4.6c-3.6,3.2-8.2,5.1-13,5.1
			C346.5,623.7,338.3,615.9,338.3,602.6z"/>
		<path class="st0" d="M379.5,610.2v-22.3h-6v-5.2l6.3-0.4l0.8-11.3h5.7v11.3h10.9v5.6h-10.9v22.4c0,4.9,1.6,7.8,6.2,7.8
			c1.4,0,3.3-0.5,4.6-1.1l1.3,5.2c-2.3,0.8-5,1.5-7.5,1.5C382.4,623.7,379.5,618.3,379.5,610.2z"/>
	</g>
</g>
</svg>
