<?xml version="1.0" encoding="utf-8"?>
<!-- Generator: Adobe Illustrator 24.3.0, SVG Export Plug-In . SVG Version: 6.00 Build 0)  -->
<svg version="1.1" id="Layer_1" xmlns="http://www.w3.org/2000/svg" xmlns:xlink="http://www.w3.org/1999/xlink" x="0px" y="0px"
	 viewBox="0 0 612 792" style="enable-background:new 0 0 612 792;" xml:space="preserve">
<style type="text/css">
	.st0{fill:#1A171B;}
	.st1{fill:#FFFFFF;}
</style>
<g>
	<circle class="st0" cx="306" cy="396" r="250.9"/>
	<path class="st1" d="M415.2,237.8c-25.5,0.9-47.7,14.9-64.2,34.3c-18.3,21.3-30.5,46.5-39.3,72.3c-15.7-12.9-27.8-29.5-53-36.8
		c-19.5-5.6-39.9-3.3-58.7,10.7c-8.9,6.7-15,16.7-18,26.2c-7.6,24.6,7.9,46.4,15,54.3l15.4,16.5c3.2,3.2,10.8,11.7,7.1,23.8
		c-4,13.2-19.9,21.7-36.2,16.7c-7.3-2.2-17.7-7.6-15.4-15.2c1-3.1,3.2-5.4,4.4-8.1c1.1-2.3,1.6-4.1,2-5.1c3-9.7-1.1-22.3-11.5-25.5
		c-9.7-3-19.6-0.6-23.5,11.9c-4.4,14.2,2.4,39.9,38.8,51.1c42.6,13.1,78.6-10.1,83.7-40.3c3.2-18.9-5.3-33-21-51.1l-12.8-14.1
		c-7.7-7.7-10.4-20.9-2.4-31c6.8-8.5,16.4-12.2,32.1-7.9c23,6.2,33.2,22.2,50.4,35.1c-7.1,23.2-11.7,46.4-15.9,67.3l-2.5,15.5
		c-12.2,64.1-21.6,99.3-45.8,119.6c-4.9,3.5-11.9,8.7-22.4,9c-5.5,0.2-7.3-3.6-7.4-5.3c-0.1-3.9,3.1-5.7,5.3-7.4
		c3.2-1.8,8.1-4.7,7.8-14.1c-0.4-11.1-9.5-20.7-22.8-20.3c-10,0.3-25.1,9.7-24.6,26.9c0.6,17.7,17.1,31,42,30.2
		c13.3-0.5,43-5.9,72.3-40.7c34.1-39.9,43.6-85.7,50.8-119.1l8-44.2c4.4,0.5,9.2,0.9,14.4,1c42.5,0.9,63.7-21.1,64-37.1
		c0.2-9.7-6.4-19.2-15.5-19c-6.6,0.2-14.8,4.6-16.8,13.7c-1.9,8.9,13.5,17,1.4,24.8c-8.6,5.6-24,9.5-45.6,6.3l3.9-21.8
		c8-41.3,17.9-92,55.5-93.3c2.7-0.1,12.8,0.1,13,6.8c0.1,2.2-0.5,2.8-3.1,7.9c-2.6,4-3.6,7.3-3.5,11.2c0.4,10.5,8.4,17.5,20,17
		c15.5-0.5,20-15.6,19.7-23.4C459.8,248.5,440.6,237,415.2,237.8L415.2,237.8z"/>
</g>
</svg>
