<?xml version="1.0" encoding="utf-8"?>
<!-- Generator: Adobe Illustrator 26.5.0, SVG Export Plug-In . SVG Version: 6.00 Build 0)  -->
<svg version="1.1" id="Calque_1" xmlns="http://www.w3.org/2000/svg" xmlns:xlink="http://www.w3.org/1999/xlink" x="0px" y="0px"
	 viewBox="0 0 650 650" style="enable-background:new 0 0 650 650;" xml:space="preserve">
<style type="text/css">
	.st0{fill:#06B6D4;}
</style>
<path class="st0" d="M325,145c-80,0-130,40-150,120c30-40,65-55,105-45c22.8,5.7,39.1,22.3,57.2,40.6C366.6,290.5,400.6,325,475,325
	c80,0,130-40,150-120c-30,40-65,55-105,45c-22.8-5.7-39.1-22.3-57.2-40.6C433.4,179.6,399.4,145,325,145L325,145z M175,325
	c-80,0-130,40-150,120c30-40,65-55,105-45c22.8,5.7,39.1,22.3,57.2,40.6C216.6,470.4,250.6,505,325,505c80,0,130-40,150-120
	c-30,40-65,55-105,45c-22.8-5.7-39.1-22.3-57.2-40.6C283.4,359.5,249.4,325,175,325L175,325z"/>
</svg>
