<?xml version="1.0" encoding="utf-8"?>
<!-- Generator: Adobe Illustrator 24.3.0, SVG Export Plug-In . SVG Version: 6.00 Build 0)  -->
<svg version="1.1" id="Layer_1" xmlns="http://www.w3.org/2000/svg" xmlns:xlink="http://www.w3.org/1999/xlink" x="0px" y="0px"
	 viewBox="0 0 612 792" style="enable-background:new 0 0 612 792;" xml:space="preserve">
<path d="M494.7,155.8H117.3c-37.9,0-68.6,30.7-68.6,68.6v343.1c0,37.9,30.7,68.6,68.6,68.6h377.4c37.9,0,68.6-30.7,68.6-68.6V224.5
	C563.3,186.6,532.6,155.9,494.7,155.8z M134.5,396c-9.5,0-17.2-7.7-17.2-17.2c0-5.2,2.4-10.1,6.4-13.4l69-55.2l-69-55.2
	c-7.4-5.9-8.6-16.7-2.7-24.1c5.9-7.4,16.7-8.6,24.1-2.7l85.8,68.6c7.4,5.9,8.6,16.7,2.7,24.1c-0.8,1-1.7,1.9-2.7,2.7l-85.8,68.6
	C142.1,394.7,138.4,396,134.5,396z M306,396h-68.6c-9.5,0-17.2-7.7-17.2-17.2s7.7-17.2,17.2-17.2H306c9.5,0,17.2,7.7,17.2,17.2
	S315.5,396,306,396z"/>
</svg>
