<?xml version="1.0" encoding="utf-8"?>
<!-- Generator: Adobe Illustrator 28.2.0, SVG Export Plug-In . SVG Version: 6.00 Build 0)  -->
<svg version="1.1" id="Layer_1" xmlns="http://www.w3.org/2000/svg" xmlns:xlink="http://www.w3.org/1999/xlink" x="0px" y="0px"
	 viewBox="0 0 400 600" style="enable-background:new 0 0 400 600;" xml:space="preserve">
<style type="text/css">
	.st0{fill:#ED6C25;}
	.st1{fill:#FFFFFF;}
</style>
<rect class="st0" width="400" height="600"/>
<g>
	<g>
		<path class="st1" d="M21.5,34.7h-2.1V21.2c-0.5,0.5-1.2,1-2,1.5s-1.6,0.8-2.2,1.1v-2c1.2-0.6,2.2-1.2,3.1-2s1.5-1.6,1.9-2.3h1.4
			V34.7z"/>
		<path class="st1" d="M36,30.7l2.2,0.3c-0.3,1.3-1,2.3-1.9,3S34.2,35,32.7,35c-1.8,0-3.3-0.6-4.3-1.7s-1.6-2.7-1.6-4.7
			c0-2.1,0.5-3.7,1.6-4.9s2.5-1.7,4.2-1.7c1.7,0,3,0.6,4.1,1.7s1.6,2.7,1.6,4.8c0,0.1,0,0.3,0,0.6H29c0.1,1.4,0.5,2.4,1.2,3.1
			s1.6,1.1,2.6,1.1c0.8,0,1.4-0.2,2-0.6S35.7,31.6,36,30.7z M29.1,27.3H36c-0.1-1-0.4-1.8-0.8-2.4c-0.7-0.8-1.5-1.2-2.6-1.2
			c-1,0-1.8,0.3-2.4,1S29.1,26.2,29.1,27.3z"/>
		<path class="st1" d="M40.8,34.7V22.2h1.9v1.9c0.5-0.9,0.9-1.5,1.3-1.7s0.9-0.4,1.4-0.4c0.7,0,1.4,0.2,2.2,0.7l-0.7,2
			c-0.5-0.3-1-0.5-1.5-0.5c-0.5,0-0.9,0.1-1.2,0.4s-0.6,0.7-0.8,1.2c-0.2,0.8-0.4,1.6-0.4,2.5v6.5H40.8z"/>
		<path class="st1" d="M54.6,29.8l2.1-0.3c0.1,1.3,0.3,2.2,0.7,2.7s1,0.7,1.8,0.7c0.6,0,1.1-0.1,1.5-0.4s0.7-0.6,0.9-1.1
			s0.2-1.2,0.2-2.2V17.5H64v11.7c0,1.4-0.2,2.6-0.5,3.3s-0.9,1.4-1.7,1.8S60.2,35,59.2,35c-1.5,0-2.7-0.4-3.5-1.3
			S54.6,31.5,54.6,29.8z"/>
		<path class="st1" d="M75.6,34.7v-1.8c-1,1.4-2.3,2.1-3.9,2.1c-0.7,0-1.4-0.1-2.1-0.4s-1.1-0.6-1.4-1.1s-0.5-0.9-0.7-1.6
			c-0.1-0.4-0.1-1.1-0.1-2v-7.7h2.1v6.9c0,1.1,0,1.8,0.1,2.2c0.1,0.6,0.4,1,0.8,1.3s1,0.5,1.6,0.5s1.2-0.2,1.8-0.5s0.9-0.8,1.2-1.3
			s0.3-1.4,0.3-2.4v-6.7h2.1v12.4H75.6z"/>
		<path class="st1" d="M80.8,19.9v-2.4H83v2.4H80.8z M80.8,34.7V22.2H83v12.4H80.8z"/>
		<path class="st1" d="M86.2,34.7V22.2h1.9V24c0.9-1.4,2.2-2.1,4-2.1c0.8,0,1.4,0.1,2.1,0.4s1.1,0.6,1.4,1.1s0.5,1,0.7,1.6
			c0.1,0.4,0.1,1.1,0.1,2.1v7.7h-2.1v-7.6c0-0.9-0.1-1.5-0.2-1.9s-0.5-0.8-0.9-1s-0.9-0.4-1.5-0.4c-0.9,0-1.7,0.3-2.3,0.9
			s-1,1.7-1,3.2v6.8H86.2z"/>
		<path class="st1" d="M116.7,32.7v2h-11.4c0-0.5,0.1-1,0.2-1.5c0.3-0.8,0.8-1.5,1.4-2.3s1.6-1.6,2.8-2.6c1.9-1.5,3.1-2.7,3.8-3.6
			s1-1.7,1-2.5c0-0.8-0.3-1.5-0.9-2.1s-1.4-0.9-2.3-0.9c-1,0-1.8,0.3-2.4,0.9s-0.9,1.5-0.9,2.5l-2.2-0.2c0.1-1.6,0.7-2.8,1.7-3.7
			s2.3-1.3,3.9-1.3c1.6,0,3,0.5,3.9,1.4s1.4,2,1.4,3.4c0,0.7-0.1,1.4-0.4,2s-0.7,1.4-1.4,2.1s-1.7,1.7-3.3,3
			c-1.3,1.1-2.1,1.8-2.4,2.2s-0.7,0.8-0.9,1.1H116.7z"/>
		<path class="st1" d="M118.9,26.2c0-2,0.2-3.7,0.6-4.9s1-2.2,1.9-2.9s1.9-1,3.1-1c0.9,0,1.7,0.2,2.4,0.6s1.3,0.9,1.7,1.6
			s0.8,1.6,1.1,2.6s0.4,2.4,0.4,4.1c0,2-0.2,3.6-0.6,4.9s-1,2.2-1.9,2.9s-1.9,1-3.1,1c-1.7,0-3-0.6-3.9-1.8
			C119.5,31.8,118.9,29.4,118.9,26.2z M121.1,26.2c0,2.8,0.3,4.7,1,5.6s1.5,1.4,2.4,1.4s1.8-0.5,2.4-1.4s1-2.8,1-5.6
			c0-2.8-0.3-4.7-1-5.6s-1.5-1.4-2.5-1.4c-1,0-1.7,0.4-2.3,1.2C121.5,21.5,121.1,23.4,121.1,26.2z"/>
		<path class="st1" d="M143.4,32.7v2H132c0-0.5,0.1-1,0.2-1.5c0.3-0.8,0.8-1.5,1.4-2.3s1.6-1.6,2.8-2.6c1.9-1.5,3.1-2.7,3.8-3.6
			s1-1.7,1-2.5c0-0.8-0.3-1.5-0.9-2.1s-1.4-0.9-2.3-0.9c-1,0-1.8,0.3-2.4,0.9s-0.9,1.5-0.9,2.5l-2.2-0.2c0.1-1.6,0.7-2.8,1.7-3.7
			s2.3-1.3,3.9-1.3c1.6,0,3,0.5,3.9,1.4s1.4,2,1.4,3.4c0,0.7-0.1,1.4-0.4,2s-0.7,1.4-1.4,2.1s-1.7,1.7-3.3,3
			c-1.3,1.1-2.1,1.8-2.4,2.2s-0.7,0.8-0.9,1.1H143.4z"/>
		<path class="st1" d="M145.7,30.1l2.1-0.3c0.2,1.2,0.7,2.1,1.2,2.6s1.3,0.8,2.1,0.8c1,0,1.8-0.3,2.5-1s1-1.5,1-2.6
			c0-1-0.3-1.8-0.9-2.4s-1.4-0.9-2.4-0.9c-0.4,0-0.9,0.1-1.5,0.2l0.2-1.9c0.1,0,0.3,0,0.3,0c0.9,0,1.7-0.2,2.4-0.7s1.1-1.2,1.1-2.2
			c0-0.8-0.3-1.4-0.8-1.9s-1.2-0.8-2-0.8c-0.8,0-1.5,0.3-2.1,0.8s-0.9,1.3-1.1,2.3l-2.1-0.4c0.3-1.4,0.8-2.5,1.8-3.3
			s2.1-1.2,3.4-1.2c0.9,0,1.8,0.2,2.6,0.6s1.4,1,1.8,1.6s0.6,1.4,0.6,2.2c0,0.7-0.2,1.4-0.6,2s-1,1.1-1.8,1.5c1,0.2,1.8,0.7,2.4,1.5
			s0.8,1.7,0.8,2.8c0,1.5-0.5,2.8-1.6,3.8s-2.5,1.6-4.1,1.6c-1.5,0-2.8-0.4-3.8-1.3S145.8,31.6,145.7,30.1z"/>
		<path class="st1" d="M165.4,29.5v-2.1h6.5v2.1H165.4z"/>
		<path class="st1" d="M191.4,32.7v2H180c0-0.5,0.1-1,0.2-1.5c0.3-0.8,0.8-1.5,1.4-2.3s1.6-1.6,2.8-2.6c1.9-1.5,3.1-2.7,3.8-3.6
			s1-1.7,1-2.5c0-0.8-0.3-1.5-0.9-2.1s-1.4-0.9-2.3-0.9c-1,0-1.8,0.3-2.4,0.9s-0.9,1.5-0.9,2.5l-2.2-0.2c0.1-1.6,0.7-2.8,1.7-3.7
			s2.3-1.3,3.9-1.3c1.6,0,3,0.5,3.9,1.4s1.4,2,1.4,3.4c0,0.7-0.1,1.4-0.4,2s-0.7,1.4-1.4,2.1s-1.7,1.7-3.3,3
			c-1.3,1.1-2.1,1.8-2.4,2.2s-0.7,0.8-0.9,1.1H191.4z"/>
		<path class="st1" d="M193.8,19.8v-2h11.1v1.6c-1.1,1.2-2.2,2.7-3.3,4.6s-1.9,3.9-2.5,6c-0.4,1.4-0.7,3-0.8,4.7h-2.2
			c0-1.4,0.3-3,0.8-4.9s1.2-3.8,2.2-5.5s2-3.3,3-4.5H193.8z"/>
		<path class="st1" d="M214.5,34.7V17.5h5.9c1.3,0,2.4,0.1,3.1,0.2c1,0.2,1.8,0.6,2.5,1.2c0.9,0.8,1.6,1.7,2,2.9s0.7,2.6,0.7,4.1
			c0,1.3-0.2,2.5-0.5,3.5s-0.7,1.8-1.2,2.5s-1,1.2-1.6,1.6s-1.2,0.7-2.1,0.9s-1.7,0.3-2.8,0.3H214.5z M216.8,32.7h3.7
			c1.1,0,2-0.1,2.7-0.3s1.2-0.5,1.5-0.9c0.5-0.5,1-1.3,1.3-2.2s0.5-2,0.5-3.3c0-1.8-0.3-3.2-0.9-4.1s-1.3-1.6-2.2-1.9
			c-0.6-0.2-1.6-0.4-2.9-0.4h-3.6V32.7z"/>
		<path class="st1" d="M240.1,30.7l2.2,0.3c-0.3,1.3-1,2.3-1.9,3s-2.1,1.1-3.6,1.1c-1.8,0-3.3-0.6-4.3-1.7s-1.6-2.7-1.6-4.7
			c0-2.1,0.5-3.7,1.6-4.9s2.5-1.7,4.2-1.7c1.7,0,3,0.6,4.1,1.7s1.6,2.7,1.6,4.8c0,0.1,0,0.3,0,0.6h-9.3c0.1,1.4,0.5,2.4,1.2,3.1
			s1.6,1.1,2.6,1.1c0.8,0,1.4-0.2,2-0.6S239.8,31.6,240.1,30.7z M233.2,27.3h6.9c-0.1-1-0.4-1.8-0.8-2.4c-0.7-0.8-1.5-1.2-2.6-1.2
			c-1,0-1.8,0.3-2.4,1S233.3,26.2,233.2,27.3z M235.5,20.7l1.6-3.3h2.8l-2.6,3.3H235.5z"/>
		<path class="st1" d="M253.1,30.1l2.1,0.3c-0.2,1.4-0.8,2.5-1.7,3.4S251.3,35,250,35c-1.7,0-3.1-0.6-4.1-1.7s-1.6-2.7-1.6-4.8
			c0-1.3,0.2-2.5,0.7-3.5s1.1-1.8,2-2.3s1.9-0.8,3-0.8c1.4,0,2.5,0.3,3.3,1s1.4,1.7,1.7,2.9l-2.1,0.3c-0.2-0.8-0.5-1.5-1-1.9
			s-1.1-0.6-1.8-0.6c-1.1,0-1.9,0.4-2.6,1.1s-1,2-1,3.6c0,1.7,0.3,2.9,1,3.6s1.5,1.1,2.5,1.1c0.8,0,1.5-0.3,2.1-0.8
			S252.9,31.2,253.1,30.1z"/>
		<path class="st1" d="M265.5,30.7l2.2,0.3c-0.3,1.3-1,2.3-1.9,3s-2.1,1.1-3.6,1.1c-1.8,0-3.3-0.6-4.3-1.7s-1.6-2.7-1.6-4.7
			c0-2.1,0.5-3.7,1.6-4.9s2.5-1.7,4.2-1.7c1.7,0,3,0.6,4.1,1.7s1.6,2.7,1.6,4.8c0,0.1,0,0.3,0,0.6h-9.3c0.1,1.4,0.5,2.4,1.2,3.1
			s1.6,1.1,2.6,1.1c0.8,0,1.4-0.2,2-0.6S265.1,31.6,265.5,30.7z M258.5,27.3h6.9c-0.1-1-0.4-1.8-0.8-2.4c-0.7-0.8-1.5-1.2-2.6-1.2
			c-1,0-1.8,0.3-2.4,1S258.6,26.2,258.5,27.3z"/>
		<path class="st1" d="M270.3,34.7V22.2h1.9V24c0.4-0.6,0.9-1.1,1.6-1.5s1.4-0.6,2.2-0.6c0.9,0,1.7,0.2,2.3,0.6s1,0.9,1.2,1.6
			c1-1.5,2.3-2.2,3.8-2.2c1.2,0,2.2,0.3,2.8,1s1,1.7,1,3.2v8.5h-2.1v-7.8c0-0.8-0.1-1.5-0.2-1.8s-0.4-0.7-0.7-0.9s-0.8-0.3-1.3-0.3
			c-0.9,0-1.6,0.3-2.2,0.9s-0.9,1.5-0.9,2.8v7.2h-2.1v-8.1c0-0.9-0.2-1.6-0.5-2.1s-0.9-0.7-1.7-0.7c-0.6,0-1.1,0.2-1.6,0.5
			s-0.9,0.8-1.1,1.4s-0.3,1.5-0.3,2.6v6.5H270.3z"/>
		<path class="st1" d="M292.2,34.7h-2V17.5h2.1v6.1c0.9-1.1,2-1.7,3.4-1.7c0.8,0,1.5,0.2,2.2,0.5s1.2,0.7,1.7,1.3s0.8,1.2,1,2
			s0.4,1.6,0.4,2.5c0,2.1-0.5,3.8-1.6,4.9s-2.3,1.7-3.8,1.7c-1.5,0-2.6-0.6-3.5-1.8V34.7z M292.2,28.4c0,1.5,0.2,2.6,0.6,3.2
			c0.7,1.1,1.6,1.6,2.7,1.6c0.9,0,1.7-0.4,2.4-1.2s1-2,1-3.6c0-1.6-0.3-2.8-1-3.6s-1.4-1.2-2.3-1.2c-0.9,0-1.7,0.4-2.4,1.2
			S292.2,26.9,292.2,28.4z"/>
		<path class="st1" d="M303.6,34.7V22.2h1.9v1.9c0.5-0.9,0.9-1.5,1.3-1.7s0.9-0.4,1.4-0.4c0.7,0,1.4,0.2,2.2,0.7l-0.7,2
			c-0.5-0.3-1-0.5-1.5-0.5c-0.5,0-0.9,0.1-1.2,0.4s-0.6,0.7-0.8,1.2c-0.2,0.8-0.4,1.6-0.4,2.5v6.5H303.6z"/>
		<path class="st1" d="M320.1,30.7l2.2,0.3c-0.3,1.3-1,2.3-1.9,3s-2.1,1.1-3.6,1.1c-1.8,0-3.3-0.6-4.3-1.7s-1.6-2.7-1.6-4.7
			c0-2.1,0.5-3.7,1.6-4.9s2.5-1.7,4.2-1.7c1.7,0,3,0.6,4.1,1.7s1.6,2.7,1.6,4.8c0,0.1,0,0.3,0,0.6h-9.3c0.1,1.4,0.5,2.4,1.2,3.1
			s1.6,1.1,2.6,1.1c0.8,0,1.4-0.2,2-0.6S319.8,31.6,320.1,30.7z M313.2,27.3h6.9c-0.1-1-0.4-1.8-0.8-2.4c-0.7-0.8-1.5-1.2-2.6-1.2
			c-1,0-1.8,0.3-2.4,1S313.3,26.2,313.2,27.3z"/>
		<path class="st1" d="M342.1,32.7v2h-11.4c0-0.5,0.1-1,0.2-1.5c0.3-0.8,0.8-1.5,1.4-2.3s1.6-1.6,2.8-2.6c1.9-1.5,3.1-2.7,3.8-3.6
			s1-1.7,1-2.5c0-0.8-0.3-1.5-0.9-2.1s-1.4-0.9-2.3-0.9c-1,0-1.8,0.3-2.4,0.9s-0.9,1.5-0.9,2.5l-2.2-0.2c0.1-1.6,0.7-2.8,1.7-3.7
			s2.3-1.3,3.9-1.3c1.6,0,3,0.5,3.9,1.4s1.4,2,1.4,3.4c0,0.7-0.1,1.4-0.4,2s-0.7,1.4-1.4,2.1s-1.7,1.7-3.3,3
			c-1.3,1.1-2.1,1.8-2.4,2.2s-0.7,0.8-0.9,1.1H342.1z"/>
		<path class="st1" d="M344.4,26.2c0-2,0.2-3.7,0.6-4.9s1-2.2,1.9-2.9s1.9-1,3.1-1c0.9,0,1.7,0.2,2.4,0.6s1.3,0.9,1.7,1.6
			s0.8,1.6,1.1,2.6s0.4,2.4,0.4,4.1c0,2-0.2,3.6-0.6,4.9s-1,2.2-1.9,2.9s-1.9,1-3.1,1c-1.7,0-3-0.6-3.9-1.8
			C345,31.8,344.4,29.4,344.4,26.2z M346.6,26.2c0,2.8,0.3,4.7,1,5.6s1.5,1.4,2.4,1.4s1.8-0.5,2.4-1.4s1-2.8,1-5.6
			c0-2.8-0.3-4.7-1-5.6s-1.5-1.4-2.5-1.4c-1,0-1.7,0.4-2.3,1.2C346.9,21.5,346.6,23.4,346.6,26.2z"/>
		<path class="st1" d="M368.8,32.7v2h-11.4c0-0.5,0.1-1,0.2-1.5c0.3-0.8,0.8-1.5,1.4-2.3s1.6-1.6,2.8-2.6c1.9-1.5,3.1-2.7,3.8-3.6
			s1-1.7,1-2.5c0-0.8-0.3-1.5-0.9-2.1s-1.4-0.9-2.3-0.9c-1,0-1.8,0.3-2.4,0.9s-0.9,1.5-0.9,2.5l-2.2-0.2c0.1-1.6,0.7-2.8,1.7-3.7
			s2.3-1.3,3.9-1.3c1.6,0,3,0.5,3.9,1.4s1.4,2,1.4,3.4c0,0.7-0.1,1.4-0.4,2s-0.7,1.4-1.4,2.1s-1.7,1.7-3.3,3
			c-1.3,1.1-2.1,1.8-2.4,2.2s-0.7,0.8-0.9,1.1H368.8z"/>
		<path class="st1" d="M371.1,30.1l2.1-0.3c0.2,1.2,0.7,2.1,1.2,2.6s1.3,0.8,2.1,0.8c1,0,1.8-0.3,2.5-1s1-1.5,1-2.6
			c0-1-0.3-1.8-0.9-2.4s-1.4-0.9-2.4-0.9c-0.4,0-0.9,0.1-1.5,0.2l0.2-1.9c0.1,0,0.3,0,0.3,0c0.9,0,1.7-0.2,2.4-0.7s1.1-1.2,1.1-2.2
			c0-0.8-0.3-1.4-0.8-1.9s-1.2-0.8-2-0.8c-0.8,0-1.5,0.3-2.1,0.8s-0.9,1.3-1.1,2.3l-2.1-0.4c0.3-1.4,0.8-2.5,1.8-3.3
			s2.1-1.2,3.4-1.2c0.9,0,1.8,0.2,2.6,0.6s1.4,1,1.8,1.6s0.6,1.4,0.6,2.2c0,0.7-0.2,1.4-0.6,2s-1,1.1-1.8,1.5c1,0.2,1.8,0.7,2.4,1.5
			s0.8,1.7,0.8,2.8c0,1.5-0.5,2.8-1.6,3.8s-2.5,1.6-4.1,1.6c-1.5,0-2.8-0.4-3.8-1.3S371.2,31.6,371.1,30.1z"/>
		<path class="st1" d="M91.6,80.9h9.5c2.1,0,3.8,0.2,4.9,0.5c1.5,0.4,2.8,1.2,3.9,2.4s1.9,2.5,2.5,4.2s0.8,3.7,0.8,6.1
			c0,2.1-0.3,3.9-0.8,5.5c-0.6,1.9-1.6,3.4-2.8,4.6c-0.9,0.9-2.1,1.6-3.7,2.1c-1.1,0.4-2.7,0.5-4.6,0.5h-9.8V80.9z M96.8,85.3v17.1
			h3.9c1.5,0,2.5-0.1,3.1-0.2c0.8-0.2,1.5-0.6,2.1-1.1s1-1.3,1.4-2.5s0.5-2.7,0.5-4.7s-0.2-3.5-0.5-4.6s-0.8-1.9-1.5-2.5
			s-1.4-1-2.4-1.2c-0.7-0.2-2.2-0.2-4.3-0.2H96.8z"/>
		<path class="st1" d="M128.4,100.7l4.9,0.8c-0.6,1.8-1.6,3.2-3,4.1s-3.1,1.4-5.1,1.4c-3.2,0-5.6-1.1-7.2-3.2
			c-1.2-1.7-1.8-3.8-1.8-6.4c0-3.1,0.8-5.5,2.4-7.3s3.7-2.6,6.1-2.6c2.8,0,5,0.9,6.6,2.8s2.4,4.6,2.3,8.4h-12.4
			c0,1.5,0.4,2.6,1.2,3.4s1.7,1.2,2.8,1.2c0.8,0,1.4-0.2,2-0.6S128.1,101.7,128.4,100.7z M128.6,95.8c0-1.4-0.4-2.5-1.1-3.3
			s-1.6-1.1-2.6-1.1c-1.1,0-2,0.4-2.7,1.2s-1,1.9-1,3.2H128.6z M122.3,85.7l2.4-5.3h5.5l-4.8,5.3H122.3z"/>
		<path class="st1" d="M142.7,106.7L135.2,88h5.2l3.5,9.5l1,3.2c0.3-0.8,0.4-1.3,0.5-1.6c0.2-0.5,0.3-1.1,0.5-1.6l3.6-9.5h5.1
			l-7.4,18.7H142.7z"/>
		<path class="st1" d="M168.4,100.7l4.9,0.8c-0.6,1.8-1.6,3.2-3,4.1s-3.1,1.4-5.1,1.4c-3.2,0-5.6-1.1-7.2-3.2
			c-1.2-1.7-1.8-3.8-1.8-6.4c0-3.1,0.8-5.5,2.4-7.3s3.7-2.6,6.1-2.6c2.8,0,5,0.9,6.6,2.8s2.4,4.6,2.3,8.4h-12.4
			c0,1.5,0.4,2.6,1.2,3.4s1.7,1.2,2.8,1.2c0.8,0,1.4-0.2,2-0.6S168.1,101.7,168.4,100.7z M168.7,95.8c0-1.4-0.4-2.5-1.1-3.3
			s-1.6-1.1-2.6-1.1c-1.1,0-2,0.4-2.7,1.2s-1,1.9-1,3.2H168.7z"/>
		<path class="st1" d="M177.6,106.7V80.9h4.9v25.8H177.6z"/>
		<path class="st1" d="M186.5,97.1c0-1.6,0.4-3.2,1.2-4.8s2-2.7,3.4-3.5s3.1-1.2,5-1.2c2.8,0,5.1,0.9,6.9,2.8s2.7,4.2,2.7,7
			c0,2.8-0.9,5.2-2.7,7s-4.1,2.8-6.9,2.8c-1.7,0-3.3-0.4-4.9-1.2s-2.7-1.9-3.5-3.4S186.5,99.2,186.5,97.1z M191.5,97.3
			c0,1.9,0.4,3.3,1.3,4.3s2,1.5,3.3,1.5s2.4-0.5,3.2-1.5s1.3-2.4,1.3-4.3c0-1.8-0.4-3.2-1.3-4.2s-2-1.5-3.2-1.5s-2.4,0.5-3.3,1.5
			S191.5,95.5,191.5,97.3z"/>
		<path class="st1" d="M209.5,88h4.6v2.7c0.6-0.9,1.4-1.7,2.4-2.3s2.2-0.9,3.4-0.9c2.2,0,4,0.8,5.5,2.5s2.3,4.1,2.3,7.1
			c0,3.1-0.8,5.5-2.3,7.3s-3.4,2.6-5.5,2.6c-1,0-2-0.2-2.8-0.6s-1.7-1.1-2.6-2.1v9.4h-4.9V88z M214.4,97c0,2.1,0.4,3.6,1.2,4.6
			s1.8,1.5,3,1.5c1.1,0,2.1-0.5,2.9-1.4s1.1-2.4,1.1-4.5c0-2-0.4-3.4-1.2-4.4s-1.8-1.4-2.9-1.4c-1.2,0-2.2,0.5-3,1.4
			S214.4,95.2,214.4,97z"/>
		<path class="st1" d="M231.5,88h4.6v2.7c0.6-0.9,1.4-1.7,2.4-2.3s2.2-0.9,3.4-0.9c2.2,0,4,0.8,5.5,2.5s2.3,4.1,2.3,7.1
			c0,3.1-0.8,5.5-2.3,7.3s-3.4,2.6-5.5,2.6c-1,0-2-0.2-2.8-0.6s-1.7-1.1-2.6-2.1v9.4h-4.9V88z M236.3,97c0,2.1,0.4,3.6,1.2,4.6
			s1.8,1.5,3,1.5c1.1,0,2.1-0.5,2.9-1.4s1.1-2.4,1.1-4.5c0-2-0.4-3.4-1.2-4.4s-1.8-1.4-2.9-1.4c-1.2,0-2.2,0.5-3,1.4
			S236.3,95.2,236.3,97z"/>
		<path class="st1" d="M264.4,100.7l4.9,0.8c-0.6,1.8-1.6,3.2-3,4.1s-3.1,1.4-5.1,1.4c-3.2,0-5.6-1.1-7.2-3.2
			c-1.2-1.7-1.8-3.8-1.8-6.4c0-3.1,0.8-5.5,2.4-7.3s3.7-2.6,6.1-2.6c2.8,0,5,0.9,6.6,2.8s2.4,4.6,2.3,8.4h-12.4
			c0,1.5,0.4,2.6,1.2,3.4s1.7,1.2,2.8,1.2c0.8,0,1.4-0.2,2-0.6S264.1,101.7,264.4,100.7z M264.7,95.8c0-1.4-0.4-2.5-1.1-3.3
			s-1.6-1.1-2.6-1.1c-1.1,0-2,0.4-2.7,1.2s-1,1.9-1,3.2H264.7z"/>
		<path class="st1" d="M285.9,106.7v-2.8c-0.7,1-1.6,1.8-2.7,2.4s-2.3,0.9-3.5,0.9c-1.3,0-2.4-0.3-3.4-0.8s-1.7-1.3-2.2-2.3
			s-0.7-2.4-0.7-4.1V88h4.9v8.6c0,2.6,0.1,4.2,0.3,4.8s0.5,1.1,1,1.4s1.1,0.5,1.8,0.5c0.8,0,1.6-0.2,2.3-0.7s1.1-1,1.4-1.7
			s0.4-2.4,0.4-5V88h4.9v18.7H285.9z"/>
		<path class="st1" d="M300.3,106.7h-4.9V88h4.6v2.7c0.8-1.3,1.5-2.1,2.1-2.5s1.3-0.6,2.1-0.6c1.1,0,2.2,0.3,3.3,0.9l-1.5,4.3
			c-0.8-0.5-1.6-0.8-2.3-0.8c-0.7,0-1.3,0.2-1.8,0.6s-0.9,1.1-1.1,2.1s-0.4,3.1-0.4,6.3V106.7z"/>
		<path class="st1" d="M39.6,149.9v-25.8h17.7v4.4H44.8v6.1h10.8v4.4H44.8v11H39.6z"/>
		<path class="st1" d="M73.8,149.9v-2.8c-0.7,1-1.6,1.8-2.7,2.4s-2.3,0.9-3.5,0.9c-1.3,0-2.4-0.3-3.4-0.8s-1.7-1.3-2.2-2.3
			s-0.7-2.4-0.7-4.1v-11.8h4.9v8.6c0,2.6,0.1,4.2,0.3,4.8s0.5,1.1,1,1.4s1.1,0.5,1.8,0.5c0.8,0,1.6-0.2,2.3-0.7s1.1-1,1.4-1.7
			s0.4-2.4,0.4-5v-7.9h4.9v18.7H73.8z"/>
		<path class="st1" d="M83.5,149.9v-25.8h4.9v25.8H83.5z"/>
		<path class="st1" d="M93.5,149.9v-25.8h4.9v25.8H93.5z"/>
		<path class="st1" d="M102.2,141.5l5.1-0.5c0.3,1.7,0.9,2.9,1.9,3.7s2.2,1.2,3.8,1.2c1.7,0,2.9-0.4,3.8-1.1s1.3-1.5,1.3-2.5
			c0-0.6-0.2-1.1-0.5-1.6s-1-0.8-1.9-1.1c-0.6-0.2-2-0.6-4.2-1.1c-2.8-0.7-4.7-1.5-5.9-2.5c-1.6-1.4-2.4-3.1-2.4-5.2
			c0-1.3,0.4-2.5,1.1-3.7s1.8-2,3.2-2.6s3.1-0.9,5.1-0.9c3.2,0,5.7,0.7,7.3,2.1s2.5,3.3,2.6,5.7l-5.2,0.2c-0.2-1.3-0.7-2.3-1.4-2.9
			s-1.8-0.9-3.3-0.9c-1.5,0-2.7,0.3-3.6,0.9c-0.6,0.4-0.8,0.9-0.8,1.6c0,0.6,0.3,1.1,0.8,1.6c0.7,0.6,2.2,1.1,4.8,1.7
			s4.4,1.2,5.6,1.9s2.2,1.5,2.8,2.6s1,2.5,1,4.1c0,1.5-0.4,2.9-1.2,4.1s-2,2.2-3.5,2.9s-3.4,0.9-5.6,0.9c-3.3,0-5.8-0.8-7.5-2.3
			S102.6,144.4,102.2,141.5z"/>
		<path class="st1" d="M136.1,131.2v3.9h-3.4v7.5c0,1.5,0,2.4,0.1,2.7s0.2,0.5,0.4,0.6s0.5,0.2,0.8,0.2c0.5,0,1.1-0.2,2-0.5l0.4,3.8
			c-1.1,0.5-2.4,0.7-3.9,0.7c-0.9,0-1.7-0.1-2.4-0.4s-1.2-0.7-1.6-1.2s-0.6-1.1-0.7-1.9c-0.1-0.6-0.2-1.7-0.2-3.5v-8.1h-2.3v-3.9
			h2.3v-3.7l5-2.9v6.6H136.1z"/>
		<path class="st1" d="M143.2,136.9l-4.5-0.8c0.5-1.8,1.4-3.1,2.6-4s3.1-1.3,5.5-1.3c2.2,0,3.8,0.3,4.9,0.8s1.8,1.2,2.3,2
			s0.7,2.3,0.7,4.4l-0.1,5.8c0,1.6,0.1,2.9,0.2,3.6s0.5,1.6,0.9,2.5h-4.9c-0.1-0.3-0.3-0.8-0.5-1.5c-0.1-0.3-0.1-0.5-0.2-0.6
			c-0.8,0.8-1.7,1.4-2.7,1.8s-2,0.6-3.1,0.6c-1.9,0-3.4-0.5-4.5-1.6s-1.7-2.4-1.7-4c0-1.1,0.3-2,0.8-2.8s1.2-1.5,2.1-1.9
			s2.2-0.8,3.9-1.2c2.3-0.4,3.9-0.8,4.8-1.2v-0.5c0-0.9-0.2-1.6-0.7-2s-1.4-0.6-2.7-0.6c-0.9,0-1.6,0.2-2.1,0.5
			S143.5,136,143.2,136.9z M149.8,140.9c-0.6,0.2-1.6,0.5-3,0.8s-2.3,0.6-2.7,0.9c-0.6,0.5-1,1-1,1.7c0,0.7,0.3,1.3,0.8,1.8
			s1.2,0.8,2,0.8c0.9,0,1.7-0.3,2.5-0.9c0.6-0.4,1-1,1.2-1.6c0.1-0.4,0.2-1.2,0.2-2.4V140.9z"/>
		<path class="st1" d="M175.8,136.7l-4.9,0.9c-0.2-1-0.5-1.7-1.1-2.2s-1.3-0.7-2.3-0.7c-1.2,0-2.2,0.4-2.9,1.3s-1.1,2.3-1.1,4.3
			c0,2.2,0.4,3.8,1.1,4.7s1.7,1.4,3,1.4c0.9,0,1.7-0.3,2.3-0.8s1-1.5,1.3-2.8l4.9,0.8c-0.5,2.2-1.5,3.9-2.9,5s-3.3,1.7-5.7,1.7
			c-2.7,0-4.9-0.9-6.5-2.6s-2.4-4.1-2.4-7.2c0-3.1,0.8-5.5,2.4-7.2s3.8-2.6,6.6-2.6c2.3,0,4.1,0.5,5.4,1.5S175.2,134.7,175.8,136.7z
			"/>
		<path class="st1" d="M179.4,149.9v-25.8h4.9v13.7l5.8-6.6h6.1l-6.4,6.8l6.8,11.8h-5.3l-4.7-8.4l-2.3,2.4v6H179.4z"/>
		<path class="st1" d="M209,143v-4.9h9.7v4.9H209z"/>
		<path class="st1" d="M254.9,149.9h-5.7l-2.2-5.9h-10.3l-2.1,5.9H229l10-25.8h5.5L254.9,149.9z M245.3,139.7l-3.6-9.6l-3.5,9.6
			H245.3z"/>
		<path class="st1" d="M257.2,131.2h4.6v2.5c1.6-2,3.6-3,5.8-3c1.2,0,2.2,0.2,3.1,0.7s1.6,1.2,2.2,2.2c0.8-1,1.7-1.7,2.7-2.2
			s2-0.7,3-0.7c1.4,0,2.5,0.3,3.5,0.8s1.7,1.4,2.1,2.5c0.3,0.8,0.5,2.1,0.5,3.9v11.9h-4.9v-10.7c0-1.9-0.2-3-0.5-3.6
			c-0.5-0.7-1.2-1.1-2.1-1.1c-0.7,0-1.3,0.2-2,0.6s-1,1-1.3,1.9s-0.4,2.1-0.4,3.9v9h-4.9v-10.2c0-1.8-0.1-3-0.3-3.5
			s-0.4-0.9-0.8-1.2s-0.9-0.4-1.5-0.4c-0.8,0-1.4,0.2-2.1,0.6s-1,1-1.3,1.8s-0.4,2.1-0.4,3.8v9.1h-4.9V131.2z"/>
		<path class="st1" d="M300.4,143.9l4.9,0.8c-0.6,1.8-1.6,3.2-3,4.1s-3.1,1.4-5.1,1.4c-3.2,0-5.6-1.1-7.2-3.2
			c-1.2-1.7-1.8-3.8-1.8-6.4c0-3.1,0.8-5.5,2.4-7.3s3.7-2.6,6.1-2.6c2.8,0,5,0.9,6.6,2.8s2.4,4.6,2.3,8.4h-12.4
			c0,1.5,0.4,2.6,1.2,3.4s1.7,1.2,2.8,1.2c0.8,0,1.4-0.2,2-0.6S300.1,144.9,300.4,143.9z M300.7,139c0-1.4-0.4-2.5-1.1-3.3
			s-1.6-1.1-2.6-1.1c-1.1,0-2,0.4-2.7,1.2s-1,1.9-1,3.2H300.7z"/>
		<path class="st1" d="M307.2,149.9l6.7-9.6l-6.5-9.1h6l3.3,5.1l3.5-5.1h5.8l-6.3,8.8l6.9,9.8h-6.1l-3.8-5.8l-3.8,5.8H307.2z"/>
		<path class="st1" d="M329.6,128.7v-4.6h4.9v4.6H329.6z M329.6,149.9v-18.7h4.9v18.7H329.6z"/>
		<path class="st1" d="M338.5,140.3c0-1.6,0.4-3.2,1.2-4.8s2-2.7,3.4-3.5s3.1-1.2,5-1.2c2.8,0,5.1,0.9,6.9,2.8s2.7,4.2,2.7,7
			c0,2.8-0.9,5.2-2.7,7s-4.1,2.8-6.9,2.8c-1.7,0-3.3-0.4-4.9-1.2s-2.7-1.9-3.5-3.4S338.5,142.4,338.5,140.3z M343.6,140.5
			c0,1.9,0.4,3.3,1.3,4.3s2,1.5,3.3,1.5s2.4-0.5,3.2-1.5s1.3-2.4,1.3-4.3c0-1.8-0.4-3.2-1.3-4.2s-2-1.5-3.2-1.5s-2.4,0.5-3.3,1.5
			S343.6,138.7,343.6,140.5z"/>
		<path class="st1" d="M9.8,216.7v-2.1h6.5v2.1H9.8z"/>
		<path class="st1" d="M28.1,216.4l2.1-0.2c0.1,0.9,0.3,1.6,0.7,2.1s0.9,1,1.7,1.3s1.7,0.5,2.6,0.5c0.9,0,1.6-0.1,2.3-0.4
			s1.2-0.6,1.5-1.1s0.5-0.9,0.5-1.5c0-0.5-0.2-1-0.5-1.4s-0.8-0.7-1.5-1c-0.5-0.2-1.5-0.5-3.1-0.8s-2.7-0.7-3.3-1.1
			c-0.8-0.4-1.4-1-1.8-1.6s-0.6-1.3-0.6-2.1c0-0.9,0.2-1.7,0.7-2.4s1.2-1.3,2.2-1.7s2-0.6,3.2-0.6c1.3,0,2.4,0.2,3.4,0.6
			s1.7,1,2.2,1.8s0.8,1.7,0.8,2.7l-2.2,0.2c-0.1-1.1-0.5-1.9-1.2-2.5s-1.7-0.8-3-0.8c-1.4,0-2.4,0.3-3,0.8s-0.9,1.1-0.9,1.8
			c0,0.6,0.2,1.1,0.7,1.5c0.4,0.4,1.6,0.8,3.4,1.2s3.1,0.8,3.8,1.1c1,0.5,1.7,1,2.2,1.8s0.7,1.5,0.7,2.4c0,0.9-0.3,1.8-0.8,2.6
			s-1.3,1.4-2.3,1.9s-2.1,0.7-3.3,0.7c-1.6,0-2.9-0.2-3.9-0.7s-1.9-1.1-2.5-2S28.1,217.5,28.1,216.4z"/>
		<path class="st1" d="M44.6,207.1v-2.4h2.1v2.4H44.6z M44.6,221.9v-12.4h2.1v12.4H44.6z"/>
		<path class="st1" d="M49.9,221.9v-12.4h1.9v1.7c0.4-0.6,0.9-1.1,1.6-1.5s1.4-0.6,2.2-0.6c0.9,0,1.7,0.2,2.3,0.6s1,0.9,1.2,1.6
			c1-1.5,2.3-2.2,3.8-2.2c1.2,0,2.2,0.3,2.8,1s1,1.7,1,3.2v8.5h-2.1V214c0-0.8-0.1-1.5-0.2-1.8s-0.4-0.7-0.7-0.9S63,211,62.5,211
			c-0.9,0-1.6,0.3-2.2,0.9s-0.9,1.5-0.9,2.8v7.2h-2.1v-8.1c0-0.9-0.2-1.6-0.5-2.1s-0.9-0.7-1.7-0.7c-0.6,0-1.1,0.2-1.6,0.5
			s-0.9,0.8-1.1,1.4s-0.3,1.5-0.3,2.6v6.5H49.9z"/>
		<path class="st1" d="M69.9,226.7v-17.2h1.9v1.6c0.5-0.6,1-1.1,1.5-1.4s1.3-0.5,2.1-0.5c1.1,0,2,0.3,2.8,0.8s1.4,1.3,1.8,2.3
			s0.6,2.1,0.6,3.3c0,1.3-0.2,2.4-0.7,3.4s-1.1,1.8-2,2.3s-1.8,0.8-2.7,0.8c-0.7,0-1.3-0.1-1.9-0.4s-1-0.7-1.4-1.1v6.1H69.9z
			 M71.8,215.7c0,1.6,0.3,2.8,1,3.6s1.4,1.1,2.4,1.1c0.9,0,1.7-0.4,2.4-1.2s1-2,1-3.7c0-1.6-0.3-2.8-1-3.6s-1.4-1.2-2.3-1.2
			c-0.9,0-1.7,0.4-2.4,1.3S71.8,214.1,71.8,215.7z"/>
		<path class="st1" d="M83.2,221.9v-17.2h2.1v17.2H83.2z"/>
		<path class="st1" d="M88.6,207.1v-2.4h2.1v2.4H88.6z M88.6,221.9v-12.4h2.1v12.4H88.6z"/>
		<path class="st1" d="M94.4,221.9v-10.8h-1.9v-1.6h1.9v-1.3c0-0.8,0.1-1.5,0.2-1.9c0.2-0.5,0.6-1,1.1-1.3s1.2-0.5,2.2-0.5
			c0.6,0,1.2,0.1,2,0.2l-0.3,1.8c-0.4-0.1-0.9-0.1-1.2-0.1c-0.6,0-1.1,0.1-1.4,0.4s-0.4,0.8-0.4,1.5v1.1H99v1.6h-2.4v10.8H94.4z"/>
		<path class="st1" d="M100.6,207.1v-2.4h2.1v2.4H100.6z M100.6,221.9v-12.4h2.1v12.4H100.6z"/>
		<path class="st1" d="M114,217.3l2.1,0.3c-0.2,1.4-0.8,2.5-1.7,3.4s-2.1,1.2-3.4,1.2c-1.7,0-3.1-0.6-4.1-1.7s-1.6-2.7-1.6-4.8
			c0-1.3,0.2-2.5,0.7-3.5s1.1-1.8,2-2.3s1.9-0.8,3-0.8c1.4,0,2.5,0.3,3.3,1s1.4,1.7,1.7,2.9l-2.1,0.3c-0.2-0.8-0.5-1.5-1-1.9
			s-1.1-0.6-1.8-0.6c-1.1,0-1.9,0.4-2.6,1.1s-1,2-1,3.6c0,1.7,0.3,2.9,1,3.6s1.5,1.1,2.5,1.1c0.8,0,1.5-0.3,2.1-0.8
			S113.9,218.4,114,217.3z"/>
		<path class="st1" d="M126,220.3c-0.8,0.7-1.5,1.1-2.3,1.4s-1.5,0.4-2.3,0.4c-1.4,0-2.4-0.3-3.2-1s-1.1-1.5-1.1-2.6
			c0-0.6,0.1-1.2,0.4-1.7s0.6-0.9,1.1-1.2s1-0.5,1.5-0.7c0.4-0.1,1-0.2,1.9-0.3c1.7-0.2,3-0.4,3.8-0.7c0-0.3,0-0.5,0-0.6
			c0-0.9-0.2-1.5-0.6-1.8c-0.5-0.5-1.3-0.7-2.4-0.7c-1,0-1.7,0.2-2.2,0.5s-0.8,1-1,1.8l-2.1-0.3c0.2-0.9,0.5-1.6,0.9-2.1
			s1.1-1,1.9-1.3s1.8-0.4,2.8-0.4c1.1,0,1.9,0.1,2.6,0.4s1.2,0.6,1.5,0.9s0.5,0.9,0.7,1.4c0.1,0.4,0.1,1,0.1,1.9v2.8
			c0,2,0,3.2,0.1,3.7s0.3,1,0.5,1.5h-2.2C126.2,221.4,126.1,220.9,126,220.3z M125.9,215.6c-0.8,0.3-1.9,0.6-3.4,0.8
			c-0.9,0.1-1.5,0.3-1.8,0.4s-0.6,0.4-0.8,0.7s-0.3,0.6-0.3,1c0,0.6,0.2,1,0.6,1.4s1,0.6,1.9,0.6c0.8,0,1.5-0.2,2.2-0.5
			s1.1-0.8,1.4-1.5c0.2-0.5,0.3-1.2,0.3-2.1V215.6z"/>
		<path class="st1" d="M135.9,220l0.3,1.9c-0.6,0.1-1.1,0.2-1.6,0.2c-0.8,0-1.4-0.1-1.8-0.4s-0.7-0.6-0.9-1s-0.3-1.2-0.3-2.5v-7.2
			h-1.5v-1.6h1.5v-3.1l2.1-1.3v4.3h2.1v1.6h-2.1v7.3c0,0.6,0,1,0.1,1.2s0.2,0.3,0.4,0.4s0.4,0.2,0.7,0.2
			C135.2,220.1,135.5,220.1,135.9,220z"/>
		<path class="st1" d="M138,207.1v-2.4h2.1v2.4H138z M138,221.9v-12.4h2.1v12.4H138z"/>
		<path class="st1" d="M142.5,215.7c0-2.3,0.6-4,1.9-5.1c1.1-0.9,2.4-1.4,3.9-1.4c1.7,0,3.1,0.6,4.2,1.7s1.6,2.7,1.6,4.6
			c0,1.6-0.2,2.9-0.7,3.8s-1.2,1.6-2.1,2.1s-1.9,0.8-3,0.8c-1.7,0-3.2-0.6-4.2-1.7S142.5,217.8,142.5,215.7z M144.7,215.7
			c0,1.6,0.3,2.8,1,3.6s1.6,1.2,2.6,1.2c1,0,1.9-0.4,2.6-1.2s1-2,1-3.6c0-1.5-0.3-2.7-1-3.5s-1.6-1.2-2.6-1.2
			c-1.1,0-1.9,0.4-2.6,1.2S144.7,214.1,144.7,215.7z"/>
		<path class="st1" d="M156.6,221.9v-12.4h1.9v1.8c0.9-1.4,2.2-2.1,4-2.1c0.8,0,1.4,0.1,2.1,0.4s1.1,0.6,1.4,1.1s0.5,1,0.7,1.6
			c0.1,0.4,0.1,1.1,0.1,2.1v7.7h-2.1v-7.6c0-0.9-0.1-1.5-0.2-1.9s-0.5-0.8-0.9-1s-0.9-0.4-1.5-0.4c-0.9,0-1.7,0.3-2.3,0.9
			s-1,1.7-1,3.2v6.8H156.6z"/>
		<path class="st1" d="M184.7,221.9v-1.6c-0.8,1.2-1.9,1.9-3.5,1.9c-1,0-1.9-0.3-2.7-0.8s-1.5-1.3-1.9-2.3s-0.7-2.1-0.7-3.4
			c0-1.2,0.2-2.4,0.6-3.4s1-1.8,1.9-2.3s1.8-0.8,2.8-0.8c0.8,0,1.4,0.2,2,0.5s1.1,0.7,1.4,1.2v-6.2h2.1v17.2H184.7z M178,215.7
			c0,1.6,0.3,2.8,1,3.6s1.5,1.2,2.4,1.2c0.9,0,1.7-0.4,2.3-1.1s1-1.9,1-3.5c0-1.7-0.3-3-1-3.8s-1.5-1.2-2.4-1.2
			c-0.9,0-1.7,0.4-2.3,1.1S178,214,178,215.7z"/>
		<path class="st1" d="M198.5,217.9l2.2,0.3c-0.3,1.3-1,2.3-1.9,3s-2.1,1.1-3.6,1.1c-1.8,0-3.3-0.6-4.3-1.7s-1.6-2.7-1.6-4.7
			c0-2.1,0.5-3.7,1.6-4.9s2.5-1.7,4.2-1.7c1.7,0,3,0.6,4.1,1.7s1.6,2.7,1.6,4.8c0,0.1,0,0.3,0,0.6h-9.3c0.1,1.4,0.5,2.4,1.2,3.1
			s1.6,1.1,2.6,1.1c0.8,0,1.4-0.2,2-0.6S198.2,218.8,198.5,217.9z M191.6,214.5h6.9c-0.1-1-0.4-1.8-0.8-2.4
			c-0.7-0.8-1.5-1.2-2.6-1.2c-1,0-1.8,0.3-2.4,1S191.6,213.4,191.6,214.5z"/>
		<path class="st1" d="M218.1,217.3l2.1,0.3c-0.2,1.4-0.8,2.5-1.7,3.4s-2.1,1.2-3.4,1.2c-1.7,0-3.1-0.6-4.1-1.7s-1.6-2.7-1.6-4.8
			c0-1.3,0.2-2.5,0.7-3.5s1.1-1.8,2-2.3s1.9-0.8,3-0.8c1.4,0,2.5,0.3,3.3,1s1.4,1.7,1.7,2.9l-2.1,0.3c-0.2-0.8-0.5-1.5-1-1.9
			s-1.1-0.6-1.8-0.6c-1.1,0-1.9,0.4-2.6,1.1s-1,2-1,3.6c0,1.7,0.3,2.9,1,3.6s1.5,1.1,2.5,1.1c0.8,0,1.5-0.3,2.1-0.8
			S218,218.4,218.1,217.3z"/>
		<path class="st1" d="M221.2,215.7c0-2.3,0.6-4,1.9-5.1c1.1-0.9,2.4-1.4,3.9-1.4c1.7,0,3.1,0.6,4.2,1.7s1.6,2.7,1.6,4.6
			c0,1.6-0.2,2.9-0.7,3.8s-1.2,1.6-2.1,2.1s-1.9,0.8-3,0.8c-1.7,0-3.2-0.6-4.2-1.7S221.2,217.8,221.2,215.7z M223.4,215.7
			c0,1.6,0.3,2.8,1,3.6s1.6,1.2,2.6,1.2c1,0,1.9-0.4,2.6-1.2s1-2,1-3.6c0-1.5-0.3-2.7-1-3.5s-1.6-1.2-2.6-1.2
			c-1.1,0-1.9,0.4-2.6,1.2S223.4,214.1,223.4,215.7z"/>
		<path class="st1" d="M243.4,221.9v-1.6c-0.8,1.2-1.9,1.9-3.5,1.9c-1,0-1.9-0.3-2.7-0.8s-1.5-1.3-1.9-2.3s-0.7-2.1-0.7-3.4
			c0-1.2,0.2-2.4,0.6-3.4s1-1.8,1.9-2.3s1.8-0.8,2.8-0.8c0.8,0,1.4,0.2,2,0.5s1.1,0.7,1.4,1.2v-6.2h2.1v17.2H243.4z M236.8,215.7
			c0,1.6,0.3,2.8,1,3.6s1.5,1.2,2.4,1.2c0.9,0,1.7-0.4,2.3-1.1s1-1.9,1-3.5c0-1.7-0.3-3-1-3.8s-1.5-1.2-2.4-1.2
			c-0.9,0-1.7,0.4-2.3,1.1S236.8,214,236.8,215.7z"/>
		<path class="st1" d="M257.2,217.9l2.2,0.3c-0.3,1.3-1,2.3-1.9,3s-2.1,1.1-3.6,1.1c-1.8,0-3.3-0.6-4.3-1.7s-1.6-2.7-1.6-4.7
			c0-2.1,0.5-3.7,1.6-4.9s2.5-1.7,4.2-1.7c1.7,0,3,0.6,4.1,1.7s1.6,2.7,1.6,4.8c0,0.1,0,0.3,0,0.6h-9.3c0.1,1.4,0.5,2.4,1.2,3.1
			s1.6,1.1,2.6,1.1c0.8,0,1.4-0.2,2-0.6S256.9,218.8,257.2,217.9z M250.3,214.5h6.9c-0.1-1-0.4-1.8-0.8-2.4
			c-0.7-0.8-1.5-1.2-2.6-1.2c-1,0-1.8,0.3-2.4,1S250.4,213.4,250.3,214.5z"/>
		<path class="st1" d="M267.8,217l2.1-0.3c0.1,1.3,0.3,2.2,0.7,2.7s1,0.7,1.8,0.7c0.6,0,1.1-0.1,1.5-0.4s0.7-0.6,0.9-1.1
			s0.2-1.2,0.2-2.2v-11.8h2.3v11.7c0,1.4-0.2,2.6-0.5,3.3s-0.9,1.4-1.7,1.8s-1.6,0.6-2.7,0.6c-1.5,0-2.7-0.4-3.5-1.3
			S267.8,218.7,267.8,217z"/>
		<path class="st1" d="M279.1,221.9l6.6-17.2h2.4l7,17.2h-2.6l-2-5.2h-7.2l-1.9,5.2H279.1z M284.1,214.8h5.8l-1.8-4.8
			c-0.5-1.4-1-2.6-1.2-3.6c-0.2,1.1-0.5,2.2-0.9,3.3L284.1,214.8z"/>
		<path class="st1" d="M301.9,221.9l-6.7-17.2h2.5l4.5,12.5c0.4,1,0.7,1.9,0.9,2.8c0.3-0.9,0.6-1.9,0.9-2.8l4.6-12.5h2.3l-6.7,17.2
			H301.9z"/>
		<path class="st1" d="M311.1,221.9l6.6-17.2h2.4l7,17.2h-2.6l-2-5.2h-7.2l-1.9,5.2H311.1z M316.1,214.8h5.8l-1.8-4.8
			c-0.5-1.4-1-2.6-1.2-3.6c-0.2,1.1-0.5,2.2-0.9,3.3L316.1,214.8z"/>
		<path class="st1" d="M329.3,221.9v-2.4h2.4v2.4c0,0.9-0.2,1.6-0.5,2.1s-0.8,1-1.5,1.3l-0.6-0.9c0.4-0.2,0.8-0.5,1-0.9
			s0.3-0.9,0.4-1.6H329.3z"/>
		<path class="st1" d="M342.1,207.1v-2.4h2.1v2.4H342.1z M342.1,221.9v-12.4h2.1v12.4H342.1z"/>
		<path class="st1" d="M347.4,221.9v-12.4h1.9v1.8c0.9-1.4,2.2-2.1,4-2.1c0.8,0,1.4,0.1,2.1,0.4s1.1,0.6,1.4,1.1s0.5,1,0.7,1.6
			c0.1,0.4,0.1,1.1,0.1,2.1v7.7h-2.1v-7.6c0-0.9-0.1-1.5-0.2-1.9s-0.5-0.8-0.9-1s-0.9-0.4-1.5-0.4c-0.9,0-1.7,0.3-2.3,0.9
			s-1,1.7-1,3.2v6.8H347.4z"/>
		<path class="st1" d="M359.9,218.2l2.1-0.3c0.1,0.8,0.4,1.5,1,1.9s1.3,0.7,2.2,0.7c1,0,1.7-0.2,2.2-0.6s0.7-0.9,0.7-1.4
			c0-0.5-0.2-0.9-0.6-1.1c-0.3-0.2-1-0.4-2.2-0.7c-1.5-0.4-2.6-0.7-3.2-1s-1.1-0.7-1.4-1.2s-0.5-1.1-0.5-1.7c0-0.6,0.1-1.1,0.4-1.5
			s0.6-0.9,1-1.2c0.3-0.2,0.8-0.4,1.3-0.6s1.2-0.3,1.8-0.3c1,0,1.8,0.1,2.6,0.4s1.3,0.7,1.6,1.1s0.6,1.1,0.7,1.9l-2.1,0.3
			c-0.1-0.6-0.4-1.1-0.8-1.5s-1.1-0.5-1.9-0.5c-1,0-1.7,0.2-2.1,0.5s-0.6,0.7-0.6,1.1c0,0.3,0.1,0.5,0.3,0.7
			c0.2,0.2,0.4,0.4,0.8,0.6c0.2,0.1,0.8,0.3,1.9,0.5c1.5,0.4,2.5,0.7,3.1,1s1.1,0.6,1.4,1.1s0.5,1.1,0.5,1.8c0,0.7-0.2,1.4-0.6,2
			s-1,1.1-1.8,1.4s-1.6,0.5-2.6,0.5c-1.6,0-2.8-0.3-3.7-1S360.1,219.5,359.9,218.2z"/>
		<path class="st1" d="M371.9,216.7v-2.1h6.5v2.1H371.9z"/>
		<path class="st1" d="M33.2,248.8l0.3,1.9c-0.6,0.1-1.1,0.2-1.6,0.2c-0.8,0-1.4-0.1-1.8-0.4s-0.7-0.6-0.9-1S29,248.3,29,247v-7.2
			h-1.5v-1.6H29v-3.1l2.1-1.3v4.3h2.1v1.6h-2.1v7.3c0,0.6,0,1,0.1,1.2s0.2,0.3,0.4,0.4s0.4,0.2,0.7,0.2
			C32.5,248.9,32.8,248.9,33.2,248.8z"/>
		<path class="st1" d="M43.4,249.1c-0.8,0.7-1.5,1.1-2.3,1.4s-1.5,0.4-2.3,0.4c-1.4,0-2.4-0.3-3.2-1s-1.1-1.5-1.1-2.6
			c0-0.6,0.1-1.2,0.4-1.7s0.6-0.9,1.1-1.2s1-0.5,1.5-0.7c0.4-0.1,1-0.2,1.9-0.3c1.7-0.2,3-0.4,3.8-0.7c0-0.3,0-0.5,0-0.6
			c0-0.9-0.2-1.5-0.6-1.8c-0.5-0.5-1.3-0.7-2.4-0.7c-1,0-1.7,0.2-2.2,0.5s-0.8,1-1,1.8l-2.1-0.3c0.2-0.9,0.5-1.6,0.9-2.1
			s1.1-1,1.9-1.3s1.8-0.4,2.8-0.4c1.1,0,1.9,0.1,2.6,0.4s1.2,0.6,1.5,0.9s0.5,0.9,0.7,1.4c0.1,0.4,0.1,1,0.1,1.9v2.8
			c0,2,0,3.2,0.1,3.7s0.3,1,0.5,1.5h-2.2C43.6,250.2,43.4,249.7,43.4,249.1z M43.2,244.4c-0.8,0.3-1.9,0.6-3.4,0.8
			c-0.9,0.1-1.5,0.3-1.8,0.4s-0.6,0.4-0.8,0.7s-0.3,0.6-0.3,1c0,0.6,0.2,1,0.6,1.4s1,0.6,1.9,0.6c0.8,0,1.5-0.2,2.2-0.5
			s1.1-0.8,1.4-1.5c0.2-0.5,0.3-1.2,0.3-2.1V244.4z"/>
		<path class="st1" d="M48.6,250.7v-17.2h2.1v17.2H48.6z"/>
		<path class="st1" d="M53.9,250.7v-17.2H56v17.2H53.9z"/>
		<path class="st1" d="M67.4,249.1c-0.8,0.7-1.5,1.1-2.3,1.4s-1.5,0.4-2.3,0.4c-1.4,0-2.4-0.3-3.2-1s-1.1-1.5-1.1-2.6
			c0-0.6,0.1-1.2,0.4-1.7s0.6-0.9,1.1-1.2s1-0.5,1.5-0.7c0.4-0.1,1-0.2,1.9-0.3c1.7-0.2,3-0.4,3.8-0.7c0-0.3,0-0.5,0-0.6
			c0-0.9-0.2-1.5-0.6-1.8c-0.5-0.5-1.3-0.7-2.4-0.7c-1,0-1.7,0.2-2.2,0.5s-0.8,1-1,1.8l-2.1-0.3c0.2-0.9,0.5-1.6,0.9-2.1
			s1.1-1,1.9-1.3s1.8-0.4,2.8-0.4c1.1,0,1.9,0.1,2.6,0.4s1.2,0.6,1.5,0.9s0.5,0.9,0.7,1.4c0.1,0.4,0.1,1,0.1,1.9v2.8
			c0,2,0,3.2,0.1,3.7s0.3,1,0.5,1.5h-2.2C67.6,250.2,67.4,249.7,67.4,249.1z M67.2,244.4c-0.8,0.3-1.9,0.6-3.4,0.8
			c-0.9,0.1-1.5,0.3-1.8,0.4s-0.6,0.4-0.8,0.7s-0.3,0.6-0.3,1c0,0.6,0.2,1,0.6,1.4s1,0.6,1.9,0.6c0.8,0,1.5-0.2,2.2-0.5
			s1.1-0.8,1.4-1.5c0.2-0.5,0.3-1.2,0.3-2.1V244.4z"/>
		<path class="st1" d="M77.2,248.8l0.3,1.9c-0.6,0.1-1.1,0.2-1.6,0.2c-0.8,0-1.4-0.1-1.8-0.4s-0.7-0.6-0.9-1S73,248.3,73,247v-7.2
			h-1.5v-1.6H73v-3.1l2.1-1.3v4.3h2.1v1.6h-2.1v7.3c0,0.6,0,1,0.1,1.2s0.2,0.3,0.4,0.4s0.4,0.2,0.7,0.2
			C76.5,248.9,76.8,248.9,77.2,248.8z"/>
		<path class="st1" d="M79.3,235.9v-2.4h2.1v2.4H79.3z M79.3,250.7v-12.4h2.1v12.4H79.3z"/>
		<path class="st1" d="M83.8,244.5c0-2.3,0.6-4,1.9-5.1c1.1-0.9,2.4-1.4,3.9-1.4c1.7,0,3.1,0.6,4.2,1.7s1.6,2.7,1.6,4.6
			c0,1.6-0.2,2.9-0.7,3.8s-1.2,1.6-2.1,2.1s-1.9,0.8-3,0.8c-1.7,0-3.2-0.6-4.2-1.7S83.8,246.6,83.8,244.5z M86,244.5
			c0,1.6,0.3,2.8,1,3.6s1.6,1.2,2.6,1.2c1,0,1.9-0.4,2.6-1.2s1-2,1-3.6c0-1.5-0.3-2.7-1-3.5s-1.6-1.2-2.6-1.2
			c-1.1,0-1.9,0.4-2.6,1.2S86,242.9,86,244.5z"/>
		<path class="st1" d="M98,250.7v-12.4h1.9v1.8c0.9-1.4,2.2-2.1,4-2.1c0.8,0,1.4,0.1,2.1,0.4s1.1,0.6,1.4,1.1s0.5,1,0.7,1.6
			c0.1,0.4,0.1,1.1,0.1,2.1v7.7H106v-7.6c0-0.9-0.1-1.5-0.2-1.9s-0.5-0.8-0.9-1s-0.9-0.4-1.5-0.4c-0.9,0-1.7,0.3-2.3,0.9
			s-1,1.7-1,3.2v6.8H98z"/>
		<path class="st1" d="M126,250.7v-1.6c-0.8,1.2-1.9,1.9-3.5,1.9c-1,0-1.9-0.3-2.7-0.8s-1.5-1.3-1.9-2.3s-0.7-2.1-0.7-3.4
			c0-1.2,0.2-2.4,0.6-3.4s1-1.8,1.9-2.3s1.8-0.8,2.8-0.8c0.8,0,1.4,0.2,2,0.5s1.1,0.7,1.4,1.2v-6.2h2.1v17.2H126z M119.4,244.5
			c0,1.6,0.3,2.8,1,3.6s1.5,1.2,2.4,1.2c0.9,0,1.7-0.4,2.3-1.1s1-1.9,1-3.5c0-1.7-0.3-3-1-3.8s-1.5-1.2-2.4-1.2
			c-0.9,0-1.7,0.4-2.3,1.1S119.4,242.8,119.4,244.5z"/>
		<path class="st1" d="M131.2,235.8v-2.4h2.3v1.9c0,1-0.1,1.8-0.4,2.3c-0.3,0.6-0.9,1.1-1.6,1.4l-0.5-0.8c0.4-0.2,0.7-0.4,0.9-0.8
			s0.3-0.9,0.3-1.5H131.2z"/>
		<path class="st1" d="M145.2,246.7l2.2,0.3c-0.3,1.3-1,2.3-1.9,3s-2.1,1.1-3.6,1.1c-1.8,0-3.3-0.6-4.3-1.7s-1.6-2.7-1.6-4.7
			c0-2.1,0.5-3.7,1.6-4.9s2.5-1.7,4.2-1.7c1.7,0,3,0.6,4.1,1.7s1.6,2.7,1.6,4.8c0,0.1,0,0.3,0,0.6h-9.3c0.1,1.4,0.5,2.4,1.2,3.1
			s1.6,1.1,2.6,1.1c0.8,0,1.4-0.2,2-0.6S144.9,247.6,145.2,246.7z M138.2,243.3h6.9c-0.1-1-0.4-1.8-0.8-2.4
			c-0.7-0.8-1.5-1.2-2.6-1.2c-1,0-1.8,0.3-2.4,1S138.3,242.2,138.2,243.3z"/>
		<path class="st1" d="M150,250.7v-12.4h1.9v1.8c0.9-1.4,2.2-2.1,4-2.1c0.8,0,1.4,0.1,2.1,0.4s1.1,0.6,1.4,1.1s0.5,1,0.7,1.6
			c0.1,0.4,0.1,1.1,0.1,2.1v7.7H158v-7.6c0-0.9-0.1-1.5-0.2-1.9s-0.5-0.8-0.9-1s-0.9-0.4-1.5-0.4c-0.9,0-1.7,0.3-2.3,0.9
			s-1,1.7-1,3.2v6.8H150z"/>
		<path class="st1" d="M166.8,250.7l-4.7-12.4h2.2l2.7,7.5c0.3,0.8,0.6,1.6,0.8,2.5c0.2-0.7,0.4-1.4,0.8-2.4l2.8-7.6h2.2l-4.7,12.4
			H166.8z"/>
		<path class="st1" d="M175.4,235.9v-2.4h2.1v2.4H175.4z M175.4,250.7v-12.4h2.1v12.4H175.4z"/>
		<path class="st1" d="M180.7,250.7v-12.4h1.9v1.9c0.5-0.9,0.9-1.5,1.3-1.7s0.9-0.4,1.4-0.4c0.7,0,1.4,0.2,2.2,0.7l-0.7,2
			c-0.5-0.3-1-0.5-1.5-0.5c-0.5,0-0.9,0.1-1.2,0.4s-0.6,0.7-0.8,1.2c-0.2,0.8-0.4,1.6-0.4,2.5v6.5H180.7z"/>
		<path class="st1" d="M187.9,244.5c0-2.3,0.6-4,1.9-5.1c1.1-0.9,2.4-1.4,3.9-1.4c1.7,0,3.1,0.6,4.2,1.7s1.6,2.7,1.6,4.6
			c0,1.6-0.2,2.9-0.7,3.8s-1.2,1.6-2.1,2.1s-1.9,0.8-3,0.8c-1.7,0-3.2-0.6-4.2-1.7S187.9,246.6,187.9,244.5z M190.1,244.5
			c0,1.6,0.3,2.8,1,3.6s1.6,1.2,2.6,1.2c1,0,1.9-0.4,2.6-1.2s1-2,1-3.6c0-1.5-0.3-2.7-1-3.5s-1.6-1.2-2.6-1.2
			c-1.1,0-1.9,0.4-2.6,1.2S190.1,242.9,190.1,244.5z"/>
		<path class="st1" d="M202,250.7v-12.4h1.9v1.8c0.9-1.4,2.2-2.1,4-2.1c0.8,0,1.4,0.1,2.1,0.4s1.1,0.6,1.4,1.1s0.5,1,0.7,1.6
			c0.1,0.4,0.1,1.1,0.1,2.1v7.7H210v-7.6c0-0.9-0.1-1.5-0.2-1.9s-0.5-0.8-0.9-1s-0.9-0.4-1.5-0.4c-0.9,0-1.7,0.3-2.3,0.9
			s-1,1.7-1,3.2v6.8H202z"/>
		<path class="st1" d="M223.9,246.7l2.2,0.3c-0.3,1.3-1,2.3-1.9,3s-2.1,1.1-3.6,1.1c-1.8,0-3.3-0.6-4.3-1.7s-1.6-2.7-1.6-4.7
			c0-2.1,0.5-3.7,1.6-4.9s2.5-1.7,4.2-1.7c1.7,0,3,0.6,4.1,1.7s1.6,2.7,1.6,4.8c0,0.1,0,0.3,0,0.6h-9.3c0.1,1.4,0.5,2.4,1.2,3.1
			s1.6,1.1,2.6,1.1c0.8,0,1.4-0.2,2-0.6S223.6,247.6,223.9,246.7z M217,243.3h6.9c-0.1-1-0.4-1.8-0.8-2.4c-0.7-0.8-1.5-1.2-2.6-1.2
			c-1,0-1.8,0.3-2.4,1S217,242.2,217,243.3z"/>
		<path class="st1" d="M228.7,250.7v-12.4h1.9v1.7c0.4-0.6,0.9-1.1,1.6-1.5s1.4-0.6,2.2-0.6c0.9,0,1.7,0.2,2.3,0.6s1,0.9,1.2,1.6
			c1-1.5,2.3-2.2,3.8-2.2c1.2,0,2.2,0.3,2.8,1s1,1.7,1,3.2v8.5h-2.1v-7.8c0-0.8-0.1-1.5-0.2-1.8s-0.4-0.7-0.7-0.9s-0.8-0.3-1.3-0.3
			c-0.9,0-1.6,0.3-2.2,0.9s-0.9,1.5-0.9,2.8v7.2h-2.1v-8.1c0-0.9-0.2-1.6-0.5-2.1s-0.9-0.7-1.7-0.7c-0.6,0-1.1,0.2-1.6,0.5
			s-0.9,0.8-1.1,1.4s-0.3,1.5-0.3,2.6v6.5H228.7z"/>
		<path class="st1" d="M257.2,246.7l2.2,0.3c-0.3,1.3-1,2.3-1.9,3s-2.1,1.1-3.6,1.1c-1.8,0-3.3-0.6-4.3-1.7s-1.6-2.7-1.6-4.7
			c0-2.1,0.5-3.7,1.6-4.9s2.5-1.7,4.2-1.7c1.7,0,3,0.6,4.1,1.7s1.6,2.7,1.6,4.8c0,0.1,0,0.3,0,0.6h-9.3c0.1,1.4,0.5,2.4,1.2,3.1
			s1.6,1.1,2.6,1.1c0.8,0,1.4-0.2,2-0.6S256.9,247.6,257.2,246.7z M250.3,243.3h6.9c-0.1-1-0.4-1.8-0.8-2.4
			c-0.7-0.8-1.5-1.2-2.6-1.2c-1,0-1.8,0.3-2.4,1S250.4,242.2,250.3,243.3z"/>
		<path class="st1" d="M262.1,250.7v-12.4h1.9v1.8c0.9-1.4,2.2-2.1,4-2.1c0.8,0,1.4,0.1,2.1,0.4s1.1,0.6,1.4,1.1s0.5,1,0.7,1.6
			c0.1,0.4,0.1,1.1,0.1,2.1v7.7h-2.1v-7.6c0-0.9-0.1-1.5-0.2-1.9s-0.5-0.8-0.9-1s-0.9-0.4-1.5-0.4c-0.9,0-1.7,0.3-2.3,0.9
			s-1,1.7-1,3.2v6.8H262.1z"/>
		<path class="st1" d="M280,248.8l0.3,1.9c-0.6,0.1-1.1,0.2-1.6,0.2c-0.8,0-1.4-0.1-1.8-0.4s-0.7-0.6-0.9-1s-0.3-1.2-0.3-2.5v-7.2
			h-1.5v-1.6h1.5v-3.1l2.1-1.3v4.3h2.1v1.6h-2.1v7.3c0,0.6,0,1,0.1,1.2s0.2,0.3,0.4,0.4s0.4,0.2,0.7,0.2
			C279.3,248.9,279.6,248.9,280,248.8z"/>
		<path class="st1" d="M281.2,247l2.1-0.3c0.1,0.8,0.4,1.5,1,1.9s1.3,0.7,2.2,0.7c1,0,1.7-0.2,2.2-0.6s0.7-0.9,0.7-1.4
			c0-0.5-0.2-0.9-0.6-1.1c-0.3-0.2-1-0.4-2.2-0.7c-1.5-0.4-2.6-0.7-3.2-1s-1.1-0.7-1.4-1.2s-0.5-1.1-0.5-1.7c0-0.6,0.1-1.1,0.4-1.5
			s0.6-0.9,1-1.2c0.3-0.2,0.8-0.4,1.3-0.6s1.2-0.3,1.8-0.3c1,0,1.8,0.1,2.6,0.4s1.3,0.7,1.6,1.1s0.6,1.1,0.7,1.9l-2.1,0.3
			c-0.1-0.6-0.4-1.1-0.8-1.5s-1.1-0.5-1.9-0.5c-1,0-1.7,0.2-2.1,0.5s-0.6,0.7-0.6,1.1c0,0.3,0.1,0.5,0.3,0.7
			c0.2,0.2,0.4,0.4,0.8,0.6c0.2,0.1,0.8,0.3,1.9,0.5c1.5,0.4,2.5,0.7,3.1,1s1.1,0.6,1.4,1.1s0.5,1.1,0.5,1.8c0,0.7-0.2,1.4-0.6,2
			s-1,1.1-1.8,1.4s-1.6,0.5-2.6,0.5c-1.6,0-2.8-0.3-3.7-1S281.5,248.3,281.2,247z"/>
		<path class="st1" d="M308.8,250.7v-1.6c-0.8,1.2-1.9,1.9-3.5,1.9c-1,0-1.9-0.3-2.7-0.8s-1.5-1.3-1.9-2.3s-0.7-2.1-0.7-3.4
			c0-1.2,0.2-2.4,0.6-3.4s1-1.8,1.9-2.3s1.8-0.8,2.8-0.8c0.8,0,1.4,0.2,2,0.5s1.1,0.7,1.4,1.2v-6.2h2.1v17.2H308.8z M302.1,244.5
			c0,1.6,0.3,2.8,1,3.6s1.5,1.2,2.4,1.2c0.9,0,1.7-0.4,2.3-1.1s1-1.9,1-3.5c0-1.7-0.3-3-1-3.8s-1.5-1.2-2.4-1.2
			c-0.9,0-1.7,0.4-2.3,1.1S302.1,242.8,302.1,244.5z"/>
		<path class="st1" d="M322.6,246.7l2.2,0.3c-0.3,1.3-1,2.3-1.9,3s-2.1,1.1-3.6,1.1c-1.8,0-3.3-0.6-4.3-1.7s-1.6-2.7-1.6-4.7
			c0-2.1,0.5-3.7,1.6-4.9s2.5-1.7,4.2-1.7c1.7,0,3,0.6,4.1,1.7s1.6,2.7,1.6,4.8c0,0.1,0,0.3,0,0.6h-9.3c0.1,1.4,0.5,2.4,1.2,3.1
			s1.6,1.1,2.6,1.1c0.8,0,1.4-0.2,2-0.6S322.3,247.6,322.6,246.7z M315.7,243.3h6.9c-0.1-1-0.4-1.8-0.8-2.4
			c-0.7-0.8-1.5-1.2-2.6-1.2c-1,0-1.8,0.3-2.4,1S315.8,242.2,315.7,243.3z"/>
		<path class="st1" d="M342.2,250.7v-1.6c-0.8,1.2-1.9,1.9-3.5,1.9c-1,0-1.9-0.3-2.7-0.8s-1.5-1.3-1.9-2.3s-0.7-2.1-0.7-3.4
			c0-1.2,0.2-2.4,0.6-3.4s1-1.8,1.9-2.3s1.8-0.8,2.8-0.8c0.8,0,1.4,0.2,2,0.5s1.1,0.7,1.4,1.2v-6.2h2.1v17.2H342.2z M335.5,244.5
			c0,1.6,0.3,2.8,1,3.6s1.5,1.2,2.4,1.2c0.9,0,1.7-0.4,2.3-1.1s1-1.9,1-3.5c0-1.7-0.3-3-1-3.8s-1.5-1.2-2.4-1.2
			c-0.9,0-1.7,0.4-2.3,1.1S335.5,242.8,335.5,244.5z"/>
		<path class="st1" d="M356,246.7l2.2,0.3c-0.3,1.3-1,2.3-1.9,3s-2.1,1.1-3.6,1.1c-1.8,0-3.3-0.6-4.3-1.7s-1.6-2.7-1.6-4.7
			c0-2.1,0.5-3.7,1.6-4.9s2.5-1.7,4.2-1.7c1.7,0,3,0.6,4.1,1.7s1.6,2.7,1.6,4.8c0,0.1,0,0.3,0,0.6h-9.3c0.1,1.4,0.5,2.4,1.2,3.1
			s1.6,1.1,2.6,1.1c0.8,0,1.4-0.2,2-0.6S355.6,247.6,356,246.7z M349,243.3h6.9c-0.1-1-0.4-1.8-0.8-2.4c-0.7-0.8-1.5-1.2-2.6-1.2
			c-1,0-1.8,0.3-2.4,1S349.1,242.2,349,243.3z M351.3,236.7l1.6-3.3h2.8l-2.6,3.3H351.3z"/>
		<path class="st1" d="M360,245.5v-2.1h6.5v2.1H360z"/>
		<path class="st1" d="M32,279.5L27.3,267h2.2l2.7,7.5c0.3,0.8,0.6,1.6,0.8,2.5c0.2-0.7,0.4-1.4,0.8-2.4l2.8-7.6h2.2L34,279.5H32z"
			/>
		<path class="st1" d="M49.1,275.5l2.2,0.3c-0.3,1.3-1,2.3-1.9,3s-2.1,1.1-3.6,1.1c-1.8,0-3.3-0.6-4.3-1.7s-1.6-2.7-1.6-4.7
			c0-2.1,0.5-3.7,1.6-4.9s2.5-1.7,4.2-1.7c1.7,0,3,0.6,4.1,1.7s1.6,2.7,1.6,4.8c0,0.1,0,0.3,0,0.6h-9.3c0.1,1.4,0.5,2.4,1.2,3.1
			s1.6,1.1,2.6,1.1c0.8,0,1.4-0.2,2-0.6S48.8,276.4,49.1,275.5z M42.2,272.1h6.9c-0.1-1-0.4-1.8-0.8-2.4c-0.7-0.8-1.5-1.2-2.6-1.2
			c-1,0-1.8,0.3-2.4,1S42.2,271,42.2,272.1z"/>
		<path class="st1" d="M53.9,279.5v-17.2H56v17.2H53.9z"/>
		<path class="st1" d="M58.5,273.3c0-2.3,0.6-4,1.9-5.1c1.1-0.9,2.4-1.4,3.9-1.4c1.7,0,3.1,0.6,4.2,1.7s1.6,2.7,1.6,4.6
			c0,1.6-0.2,2.9-0.7,3.8s-1.2,1.6-2.1,2.1s-1.9,0.8-3,0.8c-1.7,0-3.2-0.6-4.2-1.7S58.5,275.4,58.5,273.3z M60.6,273.3
			c0,1.6,0.3,2.8,1,3.6s1.6,1.2,2.6,1.2c1,0,1.9-0.4,2.6-1.2s1-2,1-3.6c0-1.5-0.3-2.7-1-3.5s-1.6-1.2-2.6-1.2
			c-1.1,0-1.9,0.4-2.6,1.2S60.6,271.7,60.6,273.3z"/>
		<path class="st1" d="M72.6,284.3V267h1.9v1.6c0.5-0.6,1-1.1,1.5-1.4s1.3-0.5,2.1-0.5c1.1,0,2,0.3,2.8,0.8s1.4,1.3,1.8,2.3
			s0.6,2.1,0.6,3.3c0,1.3-0.2,2.4-0.7,3.4s-1.1,1.8-2,2.3s-1.8,0.8-2.7,0.8c-0.7,0-1.3-0.1-1.9-0.4s-1-0.7-1.4-1.1v6.1H72.6z
			 M74.5,273.3c0,1.6,0.3,2.8,1,3.6s1.4,1.1,2.4,1.1c0.9,0,1.7-0.4,2.4-1.2s1-2,1-3.7c0-1.6-0.3-2.8-1-3.6s-1.4-1.2-2.3-1.2
			c-0.9,0-1.7,0.4-2.4,1.3S74.5,271.7,74.5,273.3z"/>
		<path class="st1" d="M86,284.3V267h1.9v1.6c0.5-0.6,1-1.1,1.5-1.4s1.3-0.5,2.1-0.5c1.1,0,2,0.3,2.8,0.8s1.4,1.3,1.8,2.3
			s0.6,2.1,0.6,3.3c0,1.3-0.2,2.4-0.7,3.4s-1.1,1.8-2,2.3s-1.8,0.8-2.7,0.8c-0.7,0-1.3-0.1-1.9-0.4s-1-0.7-1.4-1.1v6.1H86z
			 M87.9,273.3c0,1.6,0.3,2.8,1,3.6s1.4,1.1,2.4,1.1c0.9,0,1.7-0.4,2.4-1.2s1-2,1-3.7c0-1.6-0.3-2.8-1-3.6s-1.4-1.2-2.3-1.2
			c-0.9,0-1.7,0.4-2.4,1.3S87.9,271.7,87.9,273.3z"/>
		<path class="st1" d="M107.8,275.5l2.2,0.3c-0.3,1.3-1,2.3-1.9,3s-2.1,1.1-3.6,1.1c-1.8,0-3.3-0.6-4.3-1.7s-1.6-2.7-1.6-4.7
			c0-2.1,0.5-3.7,1.6-4.9s2.5-1.7,4.2-1.7c1.7,0,3,0.6,4.1,1.7s1.6,2.7,1.6,4.8c0,0.1,0,0.3,0,0.6h-9.3c0.1,1.4,0.5,2.4,1.2,3.1
			s1.6,1.1,2.6,1.1c0.8,0,1.4-0.2,2-0.6S107.5,276.4,107.8,275.5z M100.9,272.1h6.9c-0.1-1-0.4-1.8-0.8-2.4
			c-0.7-0.8-1.5-1.2-2.6-1.2c-1,0-1.8,0.3-2.4,1S101,271,100.9,272.1z"/>
		<path class="st1" d="M112.7,279.5V267h1.9v1.7c0.4-0.6,0.9-1.1,1.6-1.5s1.4-0.6,2.2-0.6c0.9,0,1.7,0.2,2.3,0.6s1,0.9,1.2,1.6
			c1-1.5,2.3-2.2,3.8-2.2c1.2,0,2.2,0.3,2.8,1s1,1.7,1,3.2v8.5h-2.1v-7.8c0-0.8-0.1-1.5-0.2-1.8s-0.4-0.7-0.7-0.9s-0.8-0.3-1.3-0.3
			c-0.9,0-1.6,0.3-2.2,0.9s-0.9,1.5-0.9,2.8v7.2H120v-8.1c0-0.9-0.2-1.6-0.5-2.1s-0.9-0.7-1.7-0.7c-0.6,0-1.1,0.2-1.6,0.5
			s-0.9,0.8-1.1,1.4s-0.3,1.5-0.3,2.6v6.5H112.7z"/>
		<path class="st1" d="M141.2,275.5l2.2,0.3c-0.3,1.3-1,2.3-1.9,3s-2.1,1.1-3.6,1.1c-1.8,0-3.3-0.6-4.3-1.7s-1.6-2.7-1.6-4.7
			c0-2.1,0.5-3.7,1.6-4.9s2.5-1.7,4.2-1.7c1.7,0,3,0.6,4.1,1.7s1.6,2.7,1.6,4.8c0,0.1,0,0.3,0,0.6h-9.3c0.1,1.4,0.5,2.4,1.2,3.1
			s1.6,1.1,2.6,1.1c0.8,0,1.4-0.2,2-0.6S140.8,276.4,141.2,275.5z M134.2,272.1h6.9c-0.1-1-0.4-1.8-0.8-2.4
			c-0.7-0.8-1.5-1.2-2.6-1.2c-1,0-1.8,0.3-2.4,1S134.3,271,134.2,272.1z"/>
		<path class="st1" d="M146,279.5V267h1.9v1.8c0.9-1.4,2.2-2.1,4-2.1c0.8,0,1.4,0.1,2.1,0.4s1.1,0.6,1.4,1.1s0.5,1,0.7,1.6
			c0.1,0.4,0.1,1.1,0.1,2.1v7.7H154v-7.6c0-0.9-0.1-1.5-0.2-1.9s-0.5-0.8-0.9-1s-0.9-0.4-1.5-0.4c-0.9,0-1.7,0.3-2.3,0.9
			s-1,1.7-1,3.2v6.8H146z"/>
		<path class="st1" d="M163.9,277.6l0.3,1.9c-0.6,0.1-1.1,0.2-1.6,0.2c-0.8,0-1.4-0.1-1.8-0.4s-0.7-0.6-0.9-1s-0.3-1.2-0.3-2.5v-7.2
			h-1.5V267h1.5V264l2.1-1.3v4.3h2.1v1.6h-2.1v7.3c0,0.6,0,1,0.1,1.2s0.2,0.3,0.4,0.4s0.4,0.2,0.7,0.2
			C163.3,277.7,163.6,277.7,163.9,277.6z"/>
		<path class="st1" d="M166.6,279.5v-2.4h2.4v2.4H166.6z"/>
		<path class="st1" d="M9.8,303.1V301h6.5v2.1H9.8z"/>
		<path class="st1" d="M28.9,308.3v-17.2h5.9c1.3,0,2.4,0.1,3.1,0.2c1,0.2,1.8,0.6,2.5,1.2c0.9,0.8,1.6,1.7,2,2.9s0.7,2.6,0.7,4.1
			c0,1.3-0.2,2.5-0.5,3.5s-0.7,1.8-1.2,2.5s-1,1.2-1.6,1.6s-1.2,0.7-2.1,0.9s-1.7,0.3-2.8,0.3H28.9z M31.1,306.3h3.7
			c1.1,0,2-0.1,2.7-0.3s1.2-0.5,1.5-0.9c0.5-0.5,1-1.3,1.3-2.2s0.5-2,0.5-3.3c0-1.8-0.3-3.2-0.9-4.1s-1.3-1.6-2.2-1.9
			c-0.6-0.2-1.6-0.4-2.9-0.4h-3.6V306.3z"/>
		<path class="st1" d="M45.1,302.1c0-2.3,0.6-4,1.9-5.1c1.1-0.9,2.4-1.4,3.9-1.4c1.7,0,3.1,0.6,4.2,1.7s1.6,2.7,1.6,4.6
			c0,1.6-0.2,2.9-0.7,3.8s-1.2,1.6-2.1,2.1s-1.9,0.8-3,0.8c-1.7,0-3.2-0.6-4.2-1.7S45.1,304.2,45.1,302.1z M47.3,302.1
			c0,1.6,0.3,2.8,1,3.6s1.6,1.2,2.6,1.2c1,0,1.9-0.4,2.6-1.2s1-2,1-3.6c0-1.5-0.3-2.7-1-3.5s-1.6-1.2-2.6-1.2
			c-1.1,0-1.9,0.4-2.6,1.2S47.3,300.5,47.3,302.1z"/>
		<path class="st1" d="M67.4,303.7l2.1,0.3c-0.2,1.4-0.8,2.5-1.7,3.4s-2.1,1.2-3.4,1.2c-1.7,0-3.1-0.6-4.1-1.7s-1.6-2.7-1.6-4.8
			c0-1.3,0.2-2.5,0.7-3.5s1.1-1.8,2-2.3s1.9-0.8,3-0.8c1.4,0,2.5,0.3,3.3,1s1.4,1.7,1.7,2.9l-2.1,0.3c-0.2-0.8-0.5-1.5-1-1.9
			s-1.1-0.6-1.8-0.6c-1.1,0-1.9,0.4-2.6,1.1s-1,2-1,3.6c0,1.7,0.3,2.9,1,3.6s1.5,1.1,2.5,1.1c0.8,0,1.5-0.3,2.1-0.8
			S67.2,304.8,67.4,303.7z"/>
		<path class="st1" d="M79.4,308.3v-1.8c-1,1.4-2.3,2.1-3.9,2.1c-0.7,0-1.4-0.1-2.1-0.4s-1.1-0.6-1.4-1.1s-0.5-0.9-0.7-1.6
			c-0.1-0.4-0.1-1.1-0.1-2v-7.7h2.1v6.9c0,1.1,0,1.8,0.1,2.2c0.1,0.6,0.4,1,0.8,1.3s1,0.5,1.6,0.5s1.2-0.2,1.8-0.5s0.9-0.8,1.2-1.3
			s0.3-1.4,0.3-2.4v-6.7h2.1v12.4H79.4z"/>
		<path class="st1" d="M84.6,308.3v-12.4h1.9v1.7c0.4-0.6,0.9-1.1,1.6-1.5s1.4-0.6,2.2-0.6c0.9,0,1.7,0.2,2.3,0.6s1,0.9,1.2,1.6
			c1-1.5,2.3-2.2,3.8-2.2c1.2,0,2.2,0.3,2.8,1s1,1.7,1,3.2v8.5h-2.1v-7.8c0-0.8-0.1-1.5-0.2-1.8s-0.4-0.7-0.7-0.9s-0.8-0.3-1.3-0.3
			c-0.9,0-1.6,0.3-2.2,0.9s-0.9,1.5-0.9,2.8v7.2H92v-8.1c0-0.9-0.2-1.6-0.5-2.1s-0.9-0.7-1.7-0.7c-0.6,0-1.1,0.2-1.6,0.5
			s-0.9,0.8-1.1,1.4s-0.3,1.5-0.3,2.6v6.5H84.6z"/>
		<path class="st1" d="M113.1,304.3l2.2,0.3c-0.3,1.3-1,2.3-1.9,3s-2.1,1.1-3.6,1.1c-1.8,0-3.3-0.6-4.3-1.7s-1.6-2.7-1.6-4.7
			c0-2.1,0.5-3.7,1.6-4.9s2.5-1.7,4.2-1.7c1.7,0,3,0.6,4.1,1.7s1.6,2.7,1.6,4.8c0,0.1,0,0.3,0,0.6h-9.3c0.1,1.4,0.5,2.4,1.2,3.1
			s1.6,1.1,2.6,1.1c0.8,0,1.4-0.2,2-0.6S112.8,305.2,113.1,304.3z M106.2,300.9h6.9c-0.1-1-0.4-1.8-0.8-2.4
			c-0.7-0.8-1.5-1.2-2.6-1.2c-1,0-1.8,0.3-2.4,1S106.3,299.8,106.2,300.9z"/>
		<path class="st1" d="M117.9,308.3v-12.4h1.9v1.8c0.9-1.4,2.2-2.1,4-2.1c0.8,0,1.4,0.1,2.1,0.4s1.1,0.6,1.4,1.1s0.5,1,0.7,1.6
			c0.1,0.4,0.1,1.1,0.1,2.1v7.7H126v-7.6c0-0.9-0.1-1.5-0.2-1.9s-0.5-0.8-0.9-1s-0.9-0.4-1.5-0.4c-0.9,0-1.7,0.3-2.3,0.9
			s-1,1.7-1,3.2v6.8H117.9z"/>
		<path class="st1" d="M135.9,306.4l0.3,1.9c-0.6,0.1-1.1,0.2-1.6,0.2c-0.8,0-1.4-0.1-1.8-0.4s-0.7-0.6-0.9-1s-0.3-1.2-0.3-2.5v-7.2
			h-1.5v-1.6h1.5v-3.1l2.1-1.3v4.3h2.1v1.6h-2.1v7.3c0,0.6,0,1,0.1,1.2s0.2,0.3,0.4,0.4s0.4,0.2,0.7,0.2
			C135.2,306.5,135.5,306.5,135.9,306.4z"/>
		<path class="st1" d="M146.1,306.7c-0.8,0.7-1.5,1.1-2.3,1.4s-1.5,0.4-2.3,0.4c-1.4,0-2.4-0.3-3.2-1s-1.1-1.5-1.1-2.6
			c0-0.6,0.1-1.2,0.4-1.7s0.6-0.9,1.1-1.2s1-0.5,1.5-0.7c0.4-0.1,1-0.2,1.9-0.3c1.7-0.2,3-0.4,3.8-0.7c0-0.3,0-0.5,0-0.6
			c0-0.9-0.2-1.5-0.6-1.8c-0.5-0.5-1.3-0.7-2.4-0.7c-1,0-1.7,0.2-2.2,0.5s-0.8,1-1,1.8l-2.1-0.3c0.2-0.9,0.5-1.6,0.9-2.1
			s1.1-1,1.9-1.3s1.8-0.4,2.8-0.4c1.1,0,1.9,0.1,2.6,0.4s1.2,0.6,1.5,0.9s0.5,0.9,0.7,1.4c0.1,0.4,0.1,1,0.1,1.9v2.8
			c0,2,0,3.2,0.1,3.7s0.3,1,0.5,1.5h-2.2C146.3,307.8,146.1,307.3,146.1,306.7z M145.9,302c-0.8,0.3-1.9,0.6-3.4,0.8
			c-0.9,0.1-1.5,0.3-1.8,0.4s-0.6,0.4-0.8,0.7s-0.3,0.6-0.3,1c0,0.6,0.2,1,0.6,1.4s1,0.6,1.9,0.6c0.8,0,1.5-0.2,2.2-0.5
			s1.1-0.8,1.4-1.5c0.2-0.5,0.3-1.2,0.3-2.1V302z"/>
		<path class="st1" d="M155.9,306.4l0.3,1.9c-0.6,0.1-1.1,0.2-1.6,0.2c-0.8,0-1.4-0.1-1.8-0.4s-0.7-0.6-0.9-1s-0.3-1.2-0.3-2.5v-7.2
			h-1.5v-1.6h1.5v-3.1l2.1-1.3v4.3h2.1v1.6h-2.1v7.3c0,0.6,0,1,0.1,1.2s0.2,0.3,0.4,0.4s0.4,0.2,0.7,0.2
			C155.2,306.5,155.5,306.5,155.9,306.4z"/>
		<path class="st1" d="M158,293.5v-2.4h2.1v2.4H158z M158,308.3v-12.4h2.1v12.4H158z"/>
		<path class="st1" d="M162.5,302.1c0-2.3,0.6-4,1.9-5.1c1.1-0.9,2.4-1.4,3.9-1.4c1.7,0,3.1,0.6,4.2,1.7s1.6,2.7,1.6,4.6
			c0,1.6-0.2,2.9-0.7,3.8s-1.2,1.6-2.1,2.1s-1.9,0.8-3,0.8c-1.7,0-3.2-0.6-4.2-1.7S162.5,304.2,162.5,302.1z M164.7,302.1
			c0,1.6,0.3,2.8,1,3.6s1.6,1.2,2.6,1.2c1,0,1.9-0.4,2.6-1.2s1-2,1-3.6c0-1.5-0.3-2.7-1-3.5s-1.6-1.2-2.6-1.2
			c-1.1,0-1.9,0.4-2.6,1.2S164.7,300.5,164.7,302.1z"/>
		<path class="st1" d="M176.7,308.3v-12.4h1.9v1.8c0.9-1.4,2.2-2.1,4-2.1c0.8,0,1.4,0.1,2.1,0.4s1.1,0.6,1.4,1.1s0.5,1,0.7,1.6
			c0.1,0.4,0.1,1.1,0.1,2.1v7.7h-2.1v-7.6c0-0.9-0.1-1.5-0.2-1.9s-0.5-0.8-0.9-1s-0.9-0.4-1.5-0.4c-0.9,0-1.7,0.3-2.3,0.9
			s-1,1.7-1,3.2v6.8H176.7z"/>
		<path class="st1" d="M205.2,304.3l2.2,0.3c-0.3,1.3-1,2.3-1.9,3s-2.1,1.1-3.6,1.1c-1.8,0-3.3-0.6-4.3-1.7s-1.6-2.7-1.6-4.7
			c0-2.1,0.5-3.7,1.6-4.9s2.5-1.7,4.2-1.7c1.7,0,3,0.6,4.1,1.7s1.6,2.7,1.6,4.8c0,0.1,0,0.3,0,0.6h-9.3c0.1,1.4,0.5,2.4,1.2,3.1
			s1.6,1.1,2.6,1.1c0.8,0,1.4-0.2,2-0.6S204.9,305.2,205.2,304.3z M198.3,300.9h6.9c-0.1-1-0.4-1.8-0.8-2.4
			c-0.7-0.8-1.5-1.2-2.6-1.2c-1,0-1.8,0.3-2.4,1S198.3,299.8,198.3,300.9z"/>
		<path class="st1" d="M214.6,306.4l0.3,1.9c-0.6,0.1-1.1,0.2-1.6,0.2c-0.8,0-1.4-0.1-1.8-0.4s-0.7-0.6-0.9-1s-0.3-1.2-0.3-2.5v-7.2
			h-1.5v-1.6h1.5v-3.1l2.1-1.3v4.3h2.1v1.6h-2.1v7.3c0,0.6,0,1,0.1,1.2s0.2,0.3,0.4,0.4s0.4,0.2,0.7,0.2
			C213.9,306.5,214.2,306.5,214.6,306.4z"/>
		<path class="st1" d="M231.5,303.7l2.1,0.3c-0.2,1.4-0.8,2.5-1.7,3.4s-2.1,1.2-3.4,1.2c-1.7,0-3.1-0.6-4.1-1.7s-1.6-2.7-1.6-4.8
			c0-1.3,0.2-2.5,0.7-3.5s1.1-1.8,2-2.3s1.9-0.8,3-0.8c1.4,0,2.5,0.3,3.3,1s1.4,1.7,1.7,2.9l-2.1,0.3c-0.2-0.8-0.5-1.5-1-1.9
			s-1.1-0.6-1.8-0.6c-1.1,0-1.9,0.4-2.6,1.1s-1,2-1,3.6c0,1.7,0.3,2.9,1,3.6s1.5,1.1,2.5,1.1c0.8,0,1.5-0.3,2.1-0.8
			S231.3,304.8,231.5,303.7z"/>
		<path class="st1" d="M235.3,308.3v-12.4h1.9v1.9c0.5-0.9,0.9-1.5,1.3-1.7s0.9-0.4,1.4-0.4c0.7,0,1.4,0.2,2.2,0.7l-0.7,2
			c-0.5-0.3-1-0.5-1.5-0.5c-0.5,0-0.9,0.1-1.2,0.4s-0.6,0.7-0.8,1.2c-0.2,0.8-0.4,1.6-0.4,2.5v6.5H235.3z"/>
		<path class="st1" d="M251.9,304.3l2.2,0.3c-0.3,1.3-1,2.3-1.9,3s-2.1,1.1-3.6,1.1c-1.8,0-3.3-0.6-4.3-1.7s-1.6-2.7-1.6-4.7
			c0-2.1,0.5-3.7,1.6-4.9s2.5-1.7,4.2-1.7c1.7,0,3,0.6,4.1,1.7s1.6,2.7,1.6,4.8c0,0.1,0,0.3,0,0.6h-9.3c0.1,1.4,0.5,2.4,1.2,3.1
			s1.6,1.1,2.6,1.1c0.8,0,1.4-0.2,2-0.6S251.6,305.2,251.9,304.3z M244.9,300.9h6.9c-0.1-1-0.4-1.8-0.8-2.4
			c-0.7-0.8-1.5-1.2-2.6-1.2c-1,0-1.8,0.3-2.4,1S245,299.8,244.9,300.9z M247.2,294.3l1.6-3.3h2.8l-2.6,3.3H247.2z"/>
		<path class="st1" d="M264.8,306.7c-0.8,0.7-1.5,1.1-2.3,1.4s-1.5,0.4-2.3,0.4c-1.4,0-2.4-0.3-3.2-1S256,306,256,305
			c0-0.6,0.1-1.2,0.4-1.7s0.6-0.9,1.1-1.2s1-0.5,1.5-0.7c0.4-0.1,1-0.2,1.9-0.3c1.7-0.2,3-0.4,3.8-0.7c0-0.3,0-0.5,0-0.6
			c0-0.9-0.2-1.5-0.6-1.8c-0.5-0.5-1.3-0.7-2.4-0.7c-1,0-1.7,0.2-2.2,0.5s-0.8,1-1,1.8l-2.1-0.3c0.2-0.9,0.5-1.6,0.9-2.1
			s1.1-1,1.9-1.3s1.8-0.4,2.8-0.4c1.1,0,1.9,0.1,2.6,0.4s1.2,0.6,1.5,0.9s0.5,0.9,0.7,1.4c0.1,0.4,0.1,1,0.1,1.9v2.8
			c0,2,0,3.2,0.1,3.7s0.3,1,0.5,1.5h-2.2C265,307.8,264.9,307.3,264.8,306.7z M264.6,302c-0.8,0.3-1.9,0.6-3.4,0.8
			c-0.9,0.1-1.5,0.3-1.8,0.4s-0.6,0.4-0.8,0.7s-0.3,0.6-0.3,1c0,0.6,0.2,1,0.6,1.4s1,0.6,1.9,0.6c0.8,0,1.5-0.2,2.2-0.5
			s1.1-0.8,1.4-1.5c0.2-0.5,0.3-1.2,0.3-2.1V302z"/>
		<path class="st1" d="M274.7,306.4l0.3,1.9c-0.6,0.1-1.1,0.2-1.6,0.2c-0.8,0-1.4-0.1-1.8-0.4s-0.7-0.6-0.9-1s-0.3-1.2-0.3-2.5v-7.2
			h-1.5v-1.6h1.5v-3.1l2.1-1.3v4.3h2.1v1.6h-2.1v7.3c0,0.6,0,1,0.1,1.2s0.2,0.3,0.4,0.4s0.4,0.2,0.7,0.2
			C274,306.5,274.3,306.5,274.7,306.4z"/>
		<path class="st1" d="M276.7,293.5v-2.4h2.1v2.4H276.7z M276.7,308.3v-12.4h2.1v12.4H276.7z"/>
		<path class="st1" d="M281.3,302.1c0-2.3,0.6-4,1.9-5.1c1.1-0.9,2.4-1.4,3.9-1.4c1.7,0,3.1,0.6,4.2,1.7s1.6,2.7,1.6,4.6
			c0,1.6-0.2,2.9-0.7,3.8s-1.2,1.6-2.1,2.1s-1.9,0.8-3,0.8c-1.7,0-3.2-0.6-4.2-1.7S281.3,304.2,281.3,302.1z M283.4,302.1
			c0,1.6,0.3,2.8,1,3.6s1.6,1.2,2.6,1.2c1,0,1.9-0.4,2.6-1.2s1-2,1-3.6c0-1.5-0.3-2.7-1-3.5s-1.6-1.2-2.6-1.2
			c-1.1,0-1.9,0.4-2.6,1.2S283.4,300.5,283.4,302.1z"/>
		<path class="st1" d="M295.4,308.3v-12.4h1.9v1.8c0.9-1.4,2.2-2.1,4-2.1c0.8,0,1.4,0.1,2.1,0.4s1.1,0.6,1.4,1.1s0.5,1,0.7,1.6
			c0.1,0.4,0.1,1.1,0.1,2.1v7.7h-2.1v-7.6c0-0.9-0.1-1.5-0.2-1.9s-0.5-0.8-0.9-1s-0.9-0.4-1.5-0.4c-0.9,0-1.7,0.3-2.3,0.9
			s-1,1.7-1,3.2v6.8H295.4z"/>
		<path class="st1" d="M323.5,308.3v-1.6c-0.8,1.2-1.9,1.9-3.5,1.9c-1,0-1.9-0.3-2.7-0.8s-1.5-1.3-1.9-2.3s-0.7-2.1-0.7-3.4
			c0-1.2,0.2-2.4,0.6-3.4s1-1.8,1.9-2.3s1.8-0.8,2.8-0.8c0.8,0,1.4,0.2,2,0.5s1.1,0.7,1.4,1.2v-6.2h2.1v17.2H323.5z M316.8,302.1
			c0,1.6,0.3,2.8,1,3.6s1.5,1.2,2.4,1.2c0.9,0,1.7-0.4,2.3-1.1s1-1.9,1-3.5c0-1.7-0.3-3-1-3.7s-1.5-1.2-2.4-1.2
			c-0.9,0-1.7,0.4-2.3,1.1S316.8,300.4,316.8,302.1z"/>
		<path class="st1" d="M337.3,304.3l2.2,0.3c-0.3,1.3-1,2.3-1.9,3s-2.1,1.1-3.6,1.1c-1.8,0-3.3-0.6-4.3-1.7s-1.6-2.7-1.6-4.7
			c0-2.1,0.5-3.7,1.6-4.9s2.5-1.7,4.2-1.7c1.7,0,3,0.6,4.1,1.7s1.6,2.7,1.6,4.8c0,0.1,0,0.3,0,0.6h-9.3c0.1,1.4,0.5,2.4,1.2,3.1
			s1.6,1.1,2.6,1.1c0.8,0,1.4-0.2,2-0.6S337,305.2,337.3,304.3z M330.4,300.9h6.9c-0.1-1-0.4-1.8-0.8-2.4c-0.7-0.8-1.5-1.2-2.6-1.2
			c-1,0-1.8,0.3-2.4,1S330.4,299.8,330.4,300.9z"/>
		<path class="st1" d="M27.7,333.4l2.1-0.3c0.1,0.8,0.4,1.5,1,1.9s1.3,0.7,2.2,0.7c1,0,1.7-0.2,2.2-0.6s0.7-0.9,0.7-1.4
			c0-0.5-0.2-0.9-0.6-1.1c-0.3-0.2-1-0.4-2.2-0.7c-1.5-0.4-2.6-0.7-3.2-1s-1.1-0.7-1.4-1.2s-0.5-1.1-0.5-1.7c0-0.6,0.1-1.1,0.4-1.5
			s0.6-0.9,1-1.2c0.3-0.2,0.8-0.4,1.3-0.6s1.2-0.3,1.8-0.3c1,0,1.8,0.1,2.6,0.4s1.3,0.7,1.6,1.1s0.6,1.1,0.7,1.9l-2.1,0.3
			c-0.1-0.6-0.4-1.1-0.8-1.5s-1.1-0.5-1.9-0.5c-1,0-1.7,0.2-2.1,0.5s-0.6,0.7-0.6,1.1c0,0.3,0.1,0.5,0.3,0.7
			c0.2,0.2,0.4,0.4,0.8,0.6c0.2,0.1,0.8,0.3,1.9,0.5c1.5,0.4,2.5,0.7,3.1,1s1.1,0.6,1.4,1.1s0.5,1.1,0.5,1.8c0,0.7-0.2,1.4-0.6,2
			s-1,1.1-1.8,1.4s-1.6,0.5-2.6,0.5c-1.6,0-2.8-0.3-3.7-1S28,334.7,27.7,333.4z"/>
		<path class="st1" d="M48.7,337.1v-1.8c-1,1.4-2.3,2.1-3.9,2.1c-0.7,0-1.4-0.1-2.1-0.4s-1.1-0.6-1.4-1.1s-0.5-0.9-0.7-1.6
			c-0.1-0.4-0.1-1.1-0.1-2v-7.7h2.1v6.9c0,1.1,0,1.8,0.1,2.2c0.1,0.6,0.4,1,0.8,1.3s1,0.5,1.6,0.5s1.2-0.2,1.8-0.5s0.9-0.8,1.2-1.3
			s0.3-1.4,0.3-2.4v-6.7h2.1v12.4H48.7z"/>
		<path class="st1" d="M53.9,341.9v-17.2h1.9v1.6c0.5-0.6,1-1.1,1.5-1.4s1.3-0.5,2.1-0.5c1.1,0,2,0.3,2.8,0.8s1.4,1.3,1.8,2.3
			s0.6,2.1,0.6,3.3c0,1.3-0.2,2.4-0.7,3.4s-1.1,1.8-2,2.3s-1.8,0.8-2.7,0.8c-0.7,0-1.3-0.1-1.9-0.4s-1-0.7-1.4-1.1v6.1H53.9z
			 M55.8,330.9c0,1.6,0.3,2.8,1,3.6s1.4,1.1,2.4,1.1c0.9,0,1.7-0.4,2.4-1.2s1-2,1-3.7c0-1.6-0.3-2.8-1-3.6s-1.4-1.2-2.3-1.2
			c-0.9,0-1.7,0.4-2.4,1.3S55.8,329.3,55.8,330.9z"/>
		<path class="st1" d="M67.3,341.9v-17.2h1.9v1.6c0.5-0.6,1-1.1,1.5-1.4s1.3-0.5,2.1-0.5c1.1,0,2,0.3,2.8,0.8s1.4,1.3,1.8,2.3
			s0.6,2.1,0.6,3.3c0,1.3-0.2,2.4-0.7,3.4s-1.1,1.8-2,2.3s-1.8,0.8-2.7,0.8c-0.7,0-1.3-0.1-1.9-0.4s-1-0.7-1.4-1.1v6.1H67.3z
			 M69.2,330.9c0,1.6,0.3,2.8,1,3.6s1.4,1.1,2.4,1.1c0.9,0,1.7-0.4,2.4-1.2s1-2,1-3.7c0-1.6-0.3-2.8-1-3.6s-1.4-1.2-2.3-1.2
			c-0.9,0-1.7,0.4-2.4,1.3S69.2,329.3,69.2,330.9z"/>
		<path class="st1" d="M79.8,330.9c0-2.3,0.6-4,1.9-5.1c1.1-0.9,2.4-1.4,3.9-1.4c1.7,0,3.1,0.6,4.2,1.7s1.6,2.7,1.6,4.6
			c0,1.6-0.2,2.9-0.7,3.8s-1.2,1.6-2.1,2.1s-1.9,0.8-3,0.8c-1.7,0-3.2-0.6-4.2-1.7S79.8,333,79.8,330.9z M82,330.9
			c0,1.6,0.3,2.8,1,3.6s1.6,1.2,2.6,1.2c1,0,1.9-0.4,2.6-1.2s1-2,1-3.6c0-1.5-0.3-2.7-1-3.5s-1.6-1.2-2.6-1.2
			c-1.1,0-1.9,0.4-2.6,1.2S82,329.3,82,330.9z"/>
		<path class="st1" d="M93.9,337.1v-12.4h1.9v1.9c0.5-0.9,0.9-1.5,1.3-1.7s0.9-0.4,1.4-0.4c0.7,0,1.4,0.2,2.2,0.7l-0.7,2
			c-0.5-0.3-1-0.5-1.5-0.5c-0.5,0-0.9,0.1-1.2,0.4s-0.6,0.7-0.8,1.2c-0.2,0.8-0.4,1.6-0.4,2.5v6.5H93.9z"/>
		<path class="st1" d="M106.6,335.2l0.3,1.9c-0.6,0.1-1.1,0.2-1.6,0.2c-0.8,0-1.4-0.1-1.8-0.4s-0.7-0.6-0.9-1s-0.3-1.2-0.3-2.5v-7.2
			h-1.5v-1.6h1.5v-3.1l2.1-1.3v4.3h2.1v1.6h-2.1v7.3c0,0.6,0,1,0.1,1.2s0.2,0.3,0.4,0.4s0.4,0.2,0.7,0.2
			C105.9,335.3,106.2,335.3,106.6,335.2z"/>
		<path class="st1" d="M123.4,337.1v-1.6c-0.8,1.2-1.9,1.9-3.5,1.9c-1,0-1.9-0.3-2.7-0.8s-1.5-1.3-1.9-2.3s-0.7-2.1-0.7-3.4
			c0-1.2,0.2-2.4,0.6-3.4s1-1.8,1.9-2.3s1.8-0.8,2.8-0.8c0.8,0,1.4,0.2,2,0.5s1.1,0.7,1.4,1.2v-6.2h2.1v17.2H123.4z M116.7,330.9
			c0,1.6,0.3,2.8,1,3.6s1.5,1.2,2.4,1.2c0.9,0,1.7-0.4,2.3-1.1s1-1.9,1-3.5c0-1.7-0.3-3-1-3.8s-1.5-1.2-2.4-1.2
			c-0.9,0-1.7,0.4-2.3,1.1S116.7,329.2,116.7,330.9z"/>
		<path class="st1" d="M137.2,333.1l2.2,0.3c-0.3,1.3-1,2.3-1.9,3s-2.1,1.1-3.6,1.1c-1.8,0-3.3-0.6-4.3-1.7s-1.6-2.7-1.6-4.7
			c0-2.1,0.5-3.7,1.6-4.9s2.5-1.7,4.2-1.7c1.7,0,3,0.6,4.1,1.7s1.6,2.7,1.6,4.8c0,0.1,0,0.3,0,0.6h-9.3c0.1,1.4,0.5,2.4,1.2,3.1
			s1.6,1.1,2.6,1.1c0.8,0,1.4-0.2,2-0.6S136.8,334,137.2,333.1z M130.2,329.7h6.9c-0.1-1-0.4-1.8-0.8-2.4c-0.7-0.8-1.5-1.2-2.6-1.2
			c-1,0-1.8,0.3-2.4,1S130.3,328.6,130.2,329.7z"/>
		<path class="st1" d="M149.2,337.1v-10.8h-1.9v-1.6h1.9v-1.3c0-0.8,0.1-1.5,0.2-1.9c0.2-0.5,0.6-1,1.1-1.3s1.2-0.5,2.2-0.5
			c0.6,0,1.2,0.1,2,0.2l-0.3,1.8c-0.4-0.1-0.9-0.1-1.2-0.1c-0.6,0-1.1,0.1-1.4,0.4s-0.4,0.8-0.4,1.5v1.1h2.4v1.6h-2.4v10.8H149.2z"
			/>
		<path class="st1" d="M154.5,330.9c0-2.3,0.6-4,1.9-5.1c1.1-0.9,2.4-1.4,3.9-1.4c1.7,0,3.1,0.6,4.2,1.7s1.6,2.7,1.6,4.6
			c0,1.6-0.2,2.9-0.7,3.8s-1.2,1.6-2.1,2.1s-1.9,0.8-3,0.8c-1.7,0-3.2-0.6-4.2-1.7S154.5,333,154.5,330.9z M156.7,330.9
			c0,1.6,0.3,2.8,1,3.6s1.6,1.2,2.6,1.2c1,0,1.9-0.4,2.6-1.2s1-2,1-3.6c0-1.5-0.3-2.7-1-3.5s-1.6-1.2-2.6-1.2
			c-1.1,0-1.9,0.4-2.6,1.2S156.7,329.3,156.7,330.9z"/>
		<path class="st1" d="M168.7,337.1v-12.4h1.9v1.9c0.5-0.9,0.9-1.5,1.3-1.7s0.9-0.4,1.4-0.4c0.7,0,1.4,0.2,2.2,0.7l-0.7,2
			c-0.5-0.3-1-0.5-1.5-0.5c-0.5,0-0.9,0.1-1.2,0.4s-0.6,0.7-0.8,1.2c-0.2,0.8-0.4,1.6-0.4,2.5v6.5H168.7z"/>
		<path class="st1" d="M176.7,337.1v-12.4h1.9v1.7c0.4-0.6,0.9-1.1,1.6-1.5s1.4-0.6,2.2-0.6c0.9,0,1.7,0.2,2.3,0.6s1,0.9,1.2,1.6
			c1-1.5,2.3-2.2,3.8-2.2c1.2,0,2.2,0.3,2.8,1s1,1.7,1,3.2v8.5h-2.1v-7.8c0-0.8-0.1-1.5-0.2-1.8s-0.4-0.7-0.7-0.9s-0.8-0.3-1.3-0.3
			c-0.9,0-1.6,0.3-2.2,0.9s-0.9,1.5-0.9,2.8v7.2h-2.1V329c0-0.9-0.2-1.6-0.5-2.1s-0.9-0.7-1.7-0.7c-0.6,0-1.1,0.2-1.6,0.5
			s-0.9,0.8-1.1,1.4s-0.3,1.5-0.3,2.6v6.5H176.7z"/>
		<path class="st1" d="M204.8,335.5c-0.8,0.7-1.5,1.1-2.3,1.4s-1.5,0.4-2.3,0.4c-1.4,0-2.4-0.3-3.2-1s-1.1-1.5-1.1-2.6
			c0-0.6,0.1-1.2,0.4-1.7s0.6-0.9,1.1-1.2s1-0.5,1.5-0.7c0.4-0.1,1-0.2,1.9-0.3c1.7-0.2,3-0.4,3.8-0.7c0-0.3,0-0.5,0-0.6
			c0-0.9-0.2-1.5-0.6-1.8c-0.5-0.5-1.3-0.7-2.4-0.7c-1,0-1.7,0.2-2.2,0.5s-0.8,1-1,1.8l-2.1-0.3c0.2-0.9,0.5-1.6,0.9-2.1
			s1.1-1,1.9-1.3s1.8-0.4,2.8-0.4c1.1,0,1.9,0.1,2.6,0.4s1.2,0.6,1.5,0.9s0.5,0.9,0.7,1.4c0.1,0.4,0.1,1,0.1,1.9v2.8
			c0,2,0,3.2,0.1,3.7s0.3,1,0.5,1.5h-2.2C205,336.6,204.8,336.1,204.8,335.5z M204.6,330.8c-0.8,0.3-1.9,0.6-3.4,0.8
			c-0.9,0.1-1.5,0.3-1.8,0.4s-0.6,0.4-0.8,0.7s-0.3,0.6-0.3,1c0,0.6,0.2,1,0.6,1.4s1,0.6,1.9,0.6c0.8,0,1.5-0.2,2.2-0.5
			s1.1-0.8,1.4-1.5c0.2-0.5,0.3-1.2,0.3-2.1V330.8z"/>
		<path class="st1" d="M214.6,335.2l0.3,1.9c-0.6,0.1-1.1,0.2-1.6,0.2c-0.8,0-1.4-0.1-1.8-0.4s-0.7-0.6-0.9-1s-0.3-1.2-0.3-2.5v-7.2
			h-1.5v-1.6h1.5v-3.1l2.1-1.3v4.3h2.1v1.6h-2.1v7.3c0,0.6,0,1,0.1,1.2s0.2,0.3,0.4,0.4s0.4,0.2,0.7,0.2
			C213.9,335.3,214.2,335.3,214.6,335.2z"/>
		<path class="st1" d="M216.7,322.3v-2.4h2.1v2.4H216.7z M216.7,337.1v-12.4h2.1v12.4H216.7z"/>
		<path class="st1" d="M221.2,330.9c0-2.3,0.6-4,1.9-5.1c1.1-0.9,2.4-1.4,3.9-1.4c1.7,0,3.1,0.6,4.2,1.7s1.6,2.7,1.6,4.6
			c0,1.6-0.2,2.9-0.7,3.8s-1.2,1.6-2.1,2.1s-1.9,0.8-3,0.8c-1.7,0-3.2-0.6-4.2-1.7S221.2,333,221.2,330.9z M223.4,330.9
			c0,1.6,0.3,2.8,1,3.6s1.6,1.2,2.6,1.2c1,0,1.9-0.4,2.6-1.2s1-2,1-3.6c0-1.5-0.3-2.7-1-3.5s-1.6-1.2-2.6-1.2
			c-1.1,0-1.9,0.4-2.6,1.2S223.4,329.3,223.4,330.9z"/>
		<path class="st1" d="M235.4,337.1v-12.4h1.9v1.8c0.9-1.4,2.2-2.1,4-2.1c0.8,0,1.4,0.1,2.1,0.4s1.1,0.6,1.4,1.1s0.5,1,0.7,1.6
			c0.1,0.4,0.1,1.1,0.1,2.1v7.7h-2.1v-7.6c0-0.9-0.1-1.5-0.2-1.9s-0.5-0.8-0.9-1s-0.9-0.4-1.5-0.4c-0.9,0-1.7,0.3-2.3,0.9
			s-1,1.7-1,3.2v6.8H235.4z"/>
		<path class="st1" d="M255.4,341.9v-17.2h1.9v1.6c0.5-0.6,1-1.1,1.5-1.4s1.3-0.5,2.1-0.5c1.1,0,2,0.3,2.8,0.8s1.4,1.3,1.8,2.3
			s0.6,2.1,0.6,3.3c0,1.3-0.2,2.4-0.7,3.4s-1.1,1.8-2,2.3s-1.8,0.8-2.7,0.8c-0.7,0-1.3-0.1-1.9-0.4s-1-0.7-1.4-1.1v6.1H255.4z
			 M257.3,330.9c0,1.6,0.3,2.8,1,3.6s1.4,1.1,2.4,1.1c0.9,0,1.7-0.4,2.4-1.2s1-2,1-3.7c0-1.6-0.3-2.8-1-3.6s-1.4-1.2-2.3-1.2
			c-0.9,0-1.7,0.4-2.4,1.3S257.3,329.3,257.3,330.9z"/>
		<path class="st1" d="M267.9,330.9c0-2.3,0.6-4,1.9-5.1c1.1-0.9,2.4-1.4,3.9-1.4c1.7,0,3.1,0.6,4.2,1.7s1.6,2.7,1.6,4.6
			c0,1.6-0.2,2.9-0.7,3.8s-1.2,1.6-2.1,2.1s-1.9,0.8-3,0.8c-1.7,0-3.2-0.6-4.2-1.7S267.9,333,267.9,330.9z M270.1,330.9
			c0,1.6,0.3,2.8,1,3.6s1.6,1.2,2.6,1.2c1,0,1.9-0.4,2.6-1.2s1-2,1-3.6c0-1.5-0.3-2.7-1-3.5s-1.6-1.2-2.6-1.2
			c-1.1,0-1.9,0.4-2.6,1.2S270.1,329.3,270.1,330.9z"/>
		<path class="st1" d="M290.2,337.1v-1.8c-1,1.4-2.3,2.1-3.9,2.1c-0.7,0-1.4-0.1-2.1-0.4s-1.1-0.6-1.4-1.1s-0.5-0.9-0.7-1.6
			c-0.1-0.4-0.1-1.1-0.1-2v-7.7h2.1v6.9c0,1.1,0,1.8,0.1,2.2c0.1,0.6,0.4,1,0.8,1.3s1,0.5,1.6,0.5s1.2-0.2,1.8-0.5s0.9-0.8,1.2-1.3
			s0.3-1.4,0.3-2.4v-6.7h2.1v12.4H290.2z"/>
		<path class="st1" d="M295.4,337.1v-12.4h1.9v1.9c0.5-0.9,0.9-1.5,1.3-1.7s0.9-0.4,1.4-0.4c0.7,0,1.4,0.2,2.2,0.7l-0.7,2
			c-0.5-0.3-1-0.5-1.5-0.5c-0.5,0-0.9,0.1-1.2,0.4s-0.6,0.7-0.8,1.2c-0.2,0.8-0.4,1.6-0.4,2.5v6.5H295.4z"/>
		<path class="st1" d="M310,337.1v-17.2h2.1v17.2H310z"/>
		<path class="st1" d="M315.3,322.2v-2.4h2.3v1.9c0,1-0.1,1.8-0.4,2.3c-0.3,0.6-0.9,1.1-1.6,1.4l-0.5-0.8c0.4-0.2,0.7-0.4,0.9-0.8
			s0.3-0.9,0.3-1.5H315.3z"/>
		<path class="st1" d="M328.9,337.1v-1.8c-1,1.4-2.3,2.1-3.9,2.1c-0.7,0-1.4-0.1-2.1-0.4s-1.1-0.6-1.4-1.1s-0.5-0.9-0.7-1.6
			c-0.1-0.4-0.1-1.1-0.1-2v-7.7h2.1v6.9c0,1.1,0,1.8,0.1,2.2c0.1,0.6,0.4,1,0.8,1.3s1,0.5,1.6,0.5s1.2-0.2,1.8-0.5s0.9-0.8,1.2-1.3
			s0.3-1.4,0.3-2.4v-6.7h2.1v12.4H328.9z"/>
		<path class="st1" d="M338.7,335.2l0.3,1.9c-0.6,0.1-1.1,0.2-1.6,0.2c-0.8,0-1.4-0.1-1.8-0.4s-0.7-0.6-0.9-1s-0.3-1.2-0.3-2.5v-7.2
			h-1.5v-1.6h1.5v-3.1l2.1-1.3v4.3h2.1v1.6h-2.1v7.3c0,0.6,0,1,0.1,1.2s0.2,0.3,0.4,0.4s0.4,0.2,0.7,0.2
			C338,335.3,338.3,335.3,338.7,335.2z"/>
		<path class="st1" d="M340.8,322.3v-2.4h2.1v2.4H340.8z M340.8,337.1v-12.4h2.1v12.4H340.8z"/>
		<path class="st1" d="M346,337.1v-17.2h2.1v17.2H346z"/>
		<path class="st1" d="M351.4,322.3v-2.4h2.1v2.4H351.4z M351.4,337.1v-12.4h2.1v12.4H351.4z"/>
		<path class="st1" d="M355.9,331.9v-2.1h6.5v2.1H355.9z"/>
		<path class="st1" d="M27.7,362.2l2.1-0.3c0.1,0.8,0.4,1.5,1,1.9s1.3,0.7,2.2,0.7c1,0,1.7-0.2,2.2-0.6s0.7-0.9,0.7-1.4
			c0-0.5-0.2-0.9-0.6-1.1c-0.3-0.2-1-0.4-2.2-0.7c-1.5-0.4-2.6-0.7-3.2-1s-1.1-0.7-1.4-1.2s-0.5-1.1-0.5-1.7c0-0.6,0.1-1.1,0.4-1.5
			s0.6-0.9,1-1.2c0.3-0.2,0.8-0.4,1.3-0.6s1.2-0.3,1.8-0.3c1,0,1.8,0.1,2.6,0.4s1.3,0.7,1.6,1.1s0.6,1.1,0.7,1.9l-2.1,0.3
			c-0.1-0.6-0.4-1.1-0.8-1.5s-1.1-0.5-1.9-0.5c-1,0-1.7,0.2-2.1,0.5s-0.6,0.7-0.6,1.1c0,0.3,0.1,0.5,0.3,0.7
			c0.2,0.2,0.4,0.4,0.8,0.6c0.2,0.1,0.8,0.3,1.9,0.5c1.5,0.4,2.5,0.7,3.1,1s1.1,0.6,1.4,1.1s0.5,1.1,0.5,1.8c0,0.7-0.2,1.4-0.6,2
			s-1,1.1-1.8,1.4s-1.6,0.5-2.6,0.5c-1.6,0-2.8-0.3-3.7-1S28,363.5,27.7,362.2z"/>
		<path class="st1" d="M48.7,364.3c-0.8,0.7-1.5,1.1-2.3,1.4s-1.5,0.4-2.3,0.4c-1.4,0-2.4-0.3-3.2-1s-1.1-1.5-1.1-2.6
			c0-0.6,0.1-1.2,0.4-1.7s0.6-0.9,1.1-1.2s1-0.5,1.5-0.7c0.4-0.1,1-0.2,1.9-0.3c1.7-0.2,3-0.4,3.8-0.7c0-0.3,0-0.5,0-0.6
			c0-0.9-0.2-1.5-0.6-1.8c-0.5-0.5-1.3-0.7-2.4-0.7c-1,0-1.7,0.2-2.2,0.5s-0.8,1-1,1.8l-2.1-0.3c0.2-0.9,0.5-1.6,0.9-2.1
			s1.1-1,1.9-1.3s1.8-0.4,2.8-0.4c1.1,0,1.9,0.1,2.6,0.4s1.2,0.6,1.5,0.9s0.5,0.9,0.7,1.4c0.1,0.4,0.1,1,0.1,1.9v2.8
			c0,2,0,3.2,0.1,3.7s0.3,1,0.5,1.5h-2.2C48.9,365.4,48.8,364.9,48.7,364.3z M48.5,359.6c-0.8,0.3-1.9,0.6-3.4,0.8
			c-0.9,0.1-1.5,0.3-1.8,0.4s-0.6,0.4-0.8,0.7s-0.3,0.6-0.3,1c0,0.6,0.2,1,0.6,1.4s1,0.6,1.9,0.6c0.8,0,1.5-0.2,2.2-0.5
			s1.1-0.8,1.4-1.5c0.2-0.5,0.3-1.2,0.3-2.1V359.6z"/>
		<path class="st1" d="M58.5,364l0.3,1.9c-0.6,0.1-1.1,0.2-1.6,0.2c-0.8,0-1.4-0.1-1.8-0.4s-0.7-0.6-0.9-1s-0.3-1.2-0.3-2.5v-7.2
			h-1.5v-1.6h1.5v-3.1l2.1-1.3v4.3h2.1v1.6h-2.1v7.3c0,0.6,0,1,0.1,1.2s0.2,0.3,0.4,0.4s0.4,0.2,0.7,0.2
			C57.8,364.1,58.2,364.1,58.5,364z"/>
		<path class="st1" d="M60.6,351.1v-2.4h2.1v2.4H60.6z M60.6,365.9v-12.4h2.1v12.4H60.6z"/>
		<path class="st1" d="M65.1,359.7c0-2.3,0.6-4,1.9-5.1c1.1-0.9,2.4-1.4,3.9-1.4c1.7,0,3.1,0.6,4.2,1.7s1.6,2.7,1.6,4.6
			c0,1.6-0.2,2.9-0.7,3.8s-1.2,1.6-2.1,2.1s-1.9,0.8-3,0.8c-1.7,0-3.2-0.6-4.2-1.7S65.1,361.8,65.1,359.7z M67.3,359.7
			c0,1.6,0.3,2.8,1,3.6s1.6,1.2,2.6,1.2c1,0,1.9-0.4,2.6-1.2s1-2,1-3.6c0-1.5-0.3-2.7-1-3.5s-1.6-1.2-2.6-1.2
			c-1.1,0-1.9,0.4-2.6,1.2S67.3,358.1,67.3,359.7z"/>
		<path class="st1" d="M79.3,365.9v-12.4h1.9v1.8c0.9-1.4,2.2-2.1,4-2.1c0.8,0,1.4,0.1,2.1,0.4s1.1,0.6,1.4,1.1s0.5,1,0.7,1.6
			c0.1,0.4,0.1,1.1,0.1,2.1v7.7h-2.1v-7.6c0-0.9-0.1-1.5-0.2-1.9s-0.5-0.8-0.9-1s-0.9-0.4-1.5-0.4c-0.9,0-1.7,0.3-2.3,0.9
			s-1,1.7-1,3.2v6.8H79.3z"/>
		<path class="st1" d="M107.4,365.9v-1.6c-0.8,1.2-1.9,1.9-3.5,1.9c-1,0-1.9-0.3-2.7-0.8s-1.5-1.3-1.9-2.3s-0.7-2.1-0.7-3.4
			c0-1.2,0.2-2.4,0.6-3.4s1-1.8,1.9-2.3s1.8-0.8,2.8-0.8c0.8,0,1.4,0.2,2,0.5s1.1,0.7,1.4,1.2v-6.2h2.1v17.2H107.4z M100.7,359.7
			c0,1.6,0.3,2.8,1,3.6s1.5,1.2,2.4,1.2c0.9,0,1.7-0.4,2.3-1.1s1-1.9,1-3.5c0-1.7-0.3-3-1-3.8s-1.5-1.2-2.4-1.2
			c-0.9,0-1.7,0.4-2.3,1.1S100.7,358,100.7,359.7z"/>
		<path class="st1" d="M121.2,361.9l2.2,0.3c-0.3,1.3-1,2.3-1.9,3s-2.1,1.1-3.6,1.1c-1.8,0-3.3-0.6-4.3-1.7s-1.6-2.7-1.6-4.7
			c0-2.1,0.5-3.7,1.6-4.9s2.5-1.7,4.2-1.7c1.7,0,3,0.6,4.1,1.7s1.6,2.7,1.6,4.8c0,0.1,0,0.3,0,0.6h-9.3c0.1,1.4,0.5,2.4,1.2,3.1
			s1.6,1.1,2.6,1.1c0.8,0,1.4-0.2,2-0.6S120.8,362.8,121.2,361.9z M114.2,358.5h6.9c-0.1-1-0.4-1.8-0.8-2.4
			c-0.7-0.8-1.5-1.2-2.6-1.2c-1,0-1.8,0.3-2.4,1S114.3,357.4,114.2,358.5z"/>
		<path class="st1" d="M135,365.9l-3.8-12.4h2.2l2,7.2l0.7,2.7c0-0.1,0.2-1,0.6-2.6l2-7.3h2.2l1.9,7.2l0.6,2.4l0.7-2.4l2.1-7.2h2.1
			l-3.9,12.4h-2.2l-2-7.5l-0.5-2.1l-2.5,9.6H135z"/>
		<path class="st1" d="M158.5,361.9l2.2,0.3c-0.3,1.3-1,2.3-1.9,3s-2.1,1.1-3.6,1.1c-1.8,0-3.3-0.6-4.3-1.7s-1.6-2.7-1.6-4.7
			c0-2.1,0.5-3.7,1.6-4.9s2.5-1.7,4.2-1.7c1.7,0,3,0.6,4.1,1.7s1.6,2.7,1.6,4.8c0,0.1,0,0.3,0,0.6h-9.3c0.1,1.4,0.5,2.4,1.2,3.1
			s1.6,1.1,2.6,1.1c0.8,0,1.4-0.2,2-0.6S158.2,362.8,158.5,361.9z M151.6,358.5h6.9c-0.1-1-0.4-1.8-0.8-2.4
			c-0.7-0.8-1.5-1.2-2.6-1.2c-1,0-1.8,0.3-2.4,1S151.7,357.4,151.6,358.5z"/>
		<path class="st1" d="M165.3,365.9h-2v-17.2h2.1v6.1c0.9-1.1,2-1.7,3.4-1.7c0.8,0,1.5,0.2,2.2,0.5s1.2,0.7,1.7,1.3s0.8,1.2,1,2
			s0.4,1.6,0.4,2.5c0,2.1-0.5,3.8-1.6,4.9s-2.3,1.7-3.8,1.7c-1.5,0-2.6-0.6-3.5-1.8V365.9z M165.3,359.6c0,1.5,0.2,2.6,0.6,3.2
			c0.7,1.1,1.6,1.6,2.7,1.6c0.9,0,1.7-0.4,2.4-1.2s1-2,1-3.6c0-1.6-0.3-2.8-1-3.6s-1.4-1.2-2.3-1.2c-0.9,0-1.7,0.4-2.4,1.2
			S165.3,358.1,165.3,359.6z"/>
		<path class="st1" d="M184.8,364.3c-0.8,0.7-1.5,1.1-2.3,1.4s-1.5,0.4-2.3,0.4c-1.4,0-2.4-0.3-3.2-1s-1.1-1.5-1.1-2.6
			c0-0.6,0.1-1.2,0.4-1.7s0.6-0.9,1.1-1.2s1-0.5,1.5-0.7c0.4-0.1,1-0.2,1.9-0.3c1.7-0.2,3-0.4,3.8-0.7c0-0.3,0-0.5,0-0.6
			c0-0.9-0.2-1.5-0.6-1.8c-0.5-0.5-1.3-0.7-2.4-0.7c-1,0-1.7,0.2-2.2,0.5s-0.8,1-1,1.8l-2.1-0.3c0.2-0.9,0.5-1.6,0.9-2.1
			s1.1-1,1.9-1.3s1.8-0.4,2.8-0.4c1.1,0,1.9,0.1,2.6,0.4s1.2,0.6,1.5,0.9s0.5,0.9,0.7,1.4c0.1,0.4,0.1,1,0.1,1.9v2.8
			c0,2,0,3.2,0.1,3.7s0.3,1,0.5,1.5h-2.2C185,365.4,184.9,364.9,184.8,364.3z M184.6,359.6c-0.8,0.3-1.9,0.6-3.4,0.8
			c-0.9,0.1-1.5,0.3-1.8,0.4s-0.6,0.4-0.8,0.7s-0.3,0.6-0.3,1c0,0.6,0.2,1,0.6,1.4s1,0.6,1.9,0.6c0.8,0,1.5-0.2,2.2-0.5
			s1.1-0.8,1.4-1.5c0.2-0.5,0.3-1.2,0.3-2.1V359.6z"/>
		<path class="st1" d="M190,370.7v-17.2h1.9v1.6c0.5-0.6,1-1.1,1.5-1.4s1.3-0.5,2.1-0.5c1.1,0,2,0.3,2.8,0.8s1.4,1.3,1.8,2.3
			s0.6,2.1,0.6,3.3c0,1.3-0.2,2.4-0.7,3.4s-1.1,1.8-2,2.3s-1.8,0.8-2.7,0.8c-0.7,0-1.3-0.1-1.9-0.4s-1-0.7-1.4-1.1v6.1H190z
			 M191.9,359.7c0,1.6,0.3,2.8,1,3.6s1.4,1.1,2.4,1.1c0.9,0,1.7-0.4,2.4-1.2s1-2,1-3.7c0-1.6-0.3-2.8-1-3.6s-1.4-1.2-2.3-1.2
			c-0.9,0-1.7,0.4-2.4,1.3S191.9,358.1,191.9,359.7z"/>
		<path class="st1" d="M203.4,370.7v-17.2h1.9v1.6c0.5-0.6,1-1.1,1.5-1.4s1.3-0.5,2.1-0.5c1.1,0,2,0.3,2.8,0.8s1.4,1.3,1.8,2.3
			s0.6,2.1,0.6,3.3c0,1.3-0.2,2.4-0.7,3.4s-1.1,1.8-2,2.3s-1.8,0.8-2.7,0.8c-0.7,0-1.3-0.1-1.9-0.4s-1-0.7-1.4-1.1v6.1H203.4z
			 M205.3,359.7c0,1.6,0.3,2.8,1,3.6s1.4,1.1,2.4,1.1c0.9,0,1.7-0.4,2.4-1.2s1-2,1-3.7c0-1.6-0.3-2.8-1-3.6s-1.4-1.2-2.3-1.2
			c-0.9,0-1.7,0.4-2.4,1.3S205.3,358.1,205.3,359.7z"/>
		<path class="st1" d="M217.3,365.9v-2.4h2.4v2.4H217.3z"/>
		<path class="st1" d="M9.8,389.5v-2.1h6.5v2.1H9.8z"/>
		<path class="st1" d="M28.9,394.7v-17.2h6.5c1.1,0,2,0.1,2.6,0.2c0.8,0.1,1.6,0.4,2.1,0.8s1,0.9,1.4,1.7s0.5,1.5,0.5,2.3
			c0,1.5-0.5,2.7-1.4,3.7s-2.6,1.5-5,1.5h-4.4v7H28.9z M31.1,385.7h4.4c1.5,0,2.5-0.3,3.1-0.8s0.9-1.3,0.9-2.3
			c0-0.7-0.2-1.3-0.5-1.8s-0.8-0.8-1.4-1c-0.4-0.1-1.1-0.2-2.1-0.2h-4.4V385.7z"/>
		<path class="st1" d="M52.7,393.1c-0.8,0.7-1.5,1.1-2.3,1.4S49,395,48.1,395c-1.4,0-2.4-0.3-3.2-1s-1.1-1.5-1.1-2.6
			c0-0.6,0.1-1.2,0.4-1.7s0.6-0.9,1.1-1.2s1-0.5,1.5-0.7c0.4-0.1,1-0.2,1.9-0.3c1.7-0.2,3-0.4,3.8-0.7c0-0.3,0-0.5,0-0.6
			c0-0.9-0.2-1.5-0.6-1.8c-0.5-0.5-1.3-0.7-2.4-0.7c-1,0-1.7,0.2-2.2,0.5s-0.8,1-1,1.8l-2.1-0.3c0.2-0.9,0.5-1.6,0.9-2.1
			s1.1-1,1.9-1.3s1.8-0.4,2.8-0.4c1.1,0,1.9,0.1,2.6,0.4s1.2,0.6,1.5,0.9s0.5,0.9,0.7,1.4c0.1,0.4,0.1,1,0.1,1.9v2.8
			c0,2,0,3.2,0.1,3.7s0.3,1,0.5,1.5h-2.2C52.9,394.2,52.8,393.7,52.7,393.1z M52.5,388.4c-0.8,0.3-1.9,0.6-3.4,0.8
			c-0.9,0.1-1.5,0.3-1.8,0.4s-0.6,0.4-0.8,0.7s-0.3,0.6-0.3,1c0,0.6,0.2,1,0.6,1.4s1,0.6,1.9,0.6c0.8,0,1.5-0.2,2.2-0.5
			s1.1-0.8,1.4-1.5c0.2-0.5,0.3-1.2,0.3-2.1V388.4z"/>
		<path class="st1" d="M57.9,394.7v-12.4h1.9v1.9c0.5-0.9,0.9-1.5,1.3-1.7s0.9-0.4,1.4-0.4c0.7,0,1.4,0.2,2.2,0.7l-0.7,2
			c-0.5-0.3-1-0.5-1.5-0.5c-0.5,0-0.9,0.1-1.2,0.4s-0.6,0.7-0.8,1.2c-0.2,0.8-0.4,1.6-0.4,2.5v6.5H57.9z"/>
		<path class="st1" d="M74.1,393.1c-0.8,0.7-1.5,1.1-2.3,1.4s-1.5,0.4-2.3,0.4c-1.4,0-2.4-0.3-3.2-1s-1.1-1.5-1.1-2.6
			c0-0.6,0.1-1.2,0.4-1.7s0.6-0.9,1.1-1.2s1-0.5,1.5-0.7c0.4-0.1,1-0.2,1.9-0.3c1.7-0.2,3-0.4,3.8-0.7c0-0.3,0-0.5,0-0.6
			c0-0.9-0.2-1.5-0.6-1.8c-0.5-0.5-1.3-0.7-2.4-0.7c-1,0-1.7,0.2-2.2,0.5s-0.8,1-1,1.8l-2.1-0.3c0.2-0.9,0.5-1.6,0.9-2.1
			s1.1-1,1.9-1.3s1.8-0.4,2.8-0.4c1.1,0,1.9,0.1,2.6,0.4s1.2,0.6,1.5,0.9s0.5,0.9,0.7,1.4c0.1,0.4,0.1,1,0.1,1.9v2.8
			c0,2,0,3.2,0.1,3.7s0.3,1,0.5,1.5h-2.2C74.3,394.2,74.1,393.7,74.1,393.1z M73.9,388.4c-0.8,0.3-1.9,0.6-3.4,0.8
			c-0.9,0.1-1.5,0.3-1.8,0.4s-0.6,0.4-0.8,0.7s-0.3,0.6-0.3,1c0,0.6,0.2,1,0.6,1.4s1,0.6,1.9,0.6c0.8,0,1.5-0.2,2.2-0.5
			s1.1-0.8,1.4-1.5c0.2-0.5,0.3-1.2,0.3-2.1V388.4z"/>
		<path class="st1" d="M79.3,394.7v-12.4h1.9v1.7c0.4-0.6,0.9-1.1,1.6-1.5s1.4-0.6,2.2-0.6c0.9,0,1.7,0.2,2.3,0.6s1,0.9,1.2,1.6
			c1-1.5,2.3-2.2,3.8-2.2c1.2,0,2.2,0.3,2.8,1s1,1.7,1,3.2v8.5H94v-7.8c0-0.8-0.1-1.5-0.2-1.8s-0.4-0.7-0.7-0.9s-0.8-0.3-1.3-0.3
			c-0.9,0-1.6,0.3-2.2,0.9s-0.9,1.5-0.9,2.8v7.2h-2.1v-8.1c0-0.9-0.2-1.6-0.5-2.1s-0.9-0.7-1.7-0.7c-0.6,0-1.1,0.2-1.6,0.5
			s-0.9,0.8-1.1,1.4s-0.3,1.5-0.3,2.6v6.5H79.3z"/>
		<path class="st1" d="M107.8,390.7l2.2,0.3c-0.3,1.3-1,2.3-1.9,3s-2.1,1.1-3.6,1.1c-1.8,0-3.3-0.6-4.3-1.7s-1.6-2.7-1.6-4.7
			c0-2.1,0.5-3.7,1.6-4.9s2.5-1.7,4.2-1.7c1.7,0,3,0.6,4.1,1.7s1.6,2.7,1.6,4.8c0,0.1,0,0.3,0,0.6h-9.3c0.1,1.4,0.5,2.4,1.2,3.1
			s1.6,1.1,2.6,1.1c0.8,0,1.4-0.2,2-0.6S107.5,391.6,107.8,390.7z M100.9,387.3h6.9c-0.1-1-0.4-1.8-0.8-2.4
			c-0.7-0.8-1.5-1.2-2.6-1.2c-1,0-1.8,0.3-2.4,1S100.9,386.2,100.9,387.3z"/>
		<path class="st1" d="M117.2,392.8l0.3,1.9c-0.6,0.1-1.1,0.2-1.6,0.2c-0.8,0-1.4-0.1-1.8-0.4s-0.7-0.6-0.9-1s-0.3-1.2-0.3-2.5v-7.2
			h-1.5v-1.6h1.5v-3.1l2.1-1.3v4.3h2.1v1.6h-2.1v7.3c0,0.6,0,1,0.1,1.2s0.2,0.3,0.4,0.4s0.4,0.2,0.7,0.2
			C116.5,392.9,116.8,392.9,117.2,392.8z"/>
		<path class="st1" d="M119.3,394.7v-12.4h1.9v1.9c0.5-0.9,0.9-1.5,1.3-1.7s0.9-0.4,1.4-0.4c0.7,0,1.4,0.2,2.2,0.7l-0.7,2
			c-0.5-0.3-1-0.5-1.5-0.5c-0.5,0-0.9,0.1-1.2,0.4s-0.6,0.7-0.8,1.2c-0.2,0.8-0.4,1.6-0.4,2.5v6.5H119.3z"/>
		<path class="st1" d="M135.4,393.1c-0.8,0.7-1.5,1.1-2.3,1.4s-1.5,0.4-2.3,0.4c-1.4,0-2.4-0.3-3.2-1s-1.1-1.5-1.1-2.6
			c0-0.6,0.1-1.2,0.4-1.7s0.6-0.9,1.1-1.2s1-0.5,1.5-0.7c0.4-0.1,1-0.2,1.9-0.3c1.7-0.2,3-0.4,3.8-0.7c0-0.3,0-0.5,0-0.6
			c0-0.9-0.2-1.5-0.6-1.8c-0.5-0.5-1.3-0.7-2.4-0.7c-1,0-1.7,0.2-2.2,0.5s-0.8,1-1,1.8l-2.1-0.3c0.2-0.9,0.5-1.6,0.9-2.1
			s1.1-1,1.9-1.3s1.8-0.4,2.8-0.4c1.1,0,1.9,0.1,2.6,0.4s1.2,0.6,1.5,0.9s0.5,0.9,0.7,1.4c0.1,0.4,0.1,1,0.1,1.9v2.8
			c0,2,0,3.2,0.1,3.7s0.3,1,0.5,1.5h-2.2C135.6,394.2,135.5,393.7,135.4,393.1z M135.2,388.4c-0.8,0.3-1.9,0.6-3.4,0.8
			c-0.9,0.1-1.5,0.3-1.8,0.4s-0.6,0.4-0.8,0.7s-0.3,0.6-0.3,1c0,0.6,0.2,1,0.6,1.4s1,0.6,1.9,0.6c0.8,0,1.5-0.2,2.2-0.5
			s1.1-0.8,1.4-1.5c0.2-0.5,0.3-1.2,0.3-2.1V388.4z"/>
		<path class="st1" d="M140.2,395.7l2.1,0.3c0.1,0.6,0.3,1.1,0.7,1.4c0.5,0.4,1.2,0.6,2.1,0.6c1,0,1.7-0.2,2.3-0.6s0.9-0.9,1.1-1.6
			c0.1-0.4,0.2-1.3,0.2-2.7c-0.9,1.1-2.1,1.6-3.4,1.6c-1.7,0-3-0.6-4-1.9s-1.4-2.7-1.4-4.4c0-1.2,0.2-2.3,0.6-3.3s1.1-1.8,1.9-2.3
			s1.8-0.8,2.9-0.8c1.5,0,2.7,0.6,3.6,1.8v-1.5h1.9V393c0,1.9-0.2,3.3-0.6,4.1s-1,1.4-1.9,1.9s-1.9,0.7-3.2,0.7
			c-1.5,0-2.7-0.3-3.6-1S140.2,397.1,140.2,395.7z M142,388.2c0,1.6,0.3,2.8,1,3.6s1.5,1.1,2.4,1.1c1,0,1.8-0.4,2.4-1.1s1-1.9,1-3.5
			c0-1.5-0.3-2.7-1-3.4s-1.5-1.2-2.4-1.2c-0.9,0-1.7,0.4-2.4,1.1S142,386.7,142,388.2z"/>
		<path class="st1" d="M162.5,390.7l2.2,0.3c-0.3,1.3-1,2.3-1.9,3s-2.1,1.1-3.6,1.1c-1.8,0-3.3-0.6-4.3-1.7s-1.6-2.7-1.6-4.7
			c0-2.1,0.5-3.7,1.6-4.9s2.5-1.7,4.2-1.7c1.7,0,3,0.6,4.1,1.7s1.6,2.7,1.6,4.8c0,0.1,0,0.3,0,0.6h-9.3c0.1,1.4,0.5,2.4,1.2,3.1
			s1.6,1.1,2.6,1.1c0.8,0,1.4-0.2,2-0.6S162.2,391.6,162.5,390.7z M155.6,387.3h6.9c-0.1-1-0.4-1.8-0.8-2.4
			c-0.7-0.8-1.5-1.2-2.6-1.2c-1,0-1.8,0.3-2.4,1S155.6,386.2,155.6,387.3z"/>
		<path class="st1" d="M182.1,394.7v-1.6c-0.8,1.2-1.9,1.9-3.5,1.9c-1,0-1.9-0.3-2.7-0.8s-1.5-1.3-1.9-2.3s-0.7-2.1-0.7-3.4
			c0-1.2,0.2-2.4,0.6-3.4s1-1.8,1.9-2.3s1.8-0.8,2.8-0.8c0.8,0,1.4,0.2,2,0.5s1.1,0.7,1.4,1.2v-6.2h2.1v17.2H182.1z M175.4,388.5
			c0,1.6,0.3,2.8,1,3.6s1.5,1.2,2.4,1.2c0.9,0,1.7-0.4,2.3-1.1s1-1.9,1-3.5c0-1.7-0.3-3-1-3.8s-1.5-1.2-2.4-1.2
			c-0.9,0-1.7,0.4-2.3,1.1S175.4,386.8,175.4,388.5z"/>
		<path class="st1" d="M187.2,379.8v-2.4h2.3v1.9c0,1-0.1,1.8-0.4,2.3c-0.3,0.6-0.9,1.1-1.6,1.4l-0.5-0.8c0.4-0.2,0.7-0.4,0.9-0.8
			s0.3-0.9,0.3-1.5H187.2z"/>
		<path class="st1" d="M200.8,393.1c-0.8,0.7-1.5,1.1-2.3,1.4s-1.5,0.4-2.3,0.4c-1.4,0-2.4-0.3-3.2-1s-1.1-1.5-1.1-2.6
			c0-0.6,0.1-1.2,0.4-1.7s0.6-0.9,1.1-1.2s1-0.5,1.5-0.7c0.4-0.1,1-0.2,1.9-0.3c1.7-0.2,3-0.4,3.8-0.7c0-0.3,0-0.5,0-0.6
			c0-0.9-0.2-1.5-0.6-1.8c-0.5-0.5-1.3-0.7-2.4-0.7c-1,0-1.7,0.2-2.2,0.5s-0.8,1-1,1.8l-2.1-0.3c0.2-0.9,0.5-1.6,0.9-2.1
			s1.1-1,1.9-1.3s1.8-0.4,2.8-0.4c1.1,0,1.9,0.1,2.6,0.4s1.2,0.6,1.5,0.9s0.5,0.9,0.7,1.4c0.1,0.4,0.1,1,0.1,1.9v2.8
			c0,2,0,3.2,0.1,3.7s0.3,1,0.5,1.5h-2.2C201,394.2,200.9,393.7,200.8,393.1z M200.6,388.4c-0.8,0.3-1.9,0.6-3.4,0.8
			c-0.9,0.1-1.5,0.3-1.8,0.4s-0.6,0.4-0.8,0.7s-0.3,0.6-0.3,1c0,0.6,0.2,1,0.6,1.4s1,0.6,1.9,0.6c0.8,0,1.5-0.2,2.2-0.5
			s1.1-0.8,1.4-1.5c0.2-0.5,0.3-1.2,0.3-2.1V388.4z"/>
		<path class="st1" d="M206,399.5v-17.2h1.9v1.6c0.5-0.6,1-1.1,1.5-1.4s1.3-0.5,2.1-0.5c1.1,0,2,0.3,2.8,0.8s1.4,1.3,1.8,2.3
			s0.6,2.1,0.6,3.3c0,1.3-0.2,2.4-0.7,3.4s-1.1,1.8-2,2.3s-1.8,0.8-2.7,0.8c-0.7,0-1.3-0.1-1.9-0.4s-1-0.7-1.4-1.1v6.1H206z
			 M207.9,388.5c0,1.6,0.3,2.8,1,3.6s1.4,1.1,2.4,1.1c0.9,0,1.7-0.4,2.4-1.2s1-2,1-3.7c0-1.6-0.3-2.8-1-3.6s-1.4-1.2-2.3-1.2
			c-0.9,0-1.7,0.4-2.4,1.3S207.9,386.9,207.9,388.5z"/>
		<path class="st1" d="M219.4,399.5v-17.2h1.9v1.6c0.5-0.6,1-1.1,1.5-1.4s1.3-0.5,2.1-0.5c1.1,0,2,0.3,2.8,0.8s1.4,1.3,1.8,2.3
			s0.6,2.1,0.6,3.3c0,1.3-0.2,2.4-0.7,3.4s-1.1,1.8-2,2.3s-1.8,0.8-2.7,0.8c-0.7,0-1.3-0.1-1.9-0.4s-1-0.7-1.4-1.1v6.1H219.4z
			 M221.3,388.5c0,1.6,0.3,2.8,1,3.6s1.4,1.1,2.4,1.1c0.9,0,1.7-0.4,2.4-1.2s1-2,1-3.7c0-1.6-0.3-2.8-1-3.6s-1.4-1.2-2.3-1.2
			c-0.9,0-1.7,0.4-2.4,1.3S221.3,386.9,221.3,388.5z"/>
		<path class="st1" d="M232.7,394.7v-17.2h2.1v17.2H232.7z"/>
		<path class="st1" d="M238.1,379.9v-2.4h2.1v2.4H238.1z M238.1,394.7v-12.4h2.1v12.4H238.1z"/>
		<path class="st1" d="M251.5,390.1l2.1,0.3c-0.2,1.4-0.8,2.5-1.7,3.4s-2.1,1.2-3.4,1.2c-1.7,0-3.1-0.6-4.1-1.7s-1.6-2.7-1.6-4.8
			c0-1.3,0.2-2.5,0.7-3.5s1.1-1.8,2-2.3s1.9-0.8,3-0.8c1.4,0,2.5,0.3,3.3,1s1.4,1.7,1.7,2.9l-2.1,0.3c-0.2-0.8-0.5-1.5-1-1.9
			s-1.1-0.6-1.8-0.6c-1.1,0-1.9,0.4-2.6,1.1s-1,2-1,3.6c0,1.7,0.3,2.9,1,3.6s1.5,1.1,2.5,1.1c0.8,0,1.5-0.3,2.1-0.8
			S251.3,391.2,251.5,390.1z"/>
		<path class="st1" d="M263.5,393.1c-0.8,0.7-1.5,1.1-2.3,1.4s-1.5,0.4-2.3,0.4c-1.4,0-2.4-0.3-3.2-1s-1.1-1.5-1.1-2.6
			c0-0.6,0.1-1.2,0.4-1.7s0.6-0.9,1.1-1.2s1-0.5,1.5-0.7c0.4-0.1,1-0.2,1.9-0.3c1.7-0.2,3-0.4,3.8-0.7c0-0.3,0-0.5,0-0.6
			c0-0.9-0.2-1.5-0.6-1.8c-0.5-0.5-1.3-0.7-2.4-0.7c-1,0-1.7,0.2-2.2,0.5s-0.8,1-1,1.8l-2.1-0.3c0.2-0.9,0.5-1.6,0.9-2.1
			s1.1-1,1.9-1.3s1.8-0.4,2.8-0.4c1.1,0,1.9,0.1,2.6,0.4s1.2,0.6,1.5,0.9s0.5,0.9,0.7,1.4c0.1,0.4,0.1,1,0.1,1.9v2.8
			c0,2,0,3.2,0.1,3.7s0.3,1,0.5,1.5h-2.2C263.7,394.2,263.6,393.7,263.5,393.1z M263.3,388.4c-0.8,0.3-1.9,0.6-3.4,0.8
			c-0.9,0.1-1.5,0.3-1.8,0.4s-0.6,0.4-0.8,0.7s-0.3,0.6-0.3,1c0,0.6,0.2,1,0.6,1.4s1,0.6,1.9,0.6c0.8,0,1.5-0.2,2.2-0.5
			s1.1-0.8,1.4-1.5c0.2-0.5,0.3-1.2,0.3-2.1V388.4z"/>
		<path class="st1" d="M273.3,392.8l0.3,1.9c-0.6,0.1-1.1,0.2-1.6,0.2c-0.8,0-1.4-0.1-1.8-0.4s-0.7-0.6-0.9-1s-0.3-1.2-0.3-2.5v-7.2
			h-1.5v-1.6h1.5v-3.1l2.1-1.3v4.3h2.1v1.6h-2.1v7.3c0,0.6,0,1,0.1,1.2s0.2,0.3,0.4,0.4s0.4,0.2,0.7,0.2
			C272.6,392.9,272.9,392.9,273.3,392.8z"/>
		<path class="st1" d="M275.4,379.9v-2.4h2.1v2.4H275.4z M275.4,394.7v-12.4h2.1v12.4H275.4z"/>
		<path class="st1" d="M279.9,388.5c0-2.3,0.6-4,1.9-5.1c1.1-0.9,2.4-1.4,3.9-1.4c1.7,0,3.1,0.6,4.2,1.7s1.6,2.7,1.6,4.6
			c0,1.6-0.2,2.9-0.7,3.8s-1.2,1.6-2.1,2.1s-1.9,0.8-3,0.8c-1.7,0-3.2-0.6-4.2-1.7S279.9,390.6,279.9,388.5z M282.1,388.5
			c0,1.6,0.3,2.8,1,3.6s1.6,1.2,2.6,1.2c1,0,1.9-0.4,2.6-1.2s1-2,1-3.6c0-1.5-0.3-2.7-1-3.5s-1.6-1.2-2.6-1.2
			c-1.1,0-1.9,0.4-2.6,1.2S282.1,386.9,282.1,388.5z"/>
		<path class="st1" d="M294.1,394.7v-12.4h1.9v1.8c0.9-1.4,2.2-2.1,4-2.1c0.8,0,1.4,0.1,2.1,0.4s1.1,0.6,1.4,1.1s0.5,1,0.7,1.6
			c0.1,0.4,0.1,1.1,0.1,2.1v7.7h-2.1v-7.6c0-0.9-0.1-1.5-0.2-1.9s-0.5-0.8-0.9-1s-0.9-0.4-1.5-0.4c-0.9,0-1.7,0.3-2.3,0.9
			s-1,1.7-1,3.2v6.8H294.1z"/>
		<path class="st1" d="M308,394.7v-2.4h2.4v2.4H308z"/>
		<path class="st1" d="M9.8,418.3v-2.1h6.5v2.1H9.8z"/>
		<path class="st1" d="M29.2,423.5v-17.2h2.3v17.2H29.2z"/>
		<path class="st1" d="M35.2,423.5V411h1.9v1.8c0.9-1.4,2.2-2.1,4-2.1c0.8,0,1.4,0.1,2.1,0.4s1.1,0.6,1.4,1.1s0.5,1,0.7,1.6
			c0.1,0.4,0.1,1.1,0.1,2.1v7.7h-2.1v-7.6c0-0.9-0.1-1.5-0.2-1.9s-0.5-0.8-0.9-1s-0.9-0.4-1.5-0.4c-0.9,0-1.7,0.3-2.3,0.9
			s-1,1.7-1,3.2v6.8H35.2z"/>
		<path class="st1" d="M53.2,421.6l0.3,1.9c-0.6,0.1-1.1,0.2-1.6,0.2c-0.8,0-1.4-0.1-1.8-0.4s-0.7-0.6-0.9-1s-0.3-1.2-0.3-2.5v-7.2
			h-1.5V411H49V408l2.1-1.3v4.3h2.1v1.6h-2.1v7.3c0,0.6,0,1,0.1,1.2s0.2,0.3,0.4,0.4s0.4,0.2,0.7,0.2
			C52.5,421.7,52.8,421.7,53.2,421.6z"/>
		<path class="st1" d="M63.8,419.5l2.2,0.3c-0.3,1.3-1,2.3-1.9,3s-2.1,1.1-3.6,1.1c-1.8,0-3.3-0.6-4.3-1.7s-1.6-2.7-1.6-4.7
			c0-2.1,0.5-3.7,1.6-4.9s2.5-1.7,4.2-1.7c1.7,0,3,0.6,4.1,1.7s1.6,2.7,1.6,4.8c0,0.1,0,0.3,0,0.6h-9.3c0.1,1.4,0.5,2.4,1.2,3.1
			s1.6,1.1,2.6,1.1c0.8,0,1.4-0.2,2-0.6S63.5,420.4,63.8,419.5z M56.9,416.1h6.9c-0.1-1-0.4-1.8-0.8-2.4c-0.7-0.8-1.5-1.2-2.6-1.2
			c-1,0-1.8,0.3-2.4,1S56.9,415,56.9,416.1z M59.1,409.5l1.6-3.3h2.8l-2.6,3.3H59.1z"/>
		<path class="st1" d="M68.2,424.5l2.1,0.3c0.1,0.6,0.3,1.1,0.7,1.4c0.5,0.4,1.2,0.6,2.1,0.6c1,0,1.7-0.2,2.3-0.6s0.9-0.9,1.1-1.6
			c0.1-0.4,0.2-1.3,0.2-2.7c-0.9,1.1-2.1,1.6-3.4,1.6c-1.7,0-3-0.6-4-1.9s-1.4-2.7-1.4-4.4c0-1.2,0.2-2.3,0.6-3.3s1.1-1.8,1.9-2.3
			s1.8-0.8,2.9-0.8c1.5,0,2.7,0.6,3.6,1.8V411h1.9v10.8c0,1.9-0.2,3.3-0.6,4.1s-1,1.4-1.9,1.9s-1.9,0.7-3.2,0.7
			c-1.5,0-2.7-0.3-3.6-1S68.2,425.9,68.2,424.5z M70,417c0,1.6,0.3,2.8,1,3.6s1.5,1.1,2.4,1.1c1,0,1.8-0.4,2.4-1.1s1-1.9,1-3.5
			c0-1.5-0.3-2.7-1-3.4s-1.5-1.2-2.4-1.2c-0.9,0-1.7,0.4-2.4,1.1S70,415.5,70,417z"/>
		<path class="st1" d="M81.9,423.5V411h1.9v1.9c0.5-0.9,0.9-1.5,1.3-1.7s0.9-0.4,1.4-0.4c0.7,0,1.4,0.2,2.2,0.7l-0.7,2
			c-0.5-0.3-1-0.5-1.5-0.5c-0.5,0-0.9,0.1-1.2,0.4s-0.6,0.7-0.8,1.2c-0.2,0.8-0.4,1.6-0.4,2.5v6.5H81.9z"/>
		<path class="st1" d="M98.1,421.9c-0.8,0.7-1.5,1.1-2.3,1.4s-1.5,0.4-2.3,0.4c-1.4,0-2.4-0.3-3.2-1s-1.1-1.5-1.1-2.6
			c0-0.6,0.1-1.2,0.4-1.7s0.6-0.9,1.1-1.2s1-0.5,1.5-0.7c0.4-0.1,1-0.2,1.9-0.3c1.7-0.2,3-0.4,3.8-0.7c0-0.3,0-0.5,0-0.6
			c0-0.9-0.2-1.5-0.6-1.8c-0.5-0.5-1.3-0.7-2.4-0.7c-1,0-1.7,0.2-2.2,0.5s-0.8,1-1,1.8l-2.1-0.3c0.2-0.9,0.5-1.6,0.9-2.1
			s1.1-1,1.9-1.3s1.8-0.4,2.8-0.4c1.1,0,1.9,0.1,2.6,0.4s1.2,0.6,1.5,0.9s0.5,0.9,0.7,1.4c0.1,0.4,0.1,1,0.1,1.9v2.8
			c0,2,0,3.2,0.1,3.7s0.3,1,0.5,1.5h-2.2C98.3,423,98.1,422.5,98.1,421.9z M97.9,417.2c-0.8,0.3-1.9,0.6-3.4,0.8
			c-0.9,0.1-1.5,0.3-1.8,0.4s-0.6,0.4-0.8,0.7s-0.3,0.6-0.3,1c0,0.6,0.2,1,0.6,1.4s1,0.6,1.9,0.6c0.8,0,1.5-0.2,2.2-0.5
			s1.1-0.8,1.4-1.5c0.2-0.5,0.3-1.2,0.3-2.1V417.2z"/>
		<path class="st1" d="M107.9,421.6l0.3,1.9c-0.6,0.1-1.1,0.2-1.6,0.2c-0.8,0-1.4-0.1-1.8-0.4s-0.7-0.6-0.9-1s-0.3-1.2-0.3-2.5v-7.2
			h-1.5V411h1.5V408l2.1-1.3v4.3h2.1v1.6h-2.1v7.3c0,0.6,0,1,0.1,1.2s0.2,0.3,0.4,0.4s0.4,0.2,0.7,0.2
			C107.2,421.7,107.5,421.7,107.9,421.6z"/>
		<path class="st1" d="M110,408.7v-2.4h2.1v2.4H110z M110,423.5V411h2.1v12.4H110z"/>
		<path class="st1" d="M114.5,417.3c0-2.3,0.6-4,1.9-5.1c1.1-0.9,2.4-1.4,3.9-1.4c1.7,0,3.1,0.6,4.2,1.7s1.6,2.7,1.6,4.6
			c0,1.6-0.2,2.9-0.7,3.8s-1.2,1.6-2.1,2.1s-1.9,0.8-3,0.8c-1.7,0-3.2-0.6-4.2-1.7S114.5,419.4,114.5,417.3z M116.7,417.3
			c0,1.6,0.3,2.8,1,3.6s1.6,1.2,2.6,1.2c1,0,1.9-0.4,2.6-1.2s1-2,1-3.6c0-1.5-0.3-2.7-1-3.5s-1.6-1.2-2.6-1.2
			c-1.1,0-1.9,0.4-2.6,1.2S116.7,415.7,116.7,417.3z"/>
		<path class="st1" d="M128.6,423.5V411h1.9v1.8c0.9-1.4,2.2-2.1,4-2.1c0.8,0,1.4,0.1,2.1,0.4s1.1,0.6,1.4,1.1s0.5,1,0.7,1.6
			c0.1,0.4,0.1,1.1,0.1,2.1v7.7h-2.1v-7.6c0-0.9-0.1-1.5-0.2-1.9s-0.5-0.8-0.9-1s-0.9-0.4-1.5-0.4c-0.9,0-1.7,0.3-2.3,0.9
			s-1,1.7-1,3.2v6.8H128.6z"/>
		<path class="st1" d="M156.7,423.5v-1.6c-0.8,1.2-1.9,1.9-3.5,1.9c-1,0-1.9-0.3-2.7-0.8s-1.5-1.3-1.9-2.3s-0.7-2.1-0.7-3.4
			c0-1.2,0.2-2.4,0.6-3.4s1-1.8,1.9-2.3s1.8-0.8,2.8-0.8c0.8,0,1.4,0.2,2,0.5s1.1,0.7,1.4,1.2v-6.2h2.1v17.2H156.7z M150.1,417.3
			c0,1.6,0.3,2.8,1,3.6s1.5,1.2,2.4,1.2c0.9,0,1.7-0.4,2.3-1.1s1-1.9,1-3.5c0-1.7-0.3-3-1-3.8s-1.5-1.2-2.4-1.2
			c-0.9,0-1.7,0.4-2.3,1.1S150.1,415.6,150.1,417.3z"/>
		<path class="st1" d="M161.9,408.6v-2.4h2.3v1.9c0,1-0.1,1.8-0.4,2.3c-0.3,0.6-0.9,1.1-1.6,1.4l-0.5-0.8c0.4-0.2,0.7-0.4,0.9-0.8
			s0.3-0.9,0.3-1.5H161.9z"/>
		<path class="st1" d="M175.5,423.5v-1.8c-1,1.4-2.3,2.1-3.9,2.1c-0.7,0-1.4-0.1-2.1-0.4s-1.1-0.6-1.4-1.1s-0.5-0.9-0.7-1.6
			c-0.1-0.4-0.1-1.1-0.1-2V411h2.1v6.9c0,1.1,0,1.8,0.1,2.2c0.1,0.6,0.4,1,0.8,1.3s1,0.5,1.6,0.5s1.2-0.2,1.8-0.5s0.9-0.8,1.2-1.3
			s0.3-1.4,0.3-2.4V411h2.1v12.4H175.5z"/>
		<path class="st1" d="M180.7,423.5V411h1.9v1.8c0.9-1.4,2.2-2.1,4-2.1c0.8,0,1.4,0.1,2.1,0.4s1.1,0.6,1.4,1.1s0.5,1,0.7,1.6
			c0.1,0.4,0.1,1.1,0.1,2.1v7.7h-2.1v-7.6c0-0.9-0.1-1.5-0.2-1.9s-0.5-0.8-0.9-1s-0.9-0.4-1.5-0.4c-0.9,0-1.7,0.3-2.3,0.9
			s-1,1.7-1,3.2v6.8H180.7z"/>
		<path class="st1" d="M202.6,419.5l2.2,0.3c-0.3,1.3-1,2.3-1.9,3s-2.1,1.1-3.6,1.1c-1.8,0-3.3-0.6-4.3-1.7s-1.6-2.7-1.6-4.7
			c0-2.1,0.5-3.7,1.6-4.9s2.5-1.7,4.2-1.7c1.7,0,3,0.6,4.1,1.7s1.6,2.7,1.6,4.8c0,0.1,0,0.3,0,0.6h-9.3c0.1,1.4,0.5,2.4,1.2,3.1
			s1.6,1.1,2.6,1.1c0.8,0,1.4-0.2,2-0.6S202.2,420.4,202.6,419.5z M195.6,416.1h6.9c-0.1-1-0.4-1.8-0.8-2.4
			c-0.7-0.8-1.5-1.2-2.6-1.2c-1,0-1.8,0.3-2.4,1S195.7,415,195.6,416.1z"/>
		<path class="st1" d="M222.6,419.5l2.2,0.3c-0.3,1.3-1,2.3-1.9,3s-2.1,1.1-3.6,1.1c-1.8,0-3.3-0.6-4.3-1.7s-1.6-2.7-1.6-4.7
			c0-2.1,0.5-3.7,1.6-4.9s2.5-1.7,4.2-1.7c1.7,0,3,0.6,4.1,1.7s1.6,2.7,1.6,4.8c0,0.1,0,0.3,0,0.6h-9.3c0.1,1.4,0.5,2.4,1.2,3.1
			s1.6,1.1,2.6,1.1c0.8,0,1.4-0.2,2-0.6S222.3,420.4,222.6,419.5z M215.6,416.1h6.9c-0.1-1-0.4-1.8-0.8-2.4
			c-0.7-0.8-1.5-1.2-2.6-1.2c-1,0-1.8,0.3-2.4,1S215.7,415,215.6,416.1z M217.9,409.5l1.6-3.3h2.8l-2.6,3.3H217.9z"/>
		<path class="st1" d="M235.3,428.3v-6.1c-0.3,0.5-0.8,0.8-1.4,1.1s-1.2,0.5-1.9,0.5c-1.5,0-2.7-0.6-3.8-1.8s-1.6-2.8-1.6-4.9
			c0-1.2,0.2-2.4,0.7-3.4s1.1-1.7,1.9-2.3s1.7-0.8,2.7-0.8c1.5,0,2.8,0.6,3.6,1.9V411h1.9v17.2H235.3z M228.8,417.2
			c0,1.6,0.3,2.8,1,3.6s1.5,1.2,2.4,1.2c0.9,0,1.7-0.4,2.3-1.1s1-1.9,1-3.5c0-1.7-0.3-2.9-1-3.7s-1.5-1.3-2.4-1.3
			c-0.9,0-1.7,0.4-2.3,1.2S228.8,415.6,228.8,417.2z"/>
		<path class="st1" d="M248.9,423.5v-1.8c-1,1.4-2.3,2.1-3.9,2.1c-0.7,0-1.4-0.1-2.1-0.4s-1.1-0.6-1.4-1.1s-0.5-0.9-0.7-1.6
			c-0.1-0.4-0.1-1.1-0.1-2V411h2.1v6.9c0,1.1,0,1.8,0.1,2.2c0.1,0.6,0.4,1,0.8,1.3s1,0.5,1.6,0.5s1.2-0.2,1.8-0.5s0.9-0.8,1.2-1.3
			s0.3-1.4,0.3-2.4V411h2.1v12.4H248.9z"/>
		<path class="st1" d="M254.1,408.7v-2.4h2.1v2.4H254.1z M254.1,423.5V411h2.1v12.4H254.1z"/>
		<path class="st1" d="M259.4,428.3V411h1.9v1.6c0.5-0.6,1-1.1,1.5-1.4s1.3-0.5,2.1-0.5c1.1,0,2,0.3,2.8,0.8s1.4,1.3,1.8,2.3
			s0.6,2.1,0.6,3.3c0,1.3-0.2,2.4-0.7,3.4s-1.1,1.8-2,2.3s-1.8,0.8-2.7,0.8c-0.7,0-1.3-0.1-1.9-0.4s-1-0.7-1.4-1.1v6.1H259.4z
			 M261.3,417.3c0,1.6,0.3,2.8,1,3.6s1.4,1.1,2.4,1.1c0.9,0,1.7-0.4,2.4-1.2s1-2,1-3.7c0-1.6-0.3-2.8-1-3.6s-1.4-1.2-2.3-1.2
			c-0.9,0-1.7,0.4-2.4,1.3S261.3,415.7,261.3,417.3z"/>
		<path class="st1" d="M281.3,419.5l2.2,0.3c-0.3,1.3-1,2.3-1.9,3s-2.1,1.1-3.6,1.1c-1.8,0-3.3-0.6-4.3-1.7s-1.6-2.7-1.6-4.7
			c0-2.1,0.5-3.7,1.6-4.9s2.5-1.7,4.2-1.7c1.7,0,3,0.6,4.1,1.7s1.6,2.7,1.6,4.8c0,0.1,0,0.3,0,0.6h-9.3c0.1,1.4,0.5,2.4,1.2,3.1
			s1.6,1.1,2.6,1.1c0.8,0,1.4-0.2,2-0.6S281,420.4,281.3,419.5z M274.4,416.1h6.9c-0.1-1-0.4-1.8-0.8-2.4c-0.7-0.8-1.5-1.2-2.6-1.2
			c-1,0-1.8,0.3-2.4,1S274.4,415,274.4,416.1z"/>
		<path class="st1" d="M300.9,421.9c-0.8,0.7-1.5,1.1-2.3,1.4s-1.5,0.4-2.3,0.4c-1.4,0-2.4-0.3-3.2-1s-1.1-1.5-1.1-2.6
			c0-0.6,0.1-1.2,0.4-1.7s0.6-0.9,1.1-1.2s1-0.5,1.5-0.7c0.4-0.1,1-0.2,1.9-0.3c1.7-0.2,3-0.4,3.8-0.7c0-0.3,0-0.5,0-0.6
			c0-0.9-0.2-1.5-0.6-1.8c-0.5-0.5-1.3-0.7-2.4-0.7c-1,0-1.7,0.2-2.2,0.5s-0.8,1-1,1.8l-2.1-0.3c0.2-0.9,0.5-1.6,0.9-2.1
			s1.1-1,1.9-1.3s1.8-0.4,2.8-0.4c1.1,0,1.9,0.1,2.6,0.4s1.2,0.6,1.5,0.9s0.5,0.9,0.7,1.4c0.1,0.4,0.1,1,0.1,1.9v2.8
			c0,2,0,3.2,0.1,3.7s0.3,1,0.5,1.5h-2.2C301.1,423,301,422.5,300.9,421.9z M300.7,417.2c-0.8,0.3-1.9,0.6-3.4,0.8
			c-0.9,0.1-1.5,0.3-1.8,0.4s-0.6,0.4-0.8,0.7s-0.3,0.6-0.3,1c0,0.6,0.2,1,0.6,1.4s1,0.6,1.9,0.6c0.8,0,1.5-0.2,2.2-0.5
			s1.1-0.8,1.4-1.5c0.2-0.5,0.3-1.2,0.3-2.1V417.2z"/>
		<path class="st1" d="M305.8,424.5l2.1,0.3c0.1,0.6,0.3,1.1,0.7,1.4c0.5,0.4,1.2,0.6,2.1,0.6c1,0,1.7-0.2,2.3-0.6s0.9-0.9,1.1-1.6
			c0.1-0.4,0.2-1.3,0.2-2.7c-0.9,1.1-2.1,1.6-3.4,1.6c-1.7,0-3-0.6-4-1.9s-1.4-2.7-1.4-4.4c0-1.2,0.2-2.3,0.6-3.3s1.1-1.8,1.9-2.3
			s1.8-0.8,2.9-0.8c1.5,0,2.7,0.6,3.6,1.8V411h1.9v10.8c0,1.9-0.2,3.3-0.6,4.1s-1,1.4-1.9,1.9s-1.9,0.7-3.2,0.7
			c-1.5,0-2.7-0.3-3.6-1S305.7,425.9,305.8,424.5z M307.5,417c0,1.6,0.3,2.8,1,3.6s1.5,1.1,2.4,1.1c1,0,1.8-0.4,2.4-1.1s1-1.9,1-3.5
			c0-1.5-0.3-2.7-1-3.4s-1.5-1.2-2.4-1.2c-0.9,0-1.7,0.4-2.4,1.1S307.5,415.5,307.5,417z"/>
		<path class="st1" d="M319.5,408.7v-2.4h2.1v2.4H319.5z M319.5,423.5V411h2.1v12.4H319.5z"/>
		<path class="st1" d="M324.8,423.5v-17.2h2.1v17.2H324.8z"/>
		<path class="st1" d="M338.7,419.5l2.2,0.3c-0.3,1.3-1,2.3-1.9,3s-2.1,1.1-3.6,1.1c-1.8,0-3.3-0.6-4.3-1.7s-1.6-2.7-1.6-4.7
			c0-2.1,0.5-3.7,1.6-4.9s2.5-1.7,4.2-1.7c1.7,0,3,0.6,4.1,1.7s1.6,2.7,1.6,4.8c0,0.1,0,0.3,0,0.6h-9.3c0.1,1.4,0.5,2.4,1.2,3.1
			s1.6,1.1,2.6,1.1c0.8,0,1.4-0.2,2-0.6S338.4,420.4,338.7,419.5z M331.7,416.1h6.9c-0.1-1-0.4-1.8-0.8-2.4
			c-0.7-0.8-1.5-1.2-2.6-1.2c-1,0-1.8,0.3-2.4,1S331.8,415,331.7,416.1z"/>
		<path class="st1" d="M344.1,423.5v-2.4h2.4v2.4H344.1z"/>
		<path class="st1" d="M9.8,447.1V445h6.5v2.1H9.8z"/>
		<path class="st1" d="M40.1,435.1h2.3v9.9c0,1.7-0.2,3.1-0.6,4.1s-1.1,1.8-2.1,2.5s-2.4,1-4,1c-1.6,0-2.9-0.3-3.9-0.8
			s-1.8-1.4-2.2-2.4s-0.7-2.5-0.7-4.3v-9.9h2.3v9.9c0,1.5,0.1,2.6,0.4,3.3s0.8,1.3,1.4,1.6s1.5,0.6,2.5,0.6c1.7,0,2.9-0.4,3.6-1.1
			s1.1-2.2,1.1-4.4V435.1z"/>
		<path class="st1" d="M50.5,450.4l0.3,1.9c-0.6,0.1-1.1,0.2-1.6,0.2c-0.8,0-1.4-0.1-1.8-0.4s-0.7-0.6-0.9-1s-0.3-1.2-0.3-2.5v-7.2
			h-1.5v-1.6h1.5v-3.1l2.1-1.3v4.3h2.1v1.6h-2.1v7.3c0,0.6,0,1,0.1,1.2s0.2,0.3,0.4,0.4s0.4,0.2,0.7,0.2
			C49.8,450.5,50.1,450.5,50.5,450.4z"/>
		<path class="st1" d="M52.6,437.5v-2.4h2.1v2.4H52.6z M52.6,452.3v-12.4h2.1v12.4H52.6z"/>
		<path class="st1" d="M57.9,452.3v-17.2H60v17.2H57.9z"/>
		<path class="st1" d="M63.3,437.5v-2.4h2.1v2.4H63.3z M63.3,452.3v-12.4h2.1v12.4H63.3z"/>
		<path class="st1" d="M67.7,448.6l2.1-0.3c0.1,0.8,0.4,1.5,1,1.9s1.3,0.7,2.2,0.7c1,0,1.7-0.2,2.2-0.6s0.7-0.9,0.7-1.4
			c0-0.5-0.2-0.9-0.6-1.1c-0.3-0.2-1-0.4-2.2-0.7c-1.5-0.4-2.6-0.7-3.2-1s-1.1-0.7-1.4-1.2s-0.5-1.1-0.5-1.7c0-0.6,0.1-1.1,0.4-1.5
			s0.6-0.9,1-1.2c0.3-0.2,0.8-0.4,1.3-0.6s1.2-0.3,1.8-0.3c1,0,1.8,0.1,2.6,0.4s1.3,0.7,1.6,1.1s0.6,1.1,0.7,1.9l-2.1,0.3
			c-0.1-0.6-0.4-1.1-0.8-1.5s-1.1-0.5-1.9-0.5c-1,0-1.7,0.2-2.1,0.5s-0.6,0.7-0.6,1.1c0,0.3,0.1,0.5,0.3,0.7
			c0.2,0.2,0.4,0.4,0.8,0.6c0.2,0.1,0.8,0.3,1.9,0.5c1.5,0.4,2.5,0.7,3.1,1s1.1,0.6,1.4,1.1s0.5,1.1,0.5,1.8c0,0.7-0.2,1.4-0.6,2
			s-1,1.1-1.8,1.4s-1.6,0.5-2.6,0.5c-1.6,0-2.8-0.3-3.7-1S68,449.9,67.7,448.6z"/>
		<path class="st1" d="M88.7,450.7c-0.8,0.7-1.5,1.1-2.3,1.4s-1.5,0.4-2.3,0.4c-1.4,0-2.4-0.3-3.2-1s-1.1-1.5-1.1-2.6
			c0-0.6,0.1-1.2,0.4-1.7s0.6-0.9,1.1-1.2s1-0.5,1.5-0.7c0.4-0.1,1-0.2,1.9-0.3c1.7-0.2,3-0.4,3.8-0.7c0-0.3,0-0.5,0-0.6
			c0-0.9-0.2-1.5-0.6-1.8c-0.5-0.5-1.3-0.7-2.4-0.7c-1,0-1.7,0.2-2.2,0.5s-0.8,1-1,1.8l-2.1-0.3c0.2-0.9,0.5-1.6,0.9-2.1
			s1.1-1,1.9-1.3s1.8-0.4,2.8-0.4c1.1,0,1.9,0.1,2.6,0.4s1.2,0.6,1.5,0.9s0.5,0.9,0.7,1.4c0.1,0.4,0.1,1,0.1,1.9v2.8
			c0,2,0,3.2,0.1,3.7s0.3,1,0.5,1.5h-2.2C88.9,451.8,88.8,451.3,88.7,450.7z M88.5,446c-0.8,0.3-1.9,0.6-3.4,0.8
			c-0.9,0.1-1.5,0.3-1.8,0.4s-0.6,0.4-0.8,0.7s-0.3,0.6-0.3,1c0,0.6,0.2,1,0.6,1.4s1,0.6,1.9,0.6c0.8,0,1.5-0.2,2.2-0.5
			s1.1-0.8,1.4-1.5c0.2-0.5,0.3-1.2,0.3-2.1V446z"/>
		<path class="st1" d="M98.5,450.4l0.3,1.9c-0.6,0.1-1.1,0.2-1.6,0.2c-0.8,0-1.4-0.1-1.8-0.4s-0.7-0.6-0.9-1s-0.3-1.2-0.3-2.5v-7.2
			h-1.5v-1.6h1.5v-3.1l2.1-1.3v4.3h2.1v1.6h-2.1v7.3c0,0.6,0,1,0.1,1.2s0.2,0.3,0.4,0.4s0.4,0.2,0.7,0.2
			C97.8,450.5,98.1,450.5,98.5,450.4z"/>
		<path class="st1" d="M100.6,437.5v-2.4h2.1v2.4H100.6z M100.6,452.3v-12.4h2.1v12.4H100.6z"/>
		<path class="st1" d="M105.1,446.1c0-2.3,0.6-4,1.9-5.1c1.1-0.9,2.4-1.4,3.9-1.4c1.7,0,3.1,0.6,4.2,1.7s1.6,2.7,1.6,4.6
			c0,1.6-0.2,2.9-0.7,3.8s-1.2,1.6-2.1,2.1s-1.9,0.8-3,0.8c-1.7,0-3.2-0.6-4.2-1.7S105.1,448.2,105.1,446.1z M107.3,446.1
			c0,1.6,0.3,2.8,1,3.6s1.6,1.2,2.6,1.2c1,0,1.9-0.4,2.6-1.2s1-2,1-3.6c0-1.5-0.3-2.7-1-3.5s-1.6-1.2-2.6-1.2
			c-1.1,0-1.9,0.4-2.6,1.2S107.3,444.5,107.3,446.1z"/>
		<path class="st1" d="M119.3,452.3v-12.4h1.9v1.8c0.9-1.4,2.2-2.1,4-2.1c0.8,0,1.4,0.1,2.1,0.4s1.1,0.6,1.4,1.1s0.5,1,0.7,1.6
			c0.1,0.4,0.1,1.1,0.1,2.1v7.7h-2.1v-7.6c0-0.9-0.1-1.5-0.2-1.9s-0.5-0.8-0.9-1s-0.9-0.4-1.5-0.4c-0.9,0-1.7,0.3-2.3,0.9
			s-1,1.7-1,3.2v6.8H119.3z"/>
		<path class="st1" d="M147.4,452.3v-1.6c-0.8,1.2-1.9,1.9-3.5,1.9c-1,0-1.9-0.3-2.7-0.8s-1.5-1.3-1.9-2.3s-0.7-2.1-0.7-3.4
			c0-1.2,0.2-2.4,0.6-3.4s1-1.8,1.9-2.3s1.8-0.8,2.8-0.8c0.8,0,1.4,0.2,2,0.5s1.1,0.7,1.4,1.2v-6.2h2.1v17.2H147.4z M140.7,446.1
			c0,1.6,0.3,2.8,1,3.6s1.5,1.2,2.4,1.2c0.9,0,1.7-0.4,2.3-1.1s1-1.9,1-3.5c0-1.7-0.3-3-1-3.8s-1.5-1.2-2.4-1.2
			c-0.9,0-1.7,0.4-2.3,1.1S140.7,444.4,140.7,446.1z"/>
		<path class="st1" d="M161.2,448.3l2.2,0.3c-0.3,1.3-1,2.3-1.9,3s-2.1,1.1-3.6,1.1c-1.8,0-3.3-0.6-4.3-1.7s-1.6-2.7-1.6-4.7
			c0-2.1,0.5-3.7,1.6-4.9s2.5-1.7,4.2-1.7c1.7,0,3,0.6,4.1,1.7s1.6,2.7,1.6,4.8c0,0.1,0,0.3,0,0.6h-9.3c0.1,1.4,0.5,2.4,1.2,3.1
			s1.6,1.1,2.6,1.1c0.8,0,1.4-0.2,2-0.6S160.8,449.2,161.2,448.3z M154.2,444.9h6.9c-0.1-1-0.4-1.8-0.8-2.4
			c-0.7-0.8-1.5-1.2-2.6-1.2c-1,0-1.8,0.3-2.4,1S154.3,443.8,154.2,444.9z"/>
		<path class="st1" d="M172.3,453.3l2.1,0.3c0.1,0.6,0.3,1.1,0.7,1.4c0.5,0.4,1.2,0.6,2.1,0.6c1,0,1.7-0.2,2.3-0.6s0.9-0.9,1.1-1.6
			c0.1-0.4,0.2-1.3,0.2-2.7c-0.9,1.1-2.1,1.6-3.4,1.6c-1.7,0-3-0.6-4-1.9s-1.4-2.7-1.4-4.4c0-1.2,0.2-2.3,0.6-3.3s1.1-1.8,1.9-2.3
			s1.8-0.8,2.9-0.8c1.5,0,2.7,0.6,3.6,1.8v-1.5h1.9v10.8c0,1.9-0.2,3.3-0.6,4.1s-1,1.4-1.9,1.9s-1.9,0.7-3.2,0.7
			c-1.5,0-2.7-0.3-3.6-1S172.2,454.7,172.3,453.3z M174,445.8c0,1.6,0.3,2.8,1,3.6s1.5,1.1,2.4,1.1c1,0,1.8-0.4,2.4-1.1s1-1.9,1-3.5
			c0-1.5-0.3-2.7-1-3.4s-1.5-1.2-2.4-1.2c-0.9,0-1.7,0.4-2.4,1.1S174,444.3,174,445.8z"/>
		<path class="st1" d="M186,437.5v-2.4h2.1v2.4H186z M186,452.3v-12.4h2.1v12.4H186z"/>
		<path class="st1" d="M195.9,450.4l0.3,1.9c-0.6,0.1-1.1,0.2-1.6,0.2c-0.8,0-1.4-0.1-1.8-0.4s-0.7-0.6-0.9-1s-0.3-1.2-0.3-2.5v-7.2
			h-1.5v-1.6h1.5v-3.1l2.1-1.3v4.3h2.1v1.6h-2.1v7.3c0,0.6,0,1,0.1,1.2s0.2,0.3,0.4,0.4s0.4,0.2,0.7,0.2
			C195.2,450.5,195.6,450.5,195.9,450.4z"/>
		<path class="st1" d="M213.2,448.3l2.2,0.3c-0.3,1.3-1,2.3-1.9,3s-2.1,1.1-3.6,1.1c-1.8,0-3.3-0.6-4.3-1.7s-1.6-2.7-1.6-4.7
			c0-2.1,0.5-3.7,1.6-4.9s2.5-1.7,4.2-1.7c1.7,0,3,0.6,4.1,1.7s1.6,2.7,1.6,4.8c0,0.1,0,0.3,0,0.6h-9.3c0.1,1.4,0.5,2.4,1.2,3.1
			s1.6,1.1,2.6,1.1c0.8,0,1.4-0.2,2-0.6S212.9,449.2,213.2,448.3z M206.3,444.9h6.9c-0.1-1-0.4-1.8-0.8-2.4
			c-0.7-0.8-1.5-1.2-2.6-1.2c-1,0-1.8,0.3-2.4,1S206.3,443.8,206.3,444.9z"/>
		<path class="st1" d="M222.6,450.4l0.3,1.9c-0.6,0.1-1.1,0.2-1.6,0.2c-0.8,0-1.4-0.1-1.8-0.4s-0.7-0.6-0.9-1s-0.3-1.2-0.3-2.5v-7.2
			h-1.5v-1.6h1.5v-3.1l2.1-1.3v4.3h2.1v1.6h-2.1v7.3c0,0.6,0,1,0.1,1.2s0.2,0.3,0.4,0.4s0.4,0.2,0.7,0.2
			C221.9,450.5,222.2,450.5,222.6,450.4z"/>
		<path class="st1" d="M231,453.3l2.1,0.3c0.1,0.6,0.3,1.1,0.7,1.4c0.5,0.4,1.2,0.6,2.1,0.6c1,0,1.7-0.2,2.3-0.6s0.9-0.9,1.1-1.6
			c0.1-0.4,0.2-1.3,0.2-2.7c-0.9,1.1-2.1,1.6-3.4,1.6c-1.7,0-3-0.6-4-1.9s-1.4-2.7-1.4-4.4c0-1.2,0.2-2.3,0.6-3.3s1.1-1.8,1.9-2.3
			s1.8-0.8,2.9-0.8c1.5,0,2.7,0.6,3.6,1.8v-1.5h1.9v10.8c0,1.9-0.2,3.3-0.6,4.1s-1,1.4-1.9,1.9s-1.9,0.7-3.2,0.7
			c-1.5,0-2.7-0.3-3.6-1S230.9,454.7,231,453.3z M232.7,445.8c0,1.6,0.3,2.8,1,3.6s1.5,1.1,2.4,1.1c1,0,1.8-0.4,2.4-1.1s1-1.9,1-3.5
			c0-1.5-0.3-2.7-1-3.4s-1.5-1.2-2.4-1.2c-0.9,0-1.7,0.4-2.4,1.1S232.7,444.3,232.7,445.8z"/>
		<path class="st1" d="M244.7,437.5v-2.4h2.1v2.4H244.7z M244.7,452.3v-12.4h2.1v12.4H244.7z"/>
		<path class="st1" d="M254.6,450.4l0.3,1.9c-0.6,0.1-1.1,0.2-1.6,0.2c-0.8,0-1.4-0.1-1.8-0.4s-0.7-0.6-0.9-1s-0.3-1.2-0.3-2.5v-7.2
			h-1.5v-1.6h1.5v-3.1l2.1-1.3v4.3h2.1v1.6h-2.1v7.3c0,0.6,0,1,0.1,1.2s0.2,0.3,0.4,0.4s0.4,0.2,0.7,0.2
			C253.9,450.5,254.3,450.5,254.6,450.4z"/>
		<path class="st1" d="M256.9,452.3v-17.2h2.3v15.2h8.5v2H256.9z"/>
		<path class="st1" d="M278.2,450.7c-0.8,0.7-1.5,1.1-2.3,1.4s-1.5,0.4-2.3,0.4c-1.4,0-2.4-0.3-3.2-1s-1.1-1.5-1.1-2.6
			c0-0.6,0.1-1.2,0.4-1.7s0.6-0.9,1.1-1.2s1-0.5,1.5-0.7c0.4-0.1,1-0.2,1.9-0.3c1.7-0.2,3-0.4,3.8-0.7c0-0.3,0-0.5,0-0.6
			c0-0.9-0.2-1.5-0.6-1.8c-0.5-0.5-1.3-0.7-2.4-0.7c-1,0-1.7,0.2-2.2,0.5s-0.8,1-1,1.8l-2.1-0.3c0.2-0.9,0.5-1.6,0.9-2.1
			s1.1-1,1.9-1.3s1.8-0.4,2.8-0.4c1.1,0,1.9,0.1,2.6,0.4s1.2,0.6,1.5,0.9s0.5,0.9,0.7,1.4c0.1,0.4,0.1,1,0.1,1.9v2.8
			c0,2,0,3.2,0.1,3.7s0.3,1,0.5,1.5h-2.2C278.4,451.8,278.2,451.3,278.2,450.7z M278,446c-0.8,0.3-1.9,0.6-3.4,0.8
			c-0.9,0.1-1.5,0.3-1.8,0.4s-0.6,0.4-0.8,0.7s-0.3,0.6-0.3,1c0,0.6,0.2,1,0.6,1.4s1,0.6,1.9,0.6c0.8,0,1.5-0.2,2.2-0.5
			s1.1-0.8,1.4-1.5c0.2-0.5,0.3-1.2,0.3-2.1V446z"/>
		<path class="st1" d="M285.3,452.3h-2v-17.2h2.1v6.1c0.9-1.1,2-1.7,3.4-1.7c0.8,0,1.5,0.2,2.2,0.5s1.2,0.7,1.7,1.3s0.8,1.2,1,2
			s0.4,1.6,0.4,2.5c0,2.1-0.5,3.8-1.6,4.9s-2.3,1.7-3.8,1.7c-1.5,0-2.6-0.6-3.5-1.8V452.3z M285.3,446c0,1.5,0.2,2.6,0.6,3.2
			c0.7,1.1,1.6,1.6,2.7,1.6c0.9,0,1.7-0.4,2.4-1.2s1-2,1-3.6c0-1.6-0.3-2.8-1-3.6s-1.4-1.2-2.3-1.2c-0.9,0-1.7,0.4-2.4,1.2
			S285.3,444.5,285.3,446z"/>
		<path class="st1" d="M297.3,452.3v-2.4h2.4v2.4H297.3z"/>
	</g>
</g>
</svg>
